<svg width="172" height="169" viewBox="0 0 172 169" fill="none" xmlns="http://www.w3.org/2000/svg">
<line x1="46.3774" y1="35.1274" x2="117.132" y2="35.1275" stroke="url(#paint0_linear_568_924)" stroke-width="0.5"/>
<line x1="48.9746" y1="48.685" x2="114.343" y2="21.6084" stroke="url(#paint1_linear_568_924)" stroke-width="0.5"/>
<line x1="49.166" y1="21.6079" x2="114.535" y2="48.6846" stroke="url(#paint2_linear_568_924)" stroke-width="0.5"/>
<line x1="81.5049" y1="70.7549" x2="81.5049" y2="0.000167847" stroke="url(#paint3_linear_568_924)" stroke-width="0.5"/>
<line x1="67.9853" y1="67.9659" x2="95.062" y2="2.59702" stroke="url(#paint4_linear_568_924)" stroke-width="0.5"/>
<line x1="68.4473" y1="2.59769" x2="95.5239" y2="67.9665" stroke="url(#paint5_linear_568_924)" stroke-width="0.5"/>
<line x1="56.916" y1="10.185" x2="106.947" y2="60.2162" stroke="url(#paint6_linear_568_924)" stroke-width="0.5"/>
<line x1="56.5625" y1="60.2158" x2="106.594" y2="10.1847" stroke="url(#paint7_linear_568_924)" stroke-width="0.5"/>
<path d="M83.2458 36.4528L84.839 35.6001H82.4604L84.839 34.0742C79.1755 33.7408 76.6655 34.0134 75.5042 36.7894C70.9118 37.3338 69.9717 38.6814 69.0191 41.5466C71.9751 40.0172 73.4667 40.0604 75.8183 41.8159C76.5847 42.6409 76.7646 43.0979 76.6486 43.9028C75.1212 49.5414 76.3061 52.6173 82.1238 57.95C82.1547 59.6013 82.5326 60.5716 83.7619 62.3706C85.4486 62.6815 86.0779 62.4253 86.2752 60.7101C87.2397 62.3641 87.7831 63.3866 88.6987 63.2233C90.6242 62.7602 91.0311 62.1412 91.1446 60.7101C94.0093 66.2937 95.5992 70.6454 98.5496 69.7981C102.646 72.2991 102.641 71.2214 99.4921 65.9161C108.164 71.1219 104.152 66.1559 96.6198 56.9626C98.5534 57.2327 98.52 56.8 95.6549 54.5616C97.4753 54.4067 98.0805 54.1742 93.77 51.8689C98.1233 52.7664 92.2666 50.1634 89.5514 43.9028C85.5347 42.3096 86.4147 37.5089 83.2458 36.4528Z" fill="#0B1215"/>
<path d="M79.8575 38.1583C82.8163 39.9761 82.8163 37.3228 83.2458 36.4528M79.8575 38.1583C79.3279 36.3006 77.8828 36.1387 76.9852 37.6421C76.9395 38.5041 77.3127 38.8798 78.4662 39.4181M79.8575 38.1583L78.4662 39.4181M79.8575 38.1583C82.4604 39.9534 79.6106 46.518 76.6486 43.9028M83.2458 36.4528L84.839 35.6001H82.4604L84.839 34.0742C79.1755 33.7408 76.6655 34.0134 75.5042 36.7894C70.9118 37.3338 69.9717 38.6814 69.0191 41.5466C71.9751 40.0172 73.4667 40.0604 75.8183 41.8159M83.2458 36.4528C86.4147 37.5089 85.5347 42.3096 89.5514 43.9028C92.2666 50.1634 98.1233 52.7664 93.77 51.8689C98.0805 54.1742 97.4753 54.4067 95.6549 54.5616C98.52 56.8 98.5534 57.2327 96.6198 56.9626C104.152 66.1559 108.164 71.1219 99.4921 65.9161C102.641 71.2214 102.646 72.2991 98.5496 69.7981C95.5992 70.6454 94.0093 66.2937 91.1446 60.7101C91.0311 62.1412 90.6242 62.7602 88.6987 63.2233M75.8183 41.8159C78.2172 41.0374 77.6866 40.5067 78.4662 39.4181M75.8183 41.8159C76.5847 42.6409 76.7646 43.0979 76.6486 43.9028M76.6486 43.9028C75.1212 49.5414 76.3061 52.6173 82.1238 57.95C82.1547 59.6013 82.5326 60.5716 83.7619 62.3706M83.7619 62.3706L80.2838 67.1502M83.7619 62.3706C85.4486 62.6815 86.0779 62.4253 86.2752 60.7101C87.2397 62.3641 87.7831 63.3866 88.6987 63.2233M88.6987 63.2233L86.7464 68.2722" stroke="#E6AB07" stroke-width="0.75"/>
<path d="M60.8025 86.6004C59.5802 86.9155 58.5575 87.2924 57.6981 87.7596C56.1682 88.5913 55.156 89.7091 54.4572 91.2741C53.965 92.3767 53.6282 93.7012 53.3756 95.304C53.189 96.4881 53.0482 97.8241 52.9246 99.3347C52.8489 100.26 52.7797 101.25 52.7102 102.311C52.6601 103.075 52.6099 103.877 52.5572 104.717C52.5037 105.569 52.4475 106.46 52.3861 107.393C56.845 105.405 60.5169 105.246 68.8927 106.454C68.9265 106.128 68.9594 105.808 68.9916 105.493C69.0569 104.856 69.1191 104.241 69.1778 103.65C69.2386 103.038 69.2957 102.451 69.3491 101.887C69.4453 100.87 69.5293 99.9289 69.6 99.0565C69.7189 97.588 69.8003 96.3147 69.839 95.2065C69.879 94.0596 69.8734 93.0895 69.8167 92.2628C69.7386 91.1256 69.5639 90.2596 69.278 89.5776C68.8496 88.5555 68.1718 87.9468 67.1964 87.4582C66.2177 86.968 64.7171 86.6004 60.8025 86.6004Z" fill="#0B1215"/>
<path d="M60.0849 83.6592C60.3651 84.8078 61.3897 85.7834 60.8025 86.6004C64.7171 86.6004 66.2177 86.968 67.1964 87.4582C67.1964 86.6004 68.3055 86.3961 69.7409 85.9876C67.1964 84.1085 65.4348 83.6592 60.0849 83.6592Z" fill="#0B1215"/>
<path d="M65.2391 139.992C66.487 138.031 67.7232 137.88 70.7196 139.011C74.9622 135.917 76.4419 134.14 73.7208 130.719C73.0426 130.424 72.4604 130.105 71.9622 129.763C69.9425 128.378 69.3035 126.611 69.2541 124.528C69.2272 123.398 69.374 122.174 69.5679 120.867C69.6638 120.22 69.7712 119.554 69.8749 118.868C70.0612 117.635 70.2354 116.34 70.3085 114.991C70.3401 114.406 70.3528 113.812 70.3394 113.207C70.3188 112.286 70.2374 111.342 70.0695 110.377C69.8478 109.103 69.4752 107.794 68.8927 106.454C60.5169 105.246 56.845 105.405 52.3861 107.393C52.2583 109.337 52.1427 111.283 52.0822 113.207C52.0331 114.767 52.0202 116.313 52.0661 117.832C52.093 118.721 52.1401 119.601 52.2119 120.47C52.3266 121.856 52.5043 123.212 52.7637 124.528C52.8577 125.005 52.9625 125.477 53.079 125.943C53.4484 127.422 53.9349 128.843 54.5667 130.189C54.8581 130.809 55.1805 131.415 55.5366 132.002C56.0506 132.851 56.6349 133.663 57.2977 134.434C58.3489 135.657 59.5977 136.777 61.0776 137.775C61.3578 137.965 61.6463 138.149 61.9434 138.33C62.7213 138.802 63.5576 139.243 64.4563 139.651C64.7121 139.767 64.973 139.881 65.2391 139.992Z" fill="#0B1215"/>
<path d="M80.1799 65.8485C80.4684 66.67 80.7615 67.1036 82.0067 67.7276C84.2378 67.7049 85.4924 67.617 87.7481 67.074C89.1533 66.6954 89.4404 66.2222 89.8359 65.3174C86.0697 64.9874 83.9571 64.9195 80.1799 65.8485Z" fill="#0B1215"/>
<path d="M82.0067 67.7276C81.8123 68.3616 81.6334 68.9606 81.4699 69.5338C81.1378 70.6976 80.8688 71.7546 80.6606 72.7805C80.482 73.6607 80.3481 74.518 80.2575 75.4004C80.1774 76.1798 80.1312 76.9786 80.1177 77.8301C80.1037 78.7107 80.1248 79.6475 80.1799 80.6771C84.8296 78.8107 87.3816 78.7399 91.8585 79.9418C91.8367 79.7049 91.815 79.4728 91.7931 79.2452C91.6953 78.2257 91.5943 77.2944 91.4656 76.415C91.4079 76.0201 91.3445 75.6357 91.2734 75.2585C91.1536 74.6231 91.0116 74.0081 90.837 73.3977C90.4825 72.1588 89.9932 70.9388 89.2805 69.6063C88.8555 68.8115 88.3509 67.9767 87.7481 67.074C85.4924 67.617 84.2378 67.7049 82.0067 67.7276Z" fill="#0B1215"/>
<path d="M80.1799 80.6771C80.0398 81.05 79.9089 81.4132 79.7866 81.768C79.4022 82.8834 79.1035 83.916 78.8775 84.9056C78.7429 85.495 78.6342 86.0691 78.5486 86.6364C78.4531 87.2688 78.3863 87.8928 78.3446 88.5199C78.2641 89.7281 78.2764 90.948 78.3545 92.2628C78.4024 93.07 78.4752 93.9131 78.5666 94.8112C78.62 95.3358 78.6797 95.8792 78.7445 96.4453C84.0857 92.8401 87.1519 92.3131 92.7719 94.5253C93.3751 92.697 93.8016 91.1284 93.9892 89.6212C94.0683 88.9868 94.105 88.3632 94.0947 87.7357C94.0797 86.8163 93.9639 85.8884 93.7328 84.9056C93.5241 84.0184 93.2215 83.0864 92.8141 82.0754C92.543 81.4025 92.2255 80.6947 91.8585 79.9418C87.3816 78.7399 84.8296 78.8107 80.1799 80.6771Z" fill="#0B1215"/>
<path d="M78.7445 96.4453C78.4115 97.6922 78.1548 98.8501 77.9598 99.9446C77.8681 100.46 77.79 100.96 77.7241 101.45C77.5706 102.589 77.4828 103.667 77.4416 104.717C77.404 105.675 77.4051 106.61 77.4305 107.547C77.4655 108.837 77.5463 110.132 77.6352 111.498C77.6999 112.493 77.7689 113.526 77.8275 114.623C77.852 115.082 77.8748 115.553 77.8946 116.038C77.9252 116.785 77.9488 117.565 77.9615 118.382C86.603 115.623 89.3099 115.796 96.4908 118.055C96.5557 117.443 96.6139 116.848 96.6646 116.269C96.8008 114.716 96.8839 113.276 96.9038 111.907C96.917 111 96.9025 110.123 96.8573 109.266C96.7993 108.163 96.6907 107.09 96.5253 106.021C96.3139 104.656 96.0098 103.296 95.6 101.887C95.3332 100.969 95.0216 100.031 94.6616 99.0565C94.2655 97.9842 93.8108 96.8681 93.2928 95.6877C93.1258 95.3071 92.9522 94.9199 92.7719 94.5253C87.1519 92.3131 84.0857 92.8401 78.7445 96.4453Z" fill="#0B1215"/>
<path d="M70.7196 139.011C70.4915 139.914 70.2946 140.734 70.1221 141.509C69.9019 142.5 69.7216 143.417 69.5675 144.34C69.4894 144.806 69.4181 145.275 69.3516 145.755C69.2088 146.786 69.0885 147.871 68.9728 149.111C68.9459 149.398 68.9193 149.694 68.8927 150H101.254C101.273 149.907 101.292 149.816 101.31 149.725C101.617 148.196 101.744 146.977 101.727 145.755C101.721 145.264 101.691 144.773 101.641 144.262C101.561 143.449 101.429 142.583 101.254 141.585C97.3179 136.915 96.2958 134.12 99.4267 128.39C99.5539 126.102 99.4726 124.383 99.0031 122.764C98.7037 121.732 98.2465 120.739 97.5847 119.665C97.2685 119.151 96.9055 118.619 96.4908 118.055C89.3099 115.796 86.603 115.623 77.9615 118.382C77.6537 119.097 77.3368 119.78 77.0214 120.443C76.3709 121.811 75.7268 123.094 75.1821 124.406C74.8893 125.111 74.6253 125.824 74.4044 126.563C74.0225 127.841 73.7697 129.196 73.7208 130.719C76.4419 134.14 74.9622 135.917 70.7196 139.011Z" fill="#0B1215"/>
<path d="M105.038 120.629C104.928 121.265 104.818 121.855 104.7 122.402C104.187 124.788 103.547 126.338 102.341 127.284C101.61 127.858 100.671 128.209 99.4267 128.39C96.2958 134.12 97.3179 136.915 101.254 141.585C104.595 140.8 105.529 141.459 106.277 143.709C106.361 143.66 106.444 143.611 106.527 143.561C106.917 143.329 107.298 143.098 107.669 142.868C108.24 142.513 108.787 142.161 109.312 141.806C110.36 141.098 111.32 140.385 112.202 139.641C112.888 139.062 113.528 138.466 114.124 137.839C114.587 137.354 115.024 136.851 115.438 136.325C116.268 135.271 117.004 134.125 117.664 132.845C117.914 132.361 118.154 131.857 118.383 131.333C118.702 130.603 119.002 129.832 119.286 129.014C119.595 128.126 119.884 127.181 120.157 126.173C120.26 125.793 120.361 125.404 120.46 125.005C120.648 124.247 120.829 123.455 121.003 122.625C121.076 122.279 121.147 121.927 121.218 121.568C115.799 118.947 112.174 118.949 105.038 120.629Z" fill="#0B1215"/>
<path d="M111.432 102.001C109.988 102.396 108.865 103.042 107.992 104.002C107.256 104.813 106.698 105.846 106.277 107.141C106.174 107.458 106.079 107.79 105.992 108.139C105.651 109.501 105.426 111.11 105.281 112.997C105.24 113.518 105.206 114.059 105.177 114.623C105.132 115.511 105.1 116.453 105.077 117.453C105.055 118.453 105.043 119.511 105.038 120.629C112.174 118.949 115.799 118.947 121.218 121.568C121.35 120.854 121.475 120.163 121.592 119.494C121.767 118.495 121.925 117.547 122.064 116.647C122.183 115.88 122.288 115.147 122.38 114.447C122.503 113.502 122.6 112.618 122.669 111.792C122.756 110.759 122.798 109.818 122.792 108.962C122.787 108.157 122.739 107.427 122.645 106.768C122.534 105.989 122.36 105.308 122.116 104.717C121.751 103.833 121.232 103.149 120.539 102.634C119.912 102.168 119.142 101.842 118.217 101.633C115.58 102.14 114.097 102.307 111.432 102.001Z" fill="#0B1215"/>
<path d="M108.626 99.6724C109.051 100.65 109.589 101.167 111.432 102.001C114.097 102.307 115.58 102.14 118.217 101.633C119.142 101.104 119.51 100.759 119.978 100.081C115.881 98.761 113.359 98.7973 108.626 99.6724Z" fill="#0B1215"/>
<path d="M70.7196 139.011C67.7232 137.88 66.487 138.031 65.2391 139.992C64.973 139.881 64.7121 139.767 64.4563 139.651M70.7196 139.011C74.9622 135.917 76.4419 134.14 73.7208 130.719M70.7196 139.011C70.4915 139.914 70.2946 140.734 70.1221 141.509M52.3861 107.393C56.845 105.405 60.5169 105.246 68.8927 106.454M52.3861 107.393C52.4475 106.46 52.5037 105.569 52.5572 104.717M52.3861 107.393H50.6226M52.3861 107.393C52.2583 109.337 52.1427 111.283 52.0822 113.207M60.8025 86.6004C61.3897 85.7834 60.3651 84.8078 60.0849 83.6592C65.4348 83.6592 67.1964 84.1085 69.7409 85.9876C68.3055 86.3961 67.1964 86.6004 67.1964 87.4582M60.8025 86.6004C64.7171 86.6004 66.2177 86.968 67.1964 87.4582M60.8025 86.6004C59.5802 86.9155 58.5575 87.2924 57.6981 87.7596M67.1964 87.4582C68.1718 87.9468 68.8496 88.5555 69.278 89.5776M68.8927 106.454C68.9265 106.128 68.9594 105.808 68.9916 105.493M68.8927 106.454C69.4752 107.794 69.8478 109.103 70.0695 110.377M73.7208 130.719C73.0426 130.424 72.4604 130.105 71.9622 129.763M73.7208 130.719C73.7697 129.196 74.0225 127.841 74.4044 126.563M77.9615 118.382C86.603 115.623 89.3099 115.796 96.4908 118.055M77.9615 118.382C77.6537 119.097 77.3368 119.78 77.0214 120.443M77.9615 118.382C77.9488 117.565 77.9252 116.785 77.8946 116.038M78.7445 96.4453C84.0857 92.8401 87.1519 92.3131 92.7719 94.5253M78.7445 96.4453C78.4115 97.6922 78.1548 98.8501 77.9598 99.9446M78.7445 96.4453C78.6797 95.8792 78.62 95.3358 78.5666 94.8112M80.1799 80.6771C84.8296 78.8107 87.3816 78.7399 91.8585 79.9418M80.1799 80.6771C80.0398 81.05 79.9089 81.4132 79.7866 81.768M80.1799 80.6771C80.1248 79.6475 80.1037 78.7107 80.1177 77.8301M82.0067 67.7276C80.7615 67.1036 80.4684 66.67 80.1799 65.8485C83.9571 64.9195 86.0697 64.9874 89.8359 65.3174C89.4404 66.2222 89.1533 66.6954 87.7481 67.074M82.0067 67.7276C84.2378 67.7049 85.4924 67.617 87.7481 67.074M82.0067 67.7276C81.8123 68.3616 81.6334 68.9606 81.4699 69.5338M87.7481 67.074C88.3509 67.9767 88.8555 68.8115 89.2805 69.6063M91.8585 79.9418C91.8367 79.7049 91.815 79.4728 91.7931 79.2452M91.8585 79.9418C92.2255 80.6947 92.543 81.4025 92.8141 82.0754M92.7719 94.5253C93.3751 92.697 93.8016 91.1284 93.9892 89.6212M92.7719 94.5253C92.9522 94.9199 93.1258 95.3071 93.2928 95.6877M96.4908 118.055C96.5557 117.443 96.6139 116.848 96.6646 116.269M96.4908 118.055C96.9055 118.619 97.2685 119.151 97.5847 119.665M99.4267 128.39C96.2958 134.12 97.3179 136.915 101.254 141.585M99.4267 128.39C99.5539 126.102 99.4726 124.383 99.0031 122.764M99.4267 128.39C100.671 128.209 101.61 127.858 102.341 127.284M105.038 120.629C112.174 118.949 115.799 118.947 121.218 121.568M105.038 120.629C104.928 121.265 104.818 121.855 104.7 122.402M105.038 120.629C105.043 119.511 105.055 118.453 105.077 117.453M111.432 102.001C109.589 101.167 109.051 100.65 108.626 99.6724C113.359 98.7973 115.881 98.761 119.978 100.081C119.51 100.759 119.142 101.104 118.217 101.633M111.432 102.001C114.097 102.307 115.58 102.14 118.217 101.633M111.432 102.001C109.988 102.396 108.865 103.042 107.992 104.002M118.217 101.633C119.142 101.842 119.912 102.168 120.539 102.634M121.218 121.568C121.35 120.854 121.475 120.163 121.592 119.494M121.218 121.568C121.147 121.927 121.076 122.279 121.003 122.625M101.254 141.585C104.595 140.8 105.529 141.459 106.277 143.709C106.361 143.66 106.444 143.611 106.527 143.561M101.254 141.585C101.429 142.583 101.561 143.449 101.641 144.262M54.8679 84.9056L57.6981 87.7596M57.6981 87.7596C56.1682 88.5913 55.156 89.7091 54.4572 91.2741M52.0377 90.5659L54.4572 91.2741M54.4572 91.2741C53.965 92.3767 53.6282 93.7012 53.3756 95.304M52.0377 94.8112L53.3756 95.304M53.3756 95.304C53.189 96.4881 53.0482 97.8241 52.9246 99.3347M50.6226 99.0565L52.9246 99.3347M52.9246 99.3347C52.8489 100.26 52.7797 101.25 52.7102 102.311M50.6226 101.887L52.7102 102.311M52.7102 102.311C52.6601 103.075 52.6099 103.877 52.5572 104.717M50.6226 104.717H52.5572M50.6226 110.377H52.0377M49.2075 113.207H52.0822M52.0822 113.207C52.0331 114.767 52.0202 116.313 52.0661 117.832M49.2075 117.453L52.0661 117.832M52.0661 117.832C52.093 118.721 52.1401 119.601 52.2119 120.47M49.2075 121.698L52.2119 120.47M52.2119 120.47C52.3266 121.856 52.5043 123.212 52.7637 124.528M50.6226 124.528H52.7637M52.7637 124.528C52.8577 125.005 52.9625 125.477 53.079 125.943M52.0377 127.358L53.079 125.943M53.079 125.943C53.4484 127.422 53.9349 128.843 54.5667 130.189M52.3861 130.189H54.5667M54.5667 130.189C54.8581 130.809 55.1805 131.415 55.5366 132.002M54.8679 133.019L55.5366 132.002M55.5366 132.002C56.0506 132.851 56.6349 133.663 57.2977 134.434M56.283 135.849L57.2977 134.434M57.2977 134.434C58.3489 135.657 59.5977 136.777 61.0776 137.775M59.1132 138.679L61.0776 137.775M61.0776 137.775C61.3578 137.965 61.6463 138.149 61.9434 138.33M61.9434 140.094V138.33M61.9434 138.33C62.7213 138.802 63.5576 139.243 64.4563 139.651M64.7736 141.509L64.4563 139.651M69.0188 141.509H70.1221M70.1221 141.509C69.9019 142.5 69.7216 143.417 69.5675 144.34M67.6037 144.34H69.5675M69.5675 144.34C69.4894 144.806 69.4181 145.275 69.3516 145.755M67.6037 147.17L69.3516 145.755M69.3516 145.755C69.2088 146.786 69.0885 147.871 68.9728 149.111M67.6037 148.585L68.9728 149.111M68.9728 149.111C68.9459 149.398 68.9193 149.694 68.8927 150H101.254C101.273 149.907 101.292 149.816 101.31 149.725M69.278 89.5776L71.849 89.1508M69.278 89.5776C69.5639 90.2596 69.7386 91.1256 69.8167 92.2628M71.849 91.981L69.8167 92.2628M69.8167 92.2628C69.8734 93.0895 69.879 94.0596 69.839 95.2065M71.849 96.2263L69.839 95.2065M69.839 95.2065C69.8003 96.3147 69.7189 97.588 69.6 99.0565M71.849 99.0565H69.6M69.6 99.0565C69.5293 99.9289 69.4453 100.87 69.3491 101.887M71.849 100.472L69.3491 101.887M69.3491 101.887C69.2957 102.451 69.2386 103.038 69.1778 103.65M71.849 104.717L69.1778 103.65M69.1778 103.65C69.1191 104.241 69.0569 104.856 68.9916 105.493M70.4339 107.547L68.9916 105.493M71.849 110.377H70.0695M70.0695 110.377C70.2374 111.342 70.3188 112.286 70.3394 113.207M71.849 113.207H70.3394M70.3394 113.207C70.3528 113.812 70.3401 114.406 70.3085 114.991M71.849 116.038L70.3085 114.991M70.3085 114.991C70.2354 116.34 70.0612 117.635 69.8749 118.868M71.849 118.868H69.8749M69.8749 118.868C69.7712 119.554 69.6638 120.22 69.5679 120.867M71.849 121.698L69.5679 120.867M69.5679 120.867C69.374 122.174 69.2272 123.398 69.2541 124.528M71.849 124.528H69.2541M69.2541 124.528C69.3035 126.611 69.9425 128.378 71.9622 129.763M71.849 127.358L71.9622 129.763M73.2641 125.943L74.4044 126.563M74.4044 126.563C74.6253 125.824 74.8893 125.111 75.1821 124.406M74.6792 121.698L75.1821 124.406M75.1821 124.406C75.7268 123.094 76.3709 121.811 77.0214 120.443M74.6792 120.283L77.0214 120.443M74.6792 117.453L77.8946 116.038M77.8946 116.038C77.8748 115.553 77.852 115.082 77.8275 114.623M74.6792 114.623H77.8275M77.8275 114.623C77.7689 113.526 77.6999 112.493 77.6352 111.498M74.6792 110.377L77.6352 111.498M77.6352 111.498C77.5463 110.132 77.4655 108.837 77.4305 107.547M74.6792 107.547H77.4305M77.4305 107.547C77.4051 106.61 77.404 105.675 77.4416 104.717M76.0943 104.717H77.4416M77.4416 104.717C77.4828 103.667 77.5706 102.589 77.7241 101.45M76.0943 101.887L77.7241 101.45M77.7241 101.45C77.79 100.96 77.8681 100.46 77.9598 99.9446M76.0943 99.0565L77.9598 99.9446M76.0943 96.2263L78.5666 94.8112M78.5666 94.8112C78.4752 93.9131 78.4024 93.07 78.3545 92.2628M76.0943 91.981L78.3545 92.2628M78.3545 92.2628C78.2764 90.948 78.2641 89.7281 78.3446 88.5199M76.0943 89.1508L78.3446 88.5199M78.3446 88.5199C78.3863 87.8928 78.4531 87.2688 78.5486 86.6364M76.0943 86.3207L78.5486 86.6364M78.5486 86.6364C78.6342 86.0691 78.7429 85.495 78.8775 84.9056M77.5094 83.4905L78.8775 84.9056M78.8775 84.9056C79.1035 83.916 79.4022 82.8834 79.7866 81.768M77.5094 80.6603L79.7866 81.768M77.5094 77.8301H80.1177M80.1177 77.8301C80.1312 76.9786 80.1774 76.1798 80.2575 75.4004M78.5486 75.7164L80.2575 75.4004M80.2575 75.4004C80.3481 74.518 80.482 73.6607 80.6606 72.7805M78.9245 72.1697L80.6606 72.7805M80.6606 72.7805C80.8688 71.7546 81.1378 70.6976 81.4699 69.5338M79.7866 69.5338H81.4699M91.6604 69.3395L89.2805 69.6063M89.2805 69.6063C89.9932 70.9388 90.4825 72.1588 90.837 73.3977M93.0754 72.1697L90.837 73.3977M90.837 73.3977C91.0116 74.0081 91.1536 74.6231 91.2734 75.2585M94.4905 73.5848L91.2734 75.2585M91.2734 75.2585C91.3445 75.6357 91.4079 76.0201 91.4656 76.415M93.0754 76.415H91.4656M91.4656 76.415C91.5943 77.2944 91.6953 78.2257 91.7931 79.2452M94.4905 79.2452H91.7931M95.9056 82.0754H92.8141M92.8141 82.0754C93.2215 83.0864 93.5241 84.0184 93.7328 84.9056M97.3207 83.4905L93.7328 84.9056M93.7328 84.9056C93.9639 85.8884 94.0797 86.8163 94.0947 87.7357M95.9056 87.7357H94.0947M94.0947 87.7357C94.105 88.3632 94.0683 88.9868 93.9892 89.6212M97.3207 90.5659L93.9892 89.6212M95.9056 93.3961L93.2928 95.6877M93.2928 95.6877C93.8108 96.8681 94.2655 97.9842 94.6616 99.0565M97.3207 97.6414L94.6616 99.0565M94.6616 99.0565C95.0216 100.031 95.3332 100.969 95.6 101.887M98.7358 101.887H95.6M95.6 101.887C96.0098 103.296 96.3139 104.656 96.5253 106.021M98.7358 104.717L96.5253 106.021M96.5253 106.021C96.6907 107.09 96.7993 108.163 96.8573 109.266M100.151 108.962L96.8573 109.266M96.8573 109.266C96.9025 110.123 96.917 111 96.9038 111.907M98.7358 113.207L96.9038 111.907M96.9038 111.907C96.8839 113.276 96.8008 114.716 96.6646 116.269M100.151 116.038L96.6646 116.269M98.7358 118.868L97.5847 119.665M97.5847 119.665C98.2465 120.739 98.7037 121.732 99.0031 122.764M101.566 121.698L99.0031 122.764M101.566 124.528L102.341 127.284M102.341 127.284C103.547 126.338 104.187 124.788 104.7 122.402M102.981 120.283L104.7 122.402M102.981 117.453H105.077M105.077 117.453C105.1 116.453 105.132 115.511 105.177 114.623M101.566 114.623H105.177M105.177 114.623C105.206 114.059 105.24 113.518 105.281 112.997M102.981 111.792L105.281 112.997M105.281 112.997C105.426 111.11 105.651 109.501 105.992 108.139M102.981 108.962L105.992 108.139M105.992 108.139C106.079 107.79 106.174 107.458 106.277 107.141M102.981 104.717L106.277 107.141M106.277 107.141C106.698 105.846 107.256 104.813 107.992 104.002M106.277 102.943L107.992 104.002M122.245 101.633L120.539 102.634M120.539 102.634C121.232 103.149 121.751 103.833 122.116 104.717M124.208 103.302L122.116 104.717M122.116 104.717C122.36 105.308 122.534 105.989 122.645 106.768M125.623 106.132L122.645 106.768M122.645 106.768C122.739 107.427 122.787 108.157 122.792 108.962M124.208 110.377L122.792 108.962M122.792 108.962C122.798 109.818 122.756 110.759 122.669 111.792M124.208 111.792H122.669M122.669 111.792C122.6 112.618 122.503 113.502 122.38 114.447M125.623 114.623L122.38 114.447M122.38 114.447C122.288 115.147 122.183 115.88 122.064 116.647M124.208 117.453L122.064 116.647M122.064 116.647C121.925 117.547 121.767 118.495 121.592 119.494M122.792 120.283L121.592 119.494M122.792 123.113L121.003 122.625M121.003 122.625C120.829 123.455 120.648 124.247 120.46 125.005M122.792 125.943L120.46 125.005M120.46 125.005C120.361 125.404 120.26 125.793 120.157 126.173M121.592 128.629L120.157 126.173M120.157 126.173C119.884 127.181 119.595 128.126 119.286 129.014M121.377 130.189L119.286 129.014M119.286 129.014C119.002 129.832 118.702 130.603 118.383 131.333M119.962 131.604L118.383 131.333M118.383 131.333C118.154 131.857 117.914 132.361 117.664 132.845M118.383 134.698L117.664 132.845M117.664 132.845C117.004 134.125 116.268 135.271 115.438 136.325M117.132 137.264L115.438 136.325M115.438 136.325C115.024 136.851 114.587 137.354 114.124 137.839M114.302 140.094L114.124 137.839M114.124 137.839C113.528 138.466 112.888 139.062 112.202 139.641M112.887 141.509L112.202 139.641M112.202 139.641C111.32 140.385 110.36 141.098 109.312 141.806M111.472 142.924L109.312 141.806M109.312 141.806C108.787 142.161 108.24 142.513 107.669 142.868M108.641 144.34L107.669 142.868M107.669 142.868C107.298 143.098 106.917 143.329 106.527 143.561M107.226 145.755L106.527 143.561M103.398 143.709L101.641 144.262M101.641 144.262C101.691 144.773 101.721 145.264 101.727 145.755M102.981 145.755H101.727M101.727 145.755C101.744 146.977 101.617 148.196 101.31 149.725M103.398 148.674L101.727 147.224L102.981 150L101.31 149.725" stroke="#A8A293" stroke-width="0.5" stroke-linecap="round"/>
<mask id="path-13-outside-1_568_924" maskUnits="userSpaceOnUse" x="10" y="130" width="149" height="39" fill="black">
<rect fill="white" x="10" y="130" width="149" height="39"/>
<path d="M13.7031 166L27.9531 134.125H32.3594L46.6094 166H36.3906L30.1562 148.281L23.9219 166H13.7031ZM20.7812 161.312V154.75H38.6406V161.312H20.7812ZM65.7812 166.703C64.0625 166.703 62.5938 166.25 61.375 165.344C60.1562 164.438 59.25 163.328 58.6562 162.016V166H50.5938V132.25H58.6562V144.297C59.4375 143.453 60.4219 142.766 61.6094 142.234C62.8281 141.672 64.0625 141.391 65.3125 141.391C67.25 141.391 69.0312 141.891 70.6562 142.891C72.3125 143.859 73.625 145.281 74.5938 147.156C75.5938 149.031 76.0938 151.312 76.0938 154C76.0938 156.875 75.6094 159.266 74.6406 161.172C73.6719 163.047 72.3906 164.438 70.7969 165.344C69.2344 166.25 67.5625 166.703 65.7812 166.703ZM63.3906 158.547C64.2656 158.547 65.0156 158.344 65.6406 157.938C66.2656 157.531 66.75 156.984 67.0938 156.297C67.4688 155.609 67.6562 154.844 67.6562 154C67.6562 153.156 67.4844 152.375 67.1406 151.656C66.7969 150.938 66.3125 150.359 65.6875 149.922C65.0938 149.484 64.4062 149.266 63.625 149.266C62.75 149.266 61.875 149.453 61 149.828C60.1562 150.203 59.375 150.672 58.6562 151.234V153.531C58.6562 154.688 58.9062 155.641 59.4062 156.391C59.9375 157.109 60.5625 157.656 61.2812 158.031C62.0312 158.375 62.7344 158.547 63.3906 158.547ZM92.5 166.703C90.8438 166.703 89.2344 166.391 87.6719 165.766C86.1094 165.141 84.7031 164.266 83.4531 163.141C82.2031 162.016 81.2031 160.688 80.4531 159.156C79.7344 157.594 79.375 155.891 79.375 154.047C79.375 152.203 79.7344 150.516 80.4531 148.984C81.2031 147.422 82.2031 146.078 83.4531 144.953C84.7031 143.828 86.1094 142.953 87.6719 142.328C89.2344 141.703 90.8438 141.391 92.5 141.391C94.1562 141.391 95.7656 141.703 97.3281 142.328C98.8906 142.953 100.297 143.828 101.547 144.953C102.797 146.078 103.781 147.422 104.5 148.984C105.25 150.516 105.625 152.203 105.625 154.047C105.625 155.891 105.25 157.594 104.5 159.156C103.781 160.688 102.797 162.016 101.547 163.141C100.297 164.266 98.8906 165.141 97.3281 165.766C95.7656 166.391 94.1562 166.703 92.5 166.703ZM92.5 158.969C93.0938 158.969 93.7344 158.844 94.4219 158.594C95.1094 158.344 95.7031 157.859 96.2031 157.141C96.7031 156.422 96.9531 155.391 96.9531 154.047C96.9531 152.672 96.7031 151.641 96.2031 150.953C95.7031 150.234 95.1094 149.75 94.4219 149.5C93.7344 149.25 93.0938 149.125 92.5 149.125C91.9375 149.125 91.2969 149.25 90.5781 149.5C89.8906 149.75 89.2969 150.234 88.7969 150.953C88.2969 151.641 88.0469 152.672 88.0469 154.047C88.0469 155.391 88.2969 156.422 88.7969 157.141C89.2969 157.859 89.8906 158.344 90.5781 158.594C91.2969 158.844 91.9375 158.969 92.5 158.969ZM121.75 166.703C119.531 166.703 117.562 166.297 115.844 165.484C114.125 164.672 112.766 163.5 111.766 161.969C110.797 160.438 110.312 158.594 110.312 156.438V142.094H118.422V154.281C118.422 155.906 118.672 157.094 119.172 157.844C119.703 158.594 120.562 158.969 121.75 158.969C122.938 158.969 123.781 158.594 124.281 157.844C124.812 157.094 125.078 155.906 125.078 154.281V142.094H133.188V156.438C133.188 158.594 132.688 160.438 131.688 161.969C130.719 163.5 129.375 164.672 127.656 165.484C125.938 166.297 123.969 166.703 121.75 166.703ZM150.016 166.703C148.516 166.703 147.109 166.359 145.797 165.672C144.516 164.984 143.469 164 142.656 162.719C141.875 161.438 141.484 159.891 141.484 158.078V148.422H138.109V143.5C139.641 143.094 140.875 142.25 141.812 140.969C142.781 139.688 143.609 138.031 144.297 136H149.547V142.094H156.297V148.422H149.547V155.125C149.547 156.281 149.766 157.203 150.203 157.891C150.672 158.547 151.453 158.875 152.547 158.875C153.484 158.875 154.25 158.719 154.844 158.406C155.469 158.062 156.078 157.719 156.672 157.375V164.125C156.172 164.812 155.328 165.422 154.141 165.953C152.953 166.453 151.578 166.703 150.016 166.703Z"/>
</mask>
<path d="M13.7031 166L27.9531 134.125H32.3594L46.6094 166H36.3906L30.1562 148.281L23.9219 166H13.7031ZM20.7812 161.312V154.75H38.6406V161.312H20.7812ZM65.7812 166.703C64.0625 166.703 62.5938 166.25 61.375 165.344C60.1562 164.438 59.25 163.328 58.6562 162.016V166H50.5938V132.25H58.6562V144.297C59.4375 143.453 60.4219 142.766 61.6094 142.234C62.8281 141.672 64.0625 141.391 65.3125 141.391C67.25 141.391 69.0312 141.891 70.6562 142.891C72.3125 143.859 73.625 145.281 74.5938 147.156C75.5938 149.031 76.0938 151.312 76.0938 154C76.0938 156.875 75.6094 159.266 74.6406 161.172C73.6719 163.047 72.3906 164.438 70.7969 165.344C69.2344 166.25 67.5625 166.703 65.7812 166.703ZM63.3906 158.547C64.2656 158.547 65.0156 158.344 65.6406 157.938C66.2656 157.531 66.75 156.984 67.0938 156.297C67.4688 155.609 67.6562 154.844 67.6562 154C67.6562 153.156 67.4844 152.375 67.1406 151.656C66.7969 150.938 66.3125 150.359 65.6875 149.922C65.0938 149.484 64.4062 149.266 63.625 149.266C62.75 149.266 61.875 149.453 61 149.828C60.1562 150.203 59.375 150.672 58.6562 151.234V153.531C58.6562 154.688 58.9062 155.641 59.4062 156.391C59.9375 157.109 60.5625 157.656 61.2812 158.031C62.0312 158.375 62.7344 158.547 63.3906 158.547ZM92.5 166.703C90.8438 166.703 89.2344 166.391 87.6719 165.766C86.1094 165.141 84.7031 164.266 83.4531 163.141C82.2031 162.016 81.2031 160.688 80.4531 159.156C79.7344 157.594 79.375 155.891 79.375 154.047C79.375 152.203 79.7344 150.516 80.4531 148.984C81.2031 147.422 82.2031 146.078 83.4531 144.953C84.7031 143.828 86.1094 142.953 87.6719 142.328C89.2344 141.703 90.8438 141.391 92.5 141.391C94.1562 141.391 95.7656 141.703 97.3281 142.328C98.8906 142.953 100.297 143.828 101.547 144.953C102.797 146.078 103.781 147.422 104.5 148.984C105.25 150.516 105.625 152.203 105.625 154.047C105.625 155.891 105.25 157.594 104.5 159.156C103.781 160.688 102.797 162.016 101.547 163.141C100.297 164.266 98.8906 165.141 97.3281 165.766C95.7656 166.391 94.1562 166.703 92.5 166.703ZM92.5 158.969C93.0938 158.969 93.7344 158.844 94.4219 158.594C95.1094 158.344 95.7031 157.859 96.2031 157.141C96.7031 156.422 96.9531 155.391 96.9531 154.047C96.9531 152.672 96.7031 151.641 96.2031 150.953C95.7031 150.234 95.1094 149.75 94.4219 149.5C93.7344 149.25 93.0938 149.125 92.5 149.125C91.9375 149.125 91.2969 149.25 90.5781 149.5C89.8906 149.75 89.2969 150.234 88.7969 150.953C88.2969 151.641 88.0469 152.672 88.0469 154.047C88.0469 155.391 88.2969 156.422 88.7969 157.141C89.2969 157.859 89.8906 158.344 90.5781 158.594C91.2969 158.844 91.9375 158.969 92.5 158.969ZM121.75 166.703C119.531 166.703 117.562 166.297 115.844 165.484C114.125 164.672 112.766 163.5 111.766 161.969C110.797 160.438 110.312 158.594 110.312 156.438V142.094H118.422V154.281C118.422 155.906 118.672 157.094 119.172 157.844C119.703 158.594 120.562 158.969 121.75 158.969C122.938 158.969 123.781 158.594 124.281 157.844C124.812 157.094 125.078 155.906 125.078 154.281V142.094H133.188V156.438C133.188 158.594 132.688 160.438 131.688 161.969C130.719 163.5 129.375 164.672 127.656 165.484C125.938 166.297 123.969 166.703 121.75 166.703ZM150.016 166.703C148.516 166.703 147.109 166.359 145.797 165.672C144.516 164.984 143.469 164 142.656 162.719C141.875 161.438 141.484 159.891 141.484 158.078V148.422H138.109V143.5C139.641 143.094 140.875 142.25 141.812 140.969C142.781 139.688 143.609 138.031 144.297 136H149.547V142.094H156.297V148.422H149.547V155.125C149.547 156.281 149.766 157.203 150.203 157.891C150.672 158.547 151.453 158.875 152.547 158.875C153.484 158.875 154.25 158.719 154.844 158.406C155.469 158.062 156.078 157.719 156.672 157.375V164.125C156.172 164.812 155.328 165.422 154.141 165.953C152.953 166.453 151.578 166.703 150.016 166.703Z" fill="#E6AB07"/>
<path d="M13.7031 166L11.8773 165.184L10.6182 168H13.7031V166ZM27.9531 134.125V132.125H26.6565L26.1273 133.309L27.9531 134.125ZM32.3594 134.125L34.1852 133.309L33.656 132.125H32.3594V134.125ZM46.6094 166V168H49.6943L48.4352 165.184L46.6094 166ZM36.3906 166L34.504 166.664L34.9741 168H36.3906V166ZM30.1562 148.281L32.0429 147.617L30.1562 142.255L28.2696 147.617L30.1562 148.281ZM23.9219 166V168H25.3384L25.8085 166.664L23.9219 166ZM20.7812 161.312H18.7812V163.312H20.7812V161.312ZM20.7812 154.75V152.75H18.7812V154.75H20.7812ZM38.6406 154.75H40.6406V152.75H38.6406V154.75ZM38.6406 161.312V163.312H40.6406V161.312H38.6406ZM13.7031 166L15.529 166.816L29.779 134.941L27.9531 134.125L26.1273 133.309L11.8773 165.184L13.7031 166ZM27.9531 134.125V136.125H32.3594V134.125V132.125H27.9531V134.125ZM32.3594 134.125L30.5335 134.941L44.7835 166.816L46.6094 166L48.4352 165.184L34.1852 133.309L32.3594 134.125ZM46.6094 166V164H36.3906V166V168H46.6094V166ZM36.3906 166L38.2772 165.336L32.0429 147.617L30.1562 148.281L28.2696 148.945L34.504 166.664L36.3906 166ZM30.1562 148.281L28.2696 147.617L22.0353 165.336L23.9219 166L25.8085 166.664L32.0429 148.945L30.1562 148.281ZM23.9219 166V164H13.7031V166V168H23.9219V166ZM20.7812 161.312H22.7812V154.75H20.7812H18.7812V161.312H20.7812ZM20.7812 154.75V156.75H38.6406V154.75V152.75H20.7812V154.75ZM38.6406 154.75H36.6406V161.312H38.6406H40.6406V154.75H38.6406ZM38.6406 161.312V159.312H20.7812V161.312V163.312H38.6406V161.312ZM58.6562 162.016L60.4785 161.191L56.6562 162.016H58.6562ZM58.6562 166V168H60.6562V166H58.6562ZM50.5938 166H48.5938V168H50.5938V166ZM50.5938 132.25V130.25H48.5938V132.25H50.5938ZM58.6562 132.25H60.6562V130.25H58.6562V132.25ZM58.6562 144.297H56.6562V149.401L60.1238 145.656L58.6562 144.297ZM61.6094 142.234L62.4261 144.06L62.4368 144.055L62.4475 144.05L61.6094 142.234ZM70.6562 142.891L69.6081 144.594L69.6271 144.606L69.6465 144.617L70.6562 142.891ZM74.5938 147.156L72.8169 148.074L72.8229 148.086L72.829 148.097L74.5938 147.156ZM74.6406 161.172L76.4175 162.09L76.4236 162.078L74.6406 161.172ZM70.7969 165.344L69.8083 163.605L69.8008 163.609L69.7934 163.614L70.7969 165.344ZM67.0938 156.297L65.338 155.339L65.3209 155.371L65.3049 155.402L67.0938 156.297ZM65.6875 149.922L64.5011 151.532L64.5207 151.546L64.5406 151.56L65.6875 149.922ZM61 149.828L60.2122 147.99L60.1999 147.995L60.1877 148.001L61 149.828ZM58.6562 151.234L57.4236 149.659L56.6562 150.26V151.234H58.6562ZM59.4062 156.391L57.7421 157.5L57.7691 157.54L57.7979 157.579L59.4062 156.391ZM61.2812 158.031L60.3561 159.804L60.4015 159.828L60.4479 159.849L61.2812 158.031ZM65.7812 166.703V164.703C64.4332 164.703 63.3975 164.355 62.5684 163.739L61.375 165.344L60.1816 166.949C61.79 168.145 63.6918 168.703 65.7812 168.703V166.703ZM61.375 165.344L62.5684 163.739C61.6068 163.024 60.9246 162.177 60.4785 161.191L58.6562 162.016L56.834 162.84C57.5754 164.479 58.7057 165.851 60.1816 166.949L61.375 165.344ZM58.6562 162.016H56.6562V166H58.6562H60.6562V162.016H58.6562ZM58.6562 166V164H50.5938V166V168H58.6562V166ZM50.5938 166H52.5938V132.25H50.5938H48.5938V166H50.5938ZM50.5938 132.25V134.25H58.6562V132.25V130.25H50.5938V132.25ZM58.6562 132.25H56.6562V144.297H58.6562H60.6562V132.25H58.6562ZM58.6562 144.297L60.1238 145.656C60.6992 145.034 61.4525 144.496 62.4261 144.06L61.6094 142.234L60.7926 140.409C59.3912 141.036 58.1758 141.872 57.1887 142.938L58.6562 144.297ZM61.6094 142.234L62.4475 144.05C63.4232 143.6 64.3729 143.391 65.3125 143.391V141.391V139.391C63.7521 139.391 62.233 139.744 60.7713 140.418L61.6094 142.234ZM65.3125 141.391V143.391C66.8859 143.391 68.3034 143.791 69.6081 144.594L70.6562 142.891L71.7044 141.187C69.7591 139.99 67.6141 139.391 65.3125 139.391V141.391ZM70.6562 142.891L69.6465 144.617C70.9433 145.376 72.0041 146.501 72.8169 148.074L74.5938 147.156L76.3706 146.238C75.2459 144.061 73.6817 142.343 71.666 141.164L70.6562 142.891ZM74.5938 147.156L72.829 148.097C73.639 149.616 74.0938 151.556 74.0938 154H76.0938H78.0938C78.0938 151.069 77.5485 148.446 76.3585 146.215L74.5938 147.156ZM76.0938 154H74.0938C74.0938 156.664 73.6432 158.72 72.8577 160.266L74.6406 161.172L76.4236 162.078C77.5755 159.811 78.0938 157.086 78.0938 154H76.0938ZM74.6406 161.172L72.8638 160.254C72.0452 161.838 71.0167 162.918 69.8083 163.605L70.7969 165.344L71.7855 167.082C73.7645 165.957 75.2985 164.256 76.4175 162.09L74.6406 161.172ZM70.7969 165.344L69.7934 163.614C68.5313 164.346 67.2049 164.703 65.7812 164.703V166.703V168.703C67.9201 168.703 69.9375 168.154 71.8003 167.074L70.7969 165.344ZM63.3906 158.547V160.547C64.584 160.547 65.7281 160.266 66.7306 159.614L65.6406 157.938L64.5506 156.261C64.3031 156.422 63.9472 156.547 63.3906 156.547V158.547ZM65.6406 157.938L66.7306 159.614C67.6636 159.008 68.3849 158.187 68.8826 157.191L67.0938 156.297L65.3049 155.402C65.1151 155.782 64.8676 156.055 64.5506 156.261L65.6406 157.938ZM67.0938 156.297L68.8495 157.255C69.3971 156.251 69.6562 155.152 69.6562 154H67.6562H65.6562C65.6562 154.536 65.5404 154.968 65.338 155.339L67.0938 156.297ZM67.6562 154H69.6562C69.6562 152.876 69.4251 151.797 68.9449 150.793L67.1406 151.656L65.3364 152.519C65.5437 152.953 65.6562 153.437 65.6562 154H67.6562ZM67.1406 151.656L68.9449 150.793C68.4593 149.778 67.7544 148.927 66.8344 148.283L65.6875 149.922L64.5406 151.56C64.8706 151.791 65.1344 152.097 65.3364 152.519L67.1406 151.656ZM65.6875 149.922L66.8739 148.312C65.9154 147.605 64.8063 147.266 63.625 147.266V149.266V151.266C64.0062 151.266 64.2721 151.363 64.5011 151.532L65.6875 149.922ZM63.625 149.266V147.266C62.4561 147.266 61.314 147.518 60.2122 147.99L61 149.828L61.7878 151.666C62.436 151.389 63.0439 151.266 63.625 151.266V149.266ZM61 149.828L60.1877 148.001C59.1958 148.441 58.2731 148.995 57.4236 149.659L58.6562 151.234L59.8889 152.809C60.4769 152.349 61.1167 151.965 61.8123 151.656L61 149.828ZM58.6562 151.234H56.6562V153.531H58.6562H60.6562V151.234H58.6562ZM58.6562 153.531H56.6562C56.6562 154.971 56.9688 156.34 57.7421 157.5L59.4062 156.391L61.0704 155.281C60.8437 154.941 60.6562 154.404 60.6562 153.531H58.6562ZM59.4062 156.391L57.7979 157.579C58.4909 158.517 59.3416 159.275 60.3561 159.804L61.2812 158.031L62.2064 156.258C61.7834 156.037 61.3841 155.702 61.0146 155.202L59.4062 156.391ZM61.2812 158.031L60.4479 159.849C61.3942 160.283 62.3828 160.547 63.3906 160.547V158.547V156.547C63.086 156.547 62.6683 156.467 62.1146 156.213L61.2812 158.031ZM80.4531 159.156L78.6361 159.992L78.6463 160.014L78.657 160.036L80.4531 159.156ZM80.4531 148.984L78.6501 148.119L78.6463 148.127L78.6427 148.135L80.4531 148.984ZM104.5 148.984L102.683 149.82L102.693 149.842L102.704 149.864L104.5 148.984ZM104.5 159.156L102.697 158.291L102.693 158.299L102.69 158.306L104.5 159.156ZM96.2031 150.953L94.5613 152.095L94.5733 152.112L94.5857 152.129L96.2031 150.953ZM90.5781 149.5L89.9211 147.611L89.9078 147.616L89.8946 147.62L90.5781 149.5ZM88.7969 150.953L90.4143 152.129L90.4267 152.112L90.4387 152.095L88.7969 150.953ZM90.5781 158.594L89.8946 160.473L89.9078 160.478L89.9211 160.483L90.5781 158.594ZM92.5 166.703V164.703C91.1023 164.703 89.7448 164.441 88.4147 163.909L87.6719 165.766L86.9291 167.623C88.7239 168.341 90.5852 168.703 92.5 168.703V166.703ZM87.6719 165.766L88.4147 163.909C87.0706 163.371 85.8659 162.621 84.7911 161.654L83.4531 163.141L82.1152 164.627C83.5404 165.91 85.1481 166.91 86.9291 167.623L87.6719 165.766ZM83.4531 163.141L84.7911 161.654C83.7339 160.703 82.8883 159.581 82.2493 158.277L80.4531 159.156L78.657 160.036C79.5179 161.794 80.6724 163.329 82.1152 164.627L83.4531 163.141ZM80.4531 159.156L82.2701 158.32C81.6805 157.039 81.375 155.623 81.375 154.047H79.375H77.375C77.375 156.158 77.7883 158.149 78.6361 159.992L80.4531 159.156ZM79.375 154.047H81.375C81.375 152.47 81.6806 151.076 82.2636 149.834L80.4531 148.984L78.6427 148.135C77.7882 149.955 77.375 151.936 77.375 154.047H79.375ZM80.4531 148.984L82.2562 149.85C82.8967 148.515 83.7411 147.385 84.7911 146.44L83.4531 144.953L82.1152 143.467C80.6651 144.772 79.5095 146.328 78.6501 148.119L80.4531 148.984ZM83.4531 144.953L84.7911 146.44C85.8659 145.472 87.0706 144.723 88.4147 144.185L87.6719 142.328L86.9291 140.471C85.1481 141.184 83.5404 142.184 82.1152 143.467L83.4531 144.953ZM87.6719 142.328L88.4147 144.185C89.7448 143.653 91.1023 143.391 92.5 143.391V141.391V139.391C90.5852 139.391 88.7239 139.753 86.9291 140.471L87.6719 142.328ZM92.5 141.391V143.391C93.8977 143.391 95.2552 143.653 96.5853 144.185L97.3281 142.328L98.0709 140.471C96.2761 139.753 94.4148 139.391 92.5 139.391V141.391ZM97.3281 142.328L96.5853 144.185C97.9294 144.723 99.1341 145.472 100.209 146.44L101.547 144.953L102.885 143.467C101.46 142.184 99.8519 141.184 98.0709 140.471L97.3281 142.328ZM101.547 144.953L100.209 146.44C101.252 147.378 102.075 148.499 102.683 149.82L104.5 148.984L106.317 148.149C105.487 146.345 104.342 144.778 102.885 143.467L101.547 144.953ZM104.5 148.984L102.704 149.864C103.309 151.1 103.625 152.483 103.625 154.047H105.625H107.625C107.625 151.923 107.191 149.932 106.296 148.105L104.5 148.984ZM105.625 154.047H103.625C103.625 155.611 103.309 157.015 102.697 158.291L104.5 159.156L106.303 160.022C107.191 158.172 107.625 156.171 107.625 154.047H105.625ZM104.5 159.156L102.69 158.306C102.084 159.597 101.259 160.709 100.209 161.654L101.547 163.141L102.885 164.627C104.334 163.323 105.479 161.778 106.31 160.006L104.5 159.156ZM101.547 163.141L100.209 161.654C99.1341 162.621 97.9294 163.371 96.5853 163.909L97.3281 165.766L98.0709 167.623C99.8519 166.91 101.46 165.91 102.885 164.627L101.547 163.141ZM97.3281 165.766L96.5853 163.909C95.2552 164.441 93.8977 164.703 92.5 164.703V166.703V168.703C94.4148 168.703 96.2761 168.341 98.0709 167.623L97.3281 165.766ZM92.5 158.969V160.969C93.3739 160.969 94.2478 160.785 95.1054 160.473L94.4219 158.594L93.7384 156.714C93.2209 156.902 92.8136 156.969 92.5 156.969V158.969ZM94.4219 158.594L95.1054 160.473C96.2521 160.056 97.1567 159.272 97.8449 158.283L96.2031 157.141L94.5613 155.998C94.2496 156.447 93.9667 156.631 93.7384 156.714L94.4219 158.594ZM96.2031 157.141L97.8449 158.283C98.6724 157.093 98.9531 155.595 98.9531 154.047H96.9531H94.9531C94.9531 155.186 94.7339 155.75 94.5613 155.998L96.2031 157.141ZM96.9531 154.047H98.9531C98.9531 152.489 98.6805 150.959 97.8206 149.777L96.2031 150.953L94.5857 152.129C94.7257 152.322 94.9531 152.855 94.9531 154.047H96.9531ZM96.2031 150.953L97.8449 149.811C97.1567 148.822 96.2521 148.037 95.1054 147.62L94.4219 149.5L93.7384 151.38C93.9667 151.463 94.2496 151.647 94.5613 152.095L96.2031 150.953ZM94.4219 149.5L95.1054 147.62C94.2478 147.309 93.3739 147.125 92.5 147.125V149.125V151.125C92.8136 151.125 93.2209 151.191 93.7384 151.38L94.4219 149.5ZM92.5 149.125V147.125C91.6505 147.125 90.7815 147.312 89.9211 147.611L90.5781 149.5L91.2352 151.389C91.8122 151.188 92.2245 151.125 92.5 151.125V149.125ZM90.5781 149.5L89.8946 147.62C88.7479 148.037 87.8433 148.822 87.1551 149.811L88.7969 150.953L90.4387 152.095C90.7504 151.647 91.0333 151.463 91.2616 151.38L90.5781 149.5ZM88.7969 150.953L87.1794 149.777C86.3195 150.959 86.0469 152.489 86.0469 154.047H88.0469H90.0469C90.0469 152.855 90.2743 152.322 90.4143 152.129L88.7969 150.953ZM88.0469 154.047H86.0469C86.0469 155.595 86.3276 157.093 87.1551 158.283L88.7969 157.141L90.4387 155.998C90.2661 155.75 90.0469 155.186 90.0469 154.047H88.0469ZM88.7969 157.141L87.1551 158.283C87.8433 159.272 88.7479 160.056 89.8946 160.473L90.5781 158.594L91.2616 156.714C91.0333 156.631 90.7504 156.447 90.4387 155.998L88.7969 157.141ZM90.5781 158.594L89.9211 160.483C90.7815 160.782 91.6505 160.969 92.5 160.969V158.969V156.969C92.2245 156.969 91.8122 156.905 91.2352 156.705L90.5781 158.594ZM111.766 161.969L110.075 163.038L110.083 163.05L110.091 163.062L111.766 161.969ZM110.312 142.094V140.094H108.312V142.094H110.312ZM118.422 142.094H120.422V140.094H118.422V142.094ZM119.172 157.844L117.508 158.953L117.523 158.977L117.54 159L119.172 157.844ZM124.281 157.844L122.649 156.688L122.633 156.711L122.617 156.734L124.281 157.844ZM125.078 142.094V140.094H123.078V142.094H125.078ZM133.188 142.094H135.188V140.094H133.188V142.094ZM131.688 161.969L130.013 160.875L130.005 160.887L129.997 160.899L131.688 161.969ZM121.75 166.703V164.703C119.778 164.703 118.109 164.343 116.699 163.676L115.844 165.484L114.989 167.293C117.016 168.251 119.285 168.703 121.75 168.703V166.703ZM115.844 165.484L116.699 163.676C115.3 163.015 114.23 162.085 113.44 160.875L111.766 161.969L110.091 163.062C111.301 164.915 112.95 166.329 114.989 167.293L115.844 165.484ZM111.766 161.969L113.456 160.899C112.725 159.745 112.312 158.288 112.312 156.438H110.312H108.312C108.312 158.9 108.869 161.13 110.075 163.038L111.766 161.969ZM110.312 156.438H112.312V142.094H110.312H108.312V156.438H110.312ZM110.312 142.094V144.094H118.422V142.094V140.094H110.312V142.094ZM118.422 142.094H116.422V154.281H118.422H120.422V142.094H118.422ZM118.422 154.281H116.422C116.422 156.026 116.674 157.703 117.508 158.953L119.172 157.844L120.836 156.734C120.669 156.485 120.422 155.787 120.422 154.281H118.422ZM119.172 157.844L117.54 159C118.553 160.43 120.124 160.969 121.75 160.969V158.969V156.969C121.001 156.969 120.853 156.758 120.804 156.688L119.172 157.844ZM121.75 158.969V160.969C123.37 160.969 124.96 160.431 125.945 158.953L124.281 157.844L122.617 156.734C122.583 156.786 122.546 156.822 122.461 156.86C122.357 156.906 122.141 156.969 121.75 156.969V158.969ZM124.281 157.844L125.913 159C126.807 157.739 127.078 156.04 127.078 154.281H125.078H123.078C123.078 155.772 122.818 156.449 122.649 156.688L124.281 157.844ZM125.078 154.281H127.078V142.094H125.078H123.078V154.281H125.078ZM125.078 142.094V144.094H133.188V142.094V140.094H125.078V142.094ZM133.188 142.094H131.188V156.438H133.188H135.188V142.094H133.188ZM133.188 156.438H131.188C131.188 158.276 130.765 159.724 130.013 160.875L131.688 161.969L133.362 163.062C134.61 161.151 135.188 158.911 135.188 156.438H133.188ZM131.688 161.969L129.997 160.899C129.242 162.094 128.195 163.017 126.801 163.676L127.656 165.484L128.511 167.293C130.555 166.326 132.196 164.906 133.378 163.038L131.688 161.969ZM127.656 165.484L126.801 163.676C125.391 164.343 123.722 164.703 121.75 164.703V166.703V168.703C124.215 168.703 126.484 168.251 128.511 167.293L127.656 165.484ZM145.797 165.672L144.851 167.434L144.86 167.439L144.869 167.444L145.797 165.672ZM142.656 162.719L140.949 163.76L140.958 163.775L140.967 163.79L142.656 162.719ZM141.484 148.422H143.484V146.422H141.484V148.422ZM138.109 148.422H136.109V150.422H138.109V148.422ZM138.109 143.5L137.597 141.567L136.109 141.961V143.5H138.109ZM141.812 140.969L140.217 139.763L140.208 139.775L140.198 139.788L141.812 140.969ZM144.297 136V134H142.862L142.402 135.359L144.297 136ZM149.547 136H151.547V134H149.547V136ZM149.547 142.094H147.547V144.094H149.547V142.094ZM156.297 142.094H158.297V140.094H156.297V142.094ZM156.297 148.422V150.422H158.297V148.422H156.297ZM149.547 148.422V146.422H147.547V148.422H149.547ZM150.203 157.891L148.516 158.964L148.545 159.01L148.576 159.053L150.203 157.891ZM154.844 158.406L155.775 160.176L155.791 160.168L155.808 160.159L154.844 158.406ZM156.672 157.375H158.672V153.906L155.67 155.644L156.672 157.375ZM156.672 164.125L158.289 165.301L158.672 164.775V164.125H156.672ZM154.141 165.953L154.917 167.796L154.937 167.788L154.957 167.779L154.141 165.953ZM150.016 166.703V164.703C148.835 164.703 147.747 164.436 146.725 163.9L145.797 165.672L144.869 167.444C146.471 168.283 148.197 168.703 150.016 168.703V166.703ZM145.797 165.672L146.743 163.91C145.778 163.392 144.982 162.652 144.345 161.648L142.656 162.719L140.967 163.79C141.956 165.348 143.253 166.577 144.851 167.434L145.797 165.672ZM142.656 162.719L144.364 161.678C143.81 160.769 143.484 159.6 143.484 158.078H141.484H139.484C139.484 160.181 139.94 162.106 140.949 163.76L142.656 162.719ZM141.484 158.078H143.484V148.422H141.484H139.484V158.078H141.484ZM141.484 148.422V146.422H138.109V148.422V150.422H141.484V148.422ZM138.109 148.422H140.109V143.5H138.109H136.109V148.422H138.109ZM138.109 143.5L138.622 145.433C140.597 144.909 142.219 143.799 143.427 142.15L141.812 140.969L140.198 139.788C139.531 140.701 138.684 141.278 137.597 141.567L138.109 143.5ZM141.812 140.969L143.408 142.175C144.541 140.676 145.457 138.812 146.191 136.641L144.297 136L142.402 135.359C141.762 137.251 141.021 138.699 140.217 139.763L141.812 140.969ZM144.297 136V138H149.547V136V134H144.297V136ZM149.547 136H147.547V142.094H149.547H151.547V136H149.547ZM149.547 142.094V144.094H156.297V142.094V140.094H149.547V142.094ZM156.297 142.094H154.297V148.422H156.297H158.297V142.094H156.297ZM156.297 148.422V146.422H149.547V148.422V150.422H156.297V148.422ZM149.547 148.422H147.547V155.125H149.547H151.547V148.422H149.547ZM149.547 155.125H147.547C147.547 156.51 147.805 157.848 148.516 158.964L150.203 157.891L151.89 156.817C151.726 156.558 151.547 156.053 151.547 155.125H149.547ZM150.203 157.891L148.576 159.053C149.545 160.41 151.057 160.875 152.547 160.875V158.875V156.875C152.192 156.875 152 156.821 151.915 156.785C151.848 156.757 151.838 156.739 151.831 156.728L150.203 157.891ZM152.547 158.875V160.875C153.687 160.875 154.803 160.688 155.775 160.176L154.844 158.406L153.912 156.636C153.697 156.75 153.281 156.875 152.547 156.875V158.875ZM154.844 158.406L155.808 160.159C156.445 159.808 157.067 159.457 157.674 159.106L156.672 157.375L155.67 155.644C155.089 155.98 154.493 156.317 153.88 156.654L154.844 158.406ZM156.672 157.375H154.672V164.125H156.672H158.672V157.375H156.672ZM156.672 164.125L155.054 162.949C154.841 163.242 154.348 163.669 153.324 164.127L154.141 165.953L154.957 167.779C156.309 167.174 157.503 166.383 158.289 165.301L156.672 164.125ZM154.141 165.953L153.365 164.11C152.469 164.487 151.367 164.703 150.016 164.703V166.703V168.703C151.789 168.703 153.437 168.419 154.917 167.796L154.141 165.953Z" fill="#0B1215" mask="url(#path-13-outside-1_568_924)"/>
<defs>
<linearGradient id="paint0_linear_568_924" x1="117.132" y1="35.8775" x2="46.3774" y2="35.8775" gradientUnits="userSpaceOnUse">
<stop stop-color="white" stop-opacity="0.15"/>
<stop offset="0.34" stop-color="#DFA607" stop-opacity="0.5"/>
<stop offset="0.475" stop-color="#5E4500" stop-opacity="0.9"/>
<stop offset="0.655" stop-color="#DFA607" stop-opacity="0.5"/>
<stop offset="0.995" stop-color="white" stop-opacity="0.15"/>
</linearGradient>
<linearGradient id="paint1_linear_568_924" x1="114.63" y1="22.3013" x2="49.2617" y2="49.378" gradientUnits="userSpaceOnUse">
<stop stop-color="white" stop-opacity="0.15"/>
<stop offset="0.34" stop-color="#DFA607" stop-opacity="0.5"/>
<stop offset="0.475" stop-color="#5E4500" stop-opacity="0.9"/>
<stop offset="0.655" stop-color="#DFA607" stop-opacity="0.5"/>
<stop offset="0.995" stop-color="white" stop-opacity="0.15"/>
</linearGradient>
<linearGradient id="paint2_linear_568_924" x1="114.248" y1="49.3775" x2="48.879" y2="22.3008" gradientUnits="userSpaceOnUse">
<stop stop-color="white" stop-opacity="0.15"/>
<stop offset="0.34" stop-color="#DFA607" stop-opacity="0.5"/>
<stop offset="0.475" stop-color="#5E4500" stop-opacity="0.9"/>
<stop offset="0.655" stop-color="#DFA607" stop-opacity="0.5"/>
<stop offset="0.995" stop-color="white" stop-opacity="0.15"/>
</linearGradient>
<linearGradient id="paint3_linear_568_924" x1="82.2549" y1="0.000167847" x2="82.2549" y2="70.7549" gradientUnits="userSpaceOnUse">
<stop stop-color="white" stop-opacity="0.15"/>
<stop offset="0.34" stop-color="#DFA607" stop-opacity="0.5"/>
<stop offset="0.475" stop-color="#5E4500" stop-opacity="0.9"/>
<stop offset="0.655" stop-color="#DFA607" stop-opacity="0.5"/>
<stop offset="0.995" stop-color="white" stop-opacity="0.15"/>
</linearGradient>
<linearGradient id="paint4_linear_568_924" x1="95.7549" y1="2.88403" x2="68.6782" y2="68.2529" gradientUnits="userSpaceOnUse">
<stop stop-color="white" stop-opacity="0.15"/>
<stop offset="0.34" stop-color="#DFA607" stop-opacity="0.5"/>
<stop offset="0.475" stop-color="#5E4500" stop-opacity="0.9"/>
<stop offset="0.655" stop-color="#DFA607" stop-opacity="0.5"/>
<stop offset="0.995" stop-color="white" stop-opacity="0.15"/>
</linearGradient>
<linearGradient id="paint5_linear_568_924" x1="94.831" y1="68.2535" x2="67.7544" y2="2.8847" gradientUnits="userSpaceOnUse">
<stop stop-color="white" stop-opacity="0.15"/>
<stop offset="0.34" stop-color="#DFA607" stop-opacity="0.5"/>
<stop offset="0.475" stop-color="#5E4500" stop-opacity="0.9"/>
<stop offset="0.655" stop-color="#DFA607" stop-opacity="0.5"/>
<stop offset="0.995" stop-color="white" stop-opacity="0.15"/>
</linearGradient>
<linearGradient id="paint6_linear_568_924" x1="106.417" y1="60.7465" x2="56.3857" y2="10.7154" gradientUnits="userSpaceOnUse">
<stop stop-color="white" stop-opacity="0.15"/>
<stop offset="0.34" stop-color="#DFA607" stop-opacity="0.5"/>
<stop offset="0.475" stop-color="#5E4500" stop-opacity="0.9"/>
<stop offset="0.655" stop-color="#DFA607" stop-opacity="0.5"/>
<stop offset="0.995" stop-color="white" stop-opacity="0.15"/>
</linearGradient>
<linearGradient id="paint7_linear_568_924" x1="107.124" y1="10.715" x2="57.0928" y2="60.7461" gradientUnits="userSpaceOnUse">
<stop stop-color="white" stop-opacity="0.15"/>
<stop offset="0.34" stop-color="#DFA607" stop-opacity="0.5"/>
<stop offset="0.475" stop-color="#5E4500" stop-opacity="0.9"/>
<stop offset="0.655" stop-color="#DFA607" stop-opacity="0.5"/>
<stop offset="0.995" stop-color="white" stop-opacity="0.15"/>
</linearGradient>
</defs>
</svg>
