<svg width="182" height="169" viewBox="0 0 182 169" fill="none" xmlns="http://www.w3.org/2000/svg">
<line x1="48.2034" y1="36.5146" x2="121.733" y2="36.5147" stroke="url(#paint0_linear_568_924)" stroke-width="0.5"/>
<line x1="50.906" y1="50.6035" x2="118.838" y2="22.465" stroke="url(#paint1_linear_568_924)" stroke-width="0.5"/>
<line x1="51.0974" y1="22.4639" x2="119.03" y2="50.6023" stroke="url(#paint2_linear_568_924)" stroke-width="0.5"/>
<line x1="84.718" y1="73.5293" x2="84.718" y2="-0.000114441" stroke="url(#paint3_linear_568_924)" stroke-width="0.5"/>
<line x1="70.6682" y1="70.6348" x2="98.8067" y2="2.70248" stroke="url(#paint4_linear_568_924)" stroke-width="0.5"/>
<line x1="71.1301" y1="2.70316" x2="99.2686" y2="70.6355" stroke="url(#paint5_linear_568_924)" stroke-width="0.5"/>
<line x1="59.1482" y1="10.5913" x2="111.141" y2="62.5844" stroke="url(#paint6_linear_568_924)" stroke-width="0.5"/>
<line x1="58.7947" y1="62.5845" x2="110.788" y2="10.5913" stroke="url(#paint7_linear_568_924)" stroke-width="0.5"/>
<path d="M87.9879 35.8235L89.6436 34.9373H87.1717L89.6436 33.3516C83.758 33.0051 81.1496 33.2883 79.9427 36.1733C75.1702 36.739 74.1933 38.1394 73.2033 41.117C76.2752 39.5276 77.8253 39.5725 80.2691 41.3969C81.0656 42.2542 81.2525 42.7291 81.132 43.5656C79.5446 49.4253 80.776 52.6218 86.8219 58.1637C86.854 59.8798 87.2468 60.8881 88.5243 62.7576C90.2771 63.0807 90.9311 62.8145 91.1361 61.032C92.1384 62.7508 92.7031 63.8135 93.6546 63.6438C95.6556 63.1625 96.0785 62.5193 96.1964 61.032C99.1735 66.8346 100.826 71.3569 103.892 70.4764C108.149 73.0755 108.144 71.9555 104.871 66.4421C113.883 71.8521 109.714 66.6914 101.886 57.1376C103.896 57.4182 103.861 56.9686 100.884 54.6424C102.775 54.4815 103.404 54.2398 98.9248 51.844C103.449 52.7768 97.3624 50.0718 94.5407 43.5656C90.3665 41.9099 91.2811 36.9209 87.9879 35.8235Z" fill="#0B1215"/>
<path d="M84.4667 37.5958C87.5415 39.4849 87.5415 36.7275 87.9879 35.8235M84.4667 37.5958C83.9164 35.6653 82.4145 35.497 81.4818 37.0594C81.4343 37.9551 81.8222 38.3456 83.0209 38.905M84.4667 37.5958L83.0209 38.905M84.4667 37.5958C87.1717 39.4613 84.2102 46.2834 81.132 43.5656M87.9879 35.8235L89.6436 34.9373H87.1717L89.6436 33.3516C83.758 33.0051 81.1496 33.2883 79.9427 36.1733C75.1702 36.739 74.1933 38.1394 73.2033 41.117C76.2752 39.5276 77.8253 39.5725 80.2691 41.3969M87.9879 35.8235C91.2811 36.9209 90.3665 41.9099 94.5407 43.5656C97.3624 50.0718 103.449 52.7768 98.9248 51.844C103.404 54.2398 102.775 54.4815 100.884 54.6424C103.861 56.9686 103.896 57.4182 101.886 57.1376C109.714 66.6914 113.883 71.8521 104.871 66.4421C108.144 71.9555 108.149 73.0755 103.892 70.4764C100.826 71.3569 99.1735 66.8346 96.1964 61.032C96.0785 62.5193 95.6556 63.1625 93.6546 63.6438M80.2691 41.3969C82.7621 40.5878 82.2107 40.0363 83.0209 38.905M80.2691 41.3969C81.0656 42.2542 81.2525 42.7291 81.132 43.5656M81.132 43.5656C79.5446 49.4253 80.776 52.6218 86.8219 58.1636C86.854 59.8798 87.2468 60.8881 88.5243 62.7576M88.5243 62.7576L84.9097 67.7247M88.5243 62.7576C90.2771 63.0807 90.9311 62.8145 91.1361 61.032C92.1384 62.7508 92.7031 63.8135 93.6546 63.6438M93.6546 63.6438L91.6258 68.8907" stroke="#E6AB07" stroke-width="0.75"/>
<path fill-rule="evenodd" clip-rule="evenodd" d="M74.674 85.2941C69.6648 82.0978 73.2034 81.3523 76.1446 82.353C77.3679 78.2006 79.6986 75.8815 80.5563 80.8824C86.644 78.7263 87.9093 83.8236 81.3673 84.1061C87.2096 85.7957 85.4351 89.1184 80.5563 86.7647C75.3043 90.5652 69.1281 88.3709 74.674 85.2941Z" fill="#0B1215"/>
<path d="M95.7485 81.3523C116.603 91.1307 108.698 89.2271 97.3214 86.8576C96.7304 92.0272 97.666 93.6531 104.961 90.9023C104.127 91.7085 103.635 92.361 103.493 92.9247C103.213 94.0417 104.312 94.8097 106.871 95.7335C105.206 96.378 104.067 96.9001 103.493 97.351C103.254 97.5386 103.113 97.7139 103.073 97.8806C102.933 98.4523 103.976 98.9227 106.31 99.4411C106.456 100.312 106.597 101.083 106.736 101.753C106.747 101.805 106.758 101.856 106.769 101.907C107.817 106.841 108.753 106.045 110.579 99.4411C112.731 106.692 114.759 106.606 119.118 102.699C118.482 110.838 120.176 110.556 126.308 102.699C127.548 105.592 128.223 106.161 129.342 102.699C135.833 109.003 138.451 111.037 132.376 98.8794C137.159 97.3422 137.111 96.2628 133.387 94.0482C137.184 93.2708 138.001 92.6322 134.173 90.6776C138.314 83.2325 137.987 81.4663 129.117 85.8464C132.038 80.0221 127.789 80.7574 121.29 81.882C120.59 82.0031 119.864 82.1287 119.118 82.2511C120.838 78.6323 120.052 78.579 116.309 81.1276C120.513 74.2394 119.903 72.6724 112.264 74.9482C106.227 69.2807 104.134 70.7133 101.141 75.9094C106.431 74.9209 104.004 76.9311 95.7485 81.3523Z" fill="#0B1215"/>
<path d="M62.9093 75C61.1583 73.2792 59.5016 74.2803 59.9681 76.4706C56.405 76.2609 55.1332 76.6101 58.4473 78.3271C55.7314 80.7276 58.8417 79.7173 59.6832 79.4547C60.0426 81.4628 62.0026 81.7169 63.8402 80.1712C65.1024 81.0993 68.1458 80.1043 64.9637 77.9817C65.0879 77.2524 65.3842 76.5438 65.635 75.9442C66.2831 74.3943 66.6269 73.572 62.9093 75Z" fill="#0B1215"/>
<path d="M60.2449 99.2164C62.0845 98.7083 62.4838 98.2492 61.9302 97.0817C62.6374 93.9384 61.7696 93.2353 58.5596 93.3741C59.7565 90.7322 59.6832 90.0035 56.5373 89.5541C56.3126 85.397 54.9804 85.8357 54.0655 88.9923C49.0334 87.4751 48.0555 87.9398 49.459 91.0147L48.8773 91.115C43.9918 91.9565 43.9352 91.9662 49.459 94.1605C45.6603 95.405 44.6778 97.4716 50.1331 97.7558C48.4841 101.709 50.7605 102.229 53.8408 102.025C53.9953 104.847 54.114 104.725 55.7938 103.004C55.9524 102.841 56.1248 102.665 56.3126 102.475C57.4228 102.614 58.2393 102.868 58.7782 103.036C59.2155 103.172 59.4701 103.251 59.5508 103.166C59.6634 103.047 59.4379 102.608 58.898 101.557C58.6842 101.141 58.4211 100.629 58.1102 100.003C60.3539 100.82 60.9988 100.793 60.4722 99.6537C60.4117 99.5227 60.3357 99.3771 60.2449 99.2164Z" fill="#0B1215"/>
<path d="M75.7004 114.272C73.7142 112.687 72.6254 113.074 72.1543 115.62C69.0478 115.57 68.1804 116.039 69.5702 118.541C66.9933 121.228 67.8284 121.681 70.8061 121.799C72.1468 122.828 73.7152 122.629 74.7449 121.35C76.9421 122.537 79.29 121.508 79.642 119.55C80.8428 118.806 80.7757 118.131 79.1202 117.331C80.0853 115.072 80.1363 113.983 79.1202 113.742C78.4538 113.584 77.3282 113.791 75.7004 114.272Z" fill="#0B1215"/>
<path d="M76.1446 82.353C73.2034 81.3523 69.6648 82.0978 74.674 85.2941C69.1281 88.3709 75.3043 90.5652 80.5563 86.7647C85.4351 89.1184 87.2096 85.7957 81.3673 84.1061C87.9093 83.8236 86.644 78.7263 80.5563 80.8824C79.6986 75.8815 77.3679 78.2006 76.1446 82.353Z" fill="#0B1215"/>
<path fill-rule="evenodd" clip-rule="evenodd" d="M78.6708 92.9247C76.1446 100 79.0857 98.5294 82.0269 94.1177C82.5438 94.1932 83.0312 94.2787 83.4858 94.3585C85.371 94.6893 86.6917 94.9211 87.2062 93.9258C87.2756 93.7917 87.3303 93.6352 87.3697 93.4538C87.506 92.8273 87.4607 91.9023 87.2096 90.5652C92.321 92.6471 92.321 91.1765 89.5691 86.7867C89.952 87.0915 90.3316 87.3617 90.708 87.594L90.7901 87.6441C93.0606 89.0134 95.2188 88.9918 97.3214 86.8576C108.698 89.2271 116.603 91.1307 95.7485 81.3523C104.004 76.9311 106.431 74.9209 101.141 75.9094C99.5422 76.2083 97.2377 76.7813 94.1755 77.6447C104.086 69.1176 89.3799 64.7059 89.3799 72.0589C88.5392 66.0994 86.6133 63.8732 79.3449 70.6788C77.4186 67.1428 75.7432 69.9682 74.674 73.5294C71.347 70.6008 69.3749 70.5449 71.1494 75.2852C69.4409 76.5305 69.5577 77.9969 70.9184 80.4535C69.4075 78.3794 66.6853 77.4778 64.9637 77.9817C68.1458 80.1043 65.1024 81.0993 63.8402 80.1712C62.0026 81.7169 60.0426 81.4628 59.6832 79.4547L59.6795 79.4704C59.523 80.1359 59.1624 81.6692 59.5508 83.0706C56.0799 85.1918 57.6837 87.696 63.3908 86.8576C60.6444 91.8514 61.5053 91.7155 66.6085 90.9098L66.6559 90.9023C66.5796 97.3519 68.8267 98.3746 72.6037 92.1382C73.7961 96.3484 74.1063 96.1296 77.1604 93.9749C77.6026 93.6629 78.1025 93.3103 78.6708 92.9247ZM74.674 85.2941C69.6648 82.0978 73.2034 81.3523 76.1446 82.353C77.3679 78.2006 79.6986 75.8815 80.5563 80.8824C86.644 78.7263 87.9093 83.8236 81.3673 84.1061C87.2096 85.7957 85.4351 89.1184 80.5563 86.7647C75.3043 90.5652 69.1281 88.3709 74.674 85.2941Z" fill="#0B1215"/>
<path d="M97.209 142.023C97.0814 146.042 95.9886 147.779 92.2655 150H109.231C110.508 145.715 110.228 143.644 108.22 140.45C98.706 128.388 95.9237 122.633 93.5014 113.373C90.8504 105.882 99.674 107.353 106.736 101.753C106.597 101.083 106.456 100.312 106.31 99.4411C103.976 98.9227 102.933 98.4523 103.073 97.8806C97.8215 104.111 90.8109 98.6895 89.3443 104.629C89.2245 103.417 87.8288 95.919 87.3697 93.4538C87.3303 93.6352 87.2756 93.7917 87.2062 93.9258C86.6917 94.9211 85.371 94.6893 83.4858 94.3585C83.0312 94.2787 82.5438 94.1932 82.0269 94.1177C82.0198 95.0594 82.7143 99.7206 83.3658 100.902C76.6986 99.2164 71.7328 108.824 60.2449 99.2164C60.3357 99.3771 60.4117 99.5227 60.4722 99.6537C64.5949 107.405 70.4328 108.77 79.642 105.882C81.2468 107.521 79.0417 110.046 77.3368 111.998C76.5081 112.947 75.7976 113.761 75.7004 114.272C77.3282 113.791 78.4538 113.584 79.1202 113.742L82.3784 110.676L84.9681 114.706C84.1895 125.641 88.1189 130.585 96.8743 141.602L97.209 142.023Z" fill="#0B1215"/>
<path d="M97.209 142.023C97.0814 146.042 95.9886 147.779 92.2655 150H109.231C110.508 145.715 110.228 143.644 108.22 140.45C98.706 128.388 95.9237 122.633 93.5014 113.373C90.8504 105.882 99.674 107.353 106.736 101.753M97.209 142.023C97.0967 141.882 96.9851 141.741 96.8743 141.602M97.209 142.023L96.8743 141.602M60.2449 99.2164C62.0845 98.7083 62.4838 98.2492 61.9302 97.0817C62.6374 93.9384 61.7696 93.2353 58.5596 93.3741C59.7565 90.7322 59.6832 90.0035 56.5373 89.5541C56.3126 85.397 54.9804 85.8357 54.0655 88.9923C49.0334 87.4751 48.0555 87.9398 49.459 91.0147M60.2449 99.2164C71.7328 108.824 76.6986 99.2164 83.3658 100.902C82.7143 99.7206 82.0198 95.0594 82.0269 94.1177M60.2449 99.2164C60.3357 99.3771 60.4117 99.5227 60.4722 99.6537M60.2449 99.2164C60.3201 99.3644 60.3958 99.5101 60.4722 99.6537M87.2096 90.5652C92.321 92.6471 92.321 91.1765 89.5691 86.7867C89.952 87.0915 90.3316 87.3617 90.708 87.594M87.2096 90.5652C87.4607 91.9023 87.506 92.8273 87.3697 93.4538M87.2096 90.5652C87.5335 92.2896 87.515 93.3286 87.2062 93.9258M97.3214 86.8576C108.698 89.2271 116.603 91.1307 95.7485 81.3523C104.004 76.9311 106.431 74.9209 101.141 75.9094M97.3214 86.8576C96.7304 92.0272 97.666 93.6531 104.961 90.9023C104.127 91.7085 103.635 92.361 103.493 92.9247C103.213 94.0417 104.312 94.8097 106.871 95.7335C105.206 96.378 104.067 96.9001 103.493 97.351M97.3214 86.8576C95.1935 89.0175 93.0086 89.0136 90.708 87.594M97.3214 86.8576C95.2188 88.9918 93.0606 89.0134 90.7901 87.6441M90.7901 87.6441C90.7627 87.6276 90.7354 87.6109 90.708 87.594M90.7901 87.6441L90.708 87.594M103.493 97.351C103.254 97.5386 103.113 97.7139 103.073 97.8806M103.493 97.351C103.354 97.5363 103.214 97.7127 103.073 97.8806M106.736 101.753C106.597 101.083 106.456 100.312 106.31 99.4411M106.736 101.753C106.747 101.805 106.758 101.856 106.769 101.907M75.7004 114.272C73.7142 112.687 72.6254 113.074 72.1543 115.62C69.0478 115.57 68.1804 116.039 69.5702 118.541C66.9933 121.228 67.8284 121.681 70.8061 121.799C72.1468 122.828 73.7152 122.629 74.7449 121.35C76.9421 122.537 79.29 121.508 79.642 119.55C80.8428 118.806 80.7757 118.131 79.1202 117.331C80.0853 115.072 80.1363 113.983 79.1202 113.742M75.7004 114.272C77.3282 113.791 78.4538 113.584 79.1202 113.742M75.7004 114.272C75.7976 113.761 76.5081 112.947 77.3368 111.998C79.0417 110.046 81.2468 107.521 79.642 105.882C70.4328 108.77 64.5949 107.405 60.4722 99.6537M49.459 91.0147C49.2581 91.0494 49.0642 91.0828 48.8773 91.115M49.459 91.0147L48.8773 91.115M82.0269 94.1177C79.0857 98.5294 76.1446 100 78.6708 92.9247C78.1025 93.3103 77.6026 93.6629 77.1604 93.9749C74.1063 96.1296 73.7961 96.3484 72.6037 92.1382C68.8267 98.3746 66.5796 97.3519 66.6559 90.9023M82.0269 94.1177C82.5438 94.1932 83.0312 94.2787 83.4858 94.3585C85.371 94.6893 86.6917 94.9211 87.2062 93.9258M66.6559 90.9023L66.6085 90.9098M66.6559 90.9023C66.64 90.9048 66.6242 90.9073 66.6085 90.9098M64.9637 77.9817C66.6853 77.4778 69.4075 78.3794 70.9184 80.4535C69.5577 77.9969 69.4409 76.5305 71.1494 75.2852C69.3749 70.5449 71.347 70.6008 74.674 73.5294C75.7432 69.9682 77.4186 67.1428 79.3449 70.6788C86.6133 63.8732 88.5392 66.0994 89.3799 72.0589C89.3799 64.7059 104.086 69.1176 94.1755 77.6447C97.2377 76.7813 99.5422 76.2083 101.141 75.9094M64.9637 77.9817C68.1458 80.1043 65.1024 81.0993 63.8402 80.1712C62.0026 81.7169 60.0426 81.4628 59.6832 79.4547M64.9637 77.9817C65.0879 77.2524 65.3842 76.5438 65.635 75.9442C66.2831 74.3943 66.6269 73.572 62.9093 75C61.1583 73.2792 59.5016 74.2803 59.9681 76.4706C56.405 76.2609 55.1332 76.6101 58.4473 78.3271C55.7314 80.7276 58.8417 79.7173 59.6832 79.4547M59.6832 79.4547L59.6795 79.4704C59.523 80.1359 59.1624 81.6692 59.5508 83.0706C56.0799 85.1918 57.6837 87.696 63.3908 86.8576C60.6444 91.8514 61.5053 91.7155 66.6085 90.9098M101.141 75.9094C104.134 70.7133 106.227 69.2807 112.264 74.9482C119.903 72.6724 120.513 74.2394 116.309 81.1276C120.052 78.579 120.838 78.6323 119.118 82.2511C119.864 82.1287 120.59 82.0031 121.29 81.882C127.789 80.7574 132.038 80.0221 129.117 85.8464C137.987 81.4663 138.314 83.2325 134.173 90.6776C138.001 92.6322 137.184 93.2708 133.387 94.0482C137.111 96.2628 137.159 97.3422 132.376 98.8794C138.451 111.037 135.833 109.003 129.342 102.699C128.223 106.161 127.548 105.592 126.308 102.699C120.176 110.556 118.482 110.838 119.118 102.699C114.759 106.606 112.731 106.692 110.579 99.4411C108.753 106.045 107.817 106.841 106.769 101.907M106.31 99.4411C106.467 100.38 106.619 101.202 106.769 101.907M106.31 99.4411C103.976 98.9227 102.933 98.4523 103.073 97.8806M79.1202 113.742L82.3784 110.676L84.9681 114.706C84.1895 125.641 88.1189 130.585 96.8743 141.602M48.8773 91.115C43.9918 91.9565 43.9352 91.9662 49.459 94.1605C45.6603 95.405 44.6778 97.4716 50.1331 97.7558C48.4841 101.709 50.7605 102.229 53.8408 102.025C53.9953 104.847 54.114 104.725 55.7938 103.004C55.9524 102.841 56.1248 102.665 56.3126 102.475C57.4228 102.614 58.2393 102.868 58.7782 103.036C59.2155 103.172 59.4701 103.251 59.5508 103.166C59.6634 103.047 59.4379 102.608 58.898 101.557C58.6842 101.141 58.4211 100.629 58.1102 100.003C60.3539 100.82 60.9988 100.793 60.4722 99.6537M87.3697 93.4538C87.8288 95.919 89.2245 103.417 89.3443 104.629C90.8109 98.6895 97.8215 104.111 103.073 97.8806M87.3697 93.4538C87.3303 93.6352 87.2756 93.7917 87.2062 93.9258M76.1446 82.353C73.2034 81.3523 69.6648 82.0978 74.674 85.2941C69.1281 88.3709 75.3043 90.5652 80.5563 86.7647C85.4351 89.1184 87.2096 85.7957 81.3673 84.1061C87.9093 83.8236 86.644 78.7263 80.5563 80.8824C79.6986 75.8815 77.3679 78.2006 76.1446 82.353Z" stroke="#A8A293" stroke-width="0.5"/>
<mask id="path-13-outside-1_568_924" maskUnits="userSpaceOnUse" x="10.5" y="126" width="157" height="43" fill="black">
<rect fill="white" x="10.5" y="126" width="157" height="43"/>
<path d="M14.2031 166L28.4531 134.125H32.8594L47.1094 166H36.8906L30.6562 148.281L24.4219 166H14.2031ZM21.2812 161.312V154.75H39.1406V161.312H21.2812ZM59.7656 166.703C57.9844 166.703 56.3125 166.25 54.75 165.344C53.1875 164.438 51.9062 163.047 50.9062 161.172C49.9375 159.266 49.4531 156.875 49.4531 154C49.4531 151.312 49.9375 149.031 50.9062 147.156C51.9062 145.281 53.2188 143.859 54.8438 142.891C56.5 141.891 58.2969 141.391 60.2344 141.391C61.4844 141.391 62.7031 141.672 63.8906 142.234C65.1094 142.766 66.1094 143.453 66.8906 144.297V132.25H74.9531V166H66.8906V162.016C66.2969 163.328 65.3906 164.438 64.1719 165.344C62.9531 166.25 61.4844 166.703 59.7656 166.703ZM62.1562 158.547C62.8438 158.547 63.5469 158.375 64.2656 158.031C64.9844 157.656 65.5938 157.109 66.0938 156.391C66.625 155.641 66.8906 154.688 66.8906 153.531V151.234C66.2031 150.672 65.4219 150.203 64.5469 149.828C63.7031 149.453 62.8281 149.266 61.9219 149.266C61.1406 149.266 60.4375 149.484 59.8125 149.922C59.2188 150.359 58.75 150.938 58.4062 151.656C58.0625 152.375 57.8906 153.156 57.8906 154C57.8906 154.844 58.0625 155.609 58.4062 156.297C58.7812 156.984 59.2812 157.531 59.9062 157.938C60.5625 158.344 61.3125 158.547 62.1562 158.547ZM110.156 166V152.5C110.156 151.312 109.844 150.484 109.219 150.016C108.625 149.516 107.922 149.266 107.109 149.266C106.391 149.266 105.766 149.5 105.234 149.969C104.734 150.406 104.266 150.938 103.828 151.562L102.656 146.031C103.406 144.719 104.406 143.625 105.656 142.75C106.938 141.844 108.375 141.391 109.969 141.391C111.594 141.391 113.031 141.766 114.281 142.516C115.531 143.234 116.5 144.328 117.188 145.797C117.906 147.266 118.266 149.078 118.266 151.234V166H110.156ZM81.5156 166V142.094H89.5781V166H81.5156ZM95.8125 166V152.5C95.8125 151.312 95.5 150.484 94.875 150.016C94.2812 149.516 93.5781 149.266 92.7656 149.266C92.0469 149.266 91.4375 149.5 90.9375 149.969C90.4688 150.406 90.0156 150.938 89.5781 151.562V145.188C90.0781 144.5 90.5938 143.875 91.125 143.312C91.6562 142.719 92.2656 142.25 92.9531 141.906C93.6719 141.562 94.5625 141.391 95.625 141.391C97.5 141.391 99.125 141.891 100.5 142.891C101.875 143.891 102.844 145.359 103.406 147.297L103.922 150.625V166H95.8125ZM130.641 138.438C129.266 138.438 128.078 137.969 127.078 137.031C126.078 136.062 125.578 134.906 125.578 133.562C125.578 132.188 126.078 131.031 127.078 130.094C128.078 129.156 129.266 128.688 130.641 128.688C131.516 128.688 132.328 128.906 133.078 129.344C133.859 129.781 134.484 130.375 134.953 131.125C135.422 131.844 135.656 132.656 135.656 133.562C135.656 134.438 135.422 135.25 134.953 136C134.484 136.75 133.859 137.344 133.078 137.781C132.328 138.219 131.516 138.438 130.641 138.438ZM127.312 166V142.094H135.375V166H127.312ZM123.422 148.656V142.094H135.375V148.656H123.422ZM156.75 166V152.5C156.75 151.312 156.422 150.484 155.766 150.016C155.109 149.516 154.375 149.266 153.562 149.266C152.688 149.266 151.953 149.5 151.359 149.969C150.766 150.406 150.25 150.938 149.812 151.562V145.188C150.312 144.5 150.875 143.875 151.5 143.312C152.156 142.719 152.891 142.25 153.703 141.906C154.547 141.562 155.5 141.391 156.562 141.391C158.188 141.391 159.625 141.766 160.875 142.516C162.125 143.234 163.094 144.328 163.781 145.797C164.5 147.266 164.859 149.078 164.859 151.234V166H156.75ZM141.75 166V142.094H149.812V166H141.75Z"/>
</mask>
<path d="M14.2031 166L28.4531 134.125H32.8594L47.1094 166H36.8906L30.6562 148.281L24.4219 166H14.2031ZM21.2812 161.312V154.75H39.1406V161.312H21.2812ZM59.7656 166.703C57.9844 166.703 56.3125 166.25 54.75 165.344C53.1875 164.438 51.9062 163.047 50.9062 161.172C49.9375 159.266 49.4531 156.875 49.4531 154C49.4531 151.312 49.9375 149.031 50.9062 147.156C51.9062 145.281 53.2188 143.859 54.8438 142.891C56.5 141.891 58.2969 141.391 60.2344 141.391C61.4844 141.391 62.7031 141.672 63.8906 142.234C65.1094 142.766 66.1094 143.453 66.8906 144.297V132.25H74.9531V166H66.8906V162.016C66.2969 163.328 65.3906 164.438 64.1719 165.344C62.9531 166.25 61.4844 166.703 59.7656 166.703ZM62.1562 158.547C62.8438 158.547 63.5469 158.375 64.2656 158.031C64.9844 157.656 65.5938 157.109 66.0938 156.391C66.625 155.641 66.8906 154.688 66.8906 153.531V151.234C66.2031 150.672 65.4219 150.203 64.5469 149.828C63.7031 149.453 62.8281 149.266 61.9219 149.266C61.1406 149.266 60.4375 149.484 59.8125 149.922C59.2188 150.359 58.75 150.938 58.4062 151.656C58.0625 152.375 57.8906 153.156 57.8906 154C57.8906 154.844 58.0625 155.609 58.4062 156.297C58.7812 156.984 59.2812 157.531 59.9062 157.938C60.5625 158.344 61.3125 158.547 62.1562 158.547ZM110.156 166V152.5C110.156 151.312 109.844 150.484 109.219 150.016C108.625 149.516 107.922 149.266 107.109 149.266C106.391 149.266 105.766 149.5 105.234 149.969C104.734 150.406 104.266 150.938 103.828 151.562L102.656 146.031C103.406 144.719 104.406 143.625 105.656 142.75C106.938 141.844 108.375 141.391 109.969 141.391C111.594 141.391 113.031 141.766 114.281 142.516C115.531 143.234 116.5 144.328 117.188 145.797C117.906 147.266 118.266 149.078 118.266 151.234V166H110.156ZM81.5156 166V142.094H89.5781V166H81.5156ZM95.8125 166V152.5C95.8125 151.312 95.5 150.484 94.875 150.016C94.2812 149.516 93.5781 149.266 92.7656 149.266C92.0469 149.266 91.4375 149.5 90.9375 149.969C90.4688 150.406 90.0156 150.938 89.5781 151.562V145.188C90.0781 144.5 90.5938 143.875 91.125 143.312C91.6562 142.719 92.2656 142.25 92.9531 141.906C93.6719 141.562 94.5625 141.391 95.625 141.391C97.5 141.391 99.125 141.891 100.5 142.891C101.875 143.891 102.844 145.359 103.406 147.297L103.922 150.625V166H95.8125ZM130.641 138.438C129.266 138.438 128.078 137.969 127.078 137.031C126.078 136.062 125.578 134.906 125.578 133.562C125.578 132.188 126.078 131.031 127.078 130.094C128.078 129.156 129.266 128.688 130.641 128.688C131.516 128.688 132.328 128.906 133.078 129.344C133.859 129.781 134.484 130.375 134.953 131.125C135.422 131.844 135.656 132.656 135.656 133.562C135.656 134.438 135.422 135.25 134.953 136C134.484 136.75 133.859 137.344 133.078 137.781C132.328 138.219 131.516 138.438 130.641 138.438ZM127.312 166V142.094H135.375V166H127.312ZM123.422 148.656V142.094H135.375V148.656H123.422ZM156.75 166V152.5C156.75 151.312 156.422 150.484 155.766 150.016C155.109 149.516 154.375 149.266 153.562 149.266C152.688 149.266 151.953 149.5 151.359 149.969C150.766 150.406 150.25 150.938 149.812 151.562V145.188C150.312 144.5 150.875 143.875 151.5 143.312C152.156 142.719 152.891 142.25 153.703 141.906C154.547 141.562 155.5 141.391 156.562 141.391C158.188 141.391 159.625 141.766 160.875 142.516C162.125 143.234 163.094 144.328 163.781 145.797C164.5 147.266 164.859 149.078 164.859 151.234V166H156.75ZM141.75 166V142.094H149.812V166H141.75Z" fill="#E6AB07"/>
<path d="M14.2031 166L12.3773 165.184L11.1182 168H14.2031V166ZM28.4531 134.125V132.125H27.1565L26.6273 133.309L28.4531 134.125ZM32.8594 134.125L34.6852 133.309L34.156 132.125H32.8594V134.125ZM47.1094 166V168H50.1943L48.9352 165.184L47.1094 166ZM36.8906 166L35.004 166.664L35.4741 168H36.8906V166ZM30.6562 148.281L32.5429 147.617L30.6562 142.255L28.7696 147.617L30.6562 148.281ZM24.4219 166V168H25.8384L26.3085 166.664L24.4219 166ZM21.2812 161.312H19.2812V163.312H21.2812V161.312ZM21.2812 154.75V152.75H19.2812V154.75H21.2812ZM39.1406 154.75H41.1406V152.75H39.1406V154.75ZM39.1406 161.312V163.312H41.1406V161.312H39.1406ZM14.2031 166L16.029 166.816L30.279 134.941L28.4531 134.125L26.6273 133.309L12.3773 165.184L14.2031 166ZM28.4531 134.125V136.125H32.8594V134.125V132.125H28.4531V134.125ZM32.8594 134.125L31.0335 134.941L45.2835 166.816L47.1094 166L48.9352 165.184L34.6852 133.309L32.8594 134.125ZM47.1094 166V164H36.8906V166V168H47.1094V166ZM36.8906 166L38.7773 165.336L32.5429 147.617L30.6562 148.281L28.7696 148.945L35.004 166.664L36.8906 166ZM30.6562 148.281L28.7696 147.617L22.5353 165.336L24.4219 166L26.3085 166.664L32.5429 148.945L30.6562 148.281ZM24.4219 166V164H14.2031V166V168H24.4219V166ZM21.2812 161.312H23.2812V154.75H21.2812H19.2812V161.312H21.2812ZM21.2812 154.75V156.75H39.1406V154.75V152.75H21.2812V154.75ZM39.1406 154.75H37.1406V161.312H39.1406H41.1406V154.75H39.1406ZM39.1406 161.312V159.312H21.2812V161.312V163.312H39.1406V161.312ZM50.9062 161.172L49.1233 162.078L49.1322 162.096L49.1415 162.113L50.9062 161.172ZM50.9062 147.156L49.1415 146.215L49.1354 146.227L49.1294 146.238L50.9062 147.156ZM54.8438 142.891L55.8679 144.609L55.8775 144.603L54.8438 142.891ZM63.8906 142.234L63.0345 144.042L63.0628 144.055L63.0915 144.068L63.8906 142.234ZM66.8906 144.297L65.4231 145.656L68.8906 149.401V144.297H66.8906ZM66.8906 132.25V130.25H64.8906V132.25H66.8906ZM74.9531 132.25H76.9531V130.25H74.9531V132.25ZM74.9531 166V168H76.9531V166H74.9531ZM66.8906 166H64.8906V168H66.8906V166ZM66.8906 162.016H68.8906L65.0684 161.191L66.8906 162.016ZM64.2656 158.031L65.1285 159.836L65.1599 159.821L65.1908 159.804L64.2656 158.031ZM66.0938 156.391L64.4617 155.235L64.4568 155.242L64.4519 155.248L66.0938 156.391ZM66.8906 151.234H68.8906V150.287L68.1571 149.686L66.8906 151.234ZM64.5469 149.828L63.7346 151.656L63.7468 151.661L63.759 151.666L64.5469 149.828ZM59.8125 149.922L58.6656 148.283L58.6457 148.297L58.6261 148.312L59.8125 149.922ZM58.4062 156.297L56.6174 157.191L56.6334 157.223L56.6505 157.255L58.4062 156.297ZM59.9062 157.938L58.8163 159.614L58.8348 159.626L58.8535 159.638L59.9062 157.938ZM59.7656 166.703V164.703C58.342 164.703 57.0156 164.346 55.7534 163.614L54.75 165.344L53.7466 167.074C55.6094 168.154 57.6268 168.703 59.7656 168.703V166.703ZM54.75 165.344L55.7534 163.614C54.5664 162.925 53.527 161.836 52.671 160.231L50.9062 161.172L49.1415 162.113C50.2855 164.258 51.8086 165.95 53.7466 167.074L54.75 165.344ZM50.9062 161.172L52.6892 160.266C51.9036 158.72 51.4531 156.664 51.4531 154H49.4531H47.4531C47.4531 157.086 47.9714 159.811 49.1233 162.078L50.9062 161.172ZM49.4531 154H51.4531C51.4531 151.547 51.8956 149.599 52.6831 148.074L50.9062 147.156L49.1294 146.238C47.9794 148.464 47.4531 151.078 47.4531 154H49.4531ZM50.9062 147.156L52.671 148.097C53.5211 146.503 54.5932 145.368 55.8679 144.609L54.8438 142.891L53.8196 141.173C51.8443 142.35 50.2914 144.059 49.1415 146.215L50.9062 147.156ZM54.8438 142.891L55.8775 144.603C57.2213 143.791 58.6607 143.391 60.2344 143.391V141.391V139.391C57.9331 139.391 55.7787 139.99 53.81 141.178L54.8438 142.891ZM60.2344 141.391V143.391C61.1731 143.391 62.1005 143.599 63.0345 144.042L63.8906 142.234L64.7468 140.427C63.3057 139.744 61.7956 139.391 60.2344 139.391V141.391ZM63.8906 142.234L63.0915 144.068C64.0963 144.506 64.8565 145.044 65.4231 145.656L66.8906 144.297L68.3581 142.938C67.3622 141.862 66.1225 141.025 64.6898 140.401L63.8906 142.234ZM66.8906 144.297H68.8906V132.25H66.8906H64.8906V144.297H66.8906ZM66.8906 132.25V134.25H74.9531V132.25V130.25H66.8906V132.25ZM74.9531 132.25H72.9531V166H74.9531H76.9531V132.25H74.9531ZM74.9531 166V164H66.8906V166V168H74.9531V166ZM66.8906 166H68.8906V162.016H66.8906H64.8906V166H66.8906ZM66.8906 162.016L65.0684 161.191C64.6223 162.177 63.9401 163.024 62.9785 163.739L64.1719 165.344L65.3653 166.949C66.8412 165.851 67.9715 164.479 68.7128 162.84L66.8906 162.016ZM64.1719 165.344L62.9785 163.739C62.1494 164.355 61.1137 164.703 59.7656 164.703V166.703V168.703C61.8551 168.703 63.7569 168.145 65.3653 166.949L64.1719 165.344ZM62.1562 158.547V160.547C63.1864 160.547 64.1831 160.288 65.1285 159.836L64.2656 158.031L63.4027 156.227C62.9107 156.462 62.5011 156.547 62.1562 156.547V158.547ZM64.2656 158.031L65.1908 159.804C66.2184 159.268 67.0662 158.495 67.7356 157.533L66.0938 156.391L64.4519 155.248C64.1213 155.724 63.7503 156.044 63.3405 156.258L64.2656 158.031ZM66.0938 156.391L67.7258 157.547C68.5519 156.38 68.8906 154.994 68.8906 153.531H66.8906H64.8906C64.8906 154.381 64.6981 154.901 64.4617 155.235L66.0938 156.391ZM66.8906 153.531H68.8906V151.234H66.8906H64.8906V153.531H66.8906ZM66.8906 151.234L68.1571 149.686C67.3144 148.997 66.3698 148.433 65.3347 147.99L64.5469 149.828L63.759 151.666C64.474 151.973 65.0918 152.347 65.6241 152.782L66.8906 151.234ZM64.5469 149.828L65.3592 148.001C64.2646 147.514 63.1133 147.266 61.9219 147.266V149.266V151.266C62.5429 151.266 63.1416 151.392 63.7346 151.656L64.5469 149.828ZM61.9219 149.266V147.266C60.7408 147.266 59.6353 147.605 58.6656 148.283L59.8125 149.922L60.9594 151.56C61.2397 151.364 61.5404 151.266 61.9219 151.266V149.266ZM59.8125 149.922L58.6261 148.312C57.7473 148.959 57.0756 149.803 56.602 150.793L58.4062 151.656L60.2105 152.519C60.4244 152.072 60.6902 151.759 60.9989 151.532L59.8125 149.922ZM58.4062 151.656L56.602 150.793C56.1218 151.797 55.8906 152.876 55.8906 154H57.8906H59.8906C59.8906 153.437 60.0032 152.953 60.2105 152.519L58.4062 151.656ZM57.8906 154H55.8906C55.8906 155.123 56.1216 156.2 56.6174 157.191L58.4062 156.297L60.1951 155.402C60.0034 155.019 59.8906 154.564 59.8906 154H57.8906ZM58.4062 156.297L56.6505 157.255C57.176 158.218 57.8989 159.018 58.8163 159.614L59.9062 157.938L60.9962 156.261C60.6636 156.044 60.3865 155.751 60.162 155.339L58.4062 156.297ZM59.9062 157.938L58.8535 159.638C59.8552 160.258 60.9765 160.547 62.1562 160.547V158.547V156.547C61.6485 156.547 61.2698 156.429 60.959 156.237L59.9062 157.938ZM110.156 166H108.156V168H110.156V166ZM109.219 150.016L107.93 151.545L107.974 151.582L108.019 151.616L109.219 150.016ZM105.234 149.969L106.551 151.474L106.558 151.468L105.234 149.969ZM103.828 151.562L101.872 151.977L102.826 156.482L105.467 152.709L103.828 151.562ZM102.656 146.031L100.92 145.039L100.542 145.7L100.7 146.446L102.656 146.031ZM105.656 142.75L106.803 144.388L106.811 144.383L105.656 142.75ZM114.281 142.516L113.252 144.231L113.268 144.24L113.284 144.249L114.281 142.516ZM117.188 145.797L115.376 146.645L115.383 146.66L115.391 146.676L117.188 145.797ZM118.266 166V168H120.266V166H118.266ZM81.5156 166H79.5156V168H81.5156V166ZM81.5156 142.094V140.094H79.5156V142.094H81.5156ZM89.5781 142.094H91.5781V140.094H89.5781V142.094ZM89.5781 166V168H91.5781V166H89.5781ZM95.8125 166H93.8125V168H95.8125V166ZM94.875 150.016L93.5867 151.545L93.6299 151.582L93.675 151.616L94.875 150.016ZM90.9375 149.969L92.3021 151.431L92.3054 151.428L90.9375 149.969ZM89.5781 151.562H87.5781V157.907L91.2166 152.709L89.5781 151.562ZM89.5781 145.188L87.9607 144.011L87.5781 144.537V145.188H89.5781ZM91.125 143.312L92.579 144.686L92.5975 144.666L92.6155 144.646L91.125 143.312ZM92.9531 141.906L92.0902 140.102L92.0744 140.11L92.0587 140.117L92.9531 141.906ZM103.406 147.297L105.383 146.991L105.363 146.863L105.327 146.739L103.406 147.297ZM103.922 150.625H105.922V150.471L105.898 150.319L103.922 150.625ZM103.922 166V168H105.922V166H103.922ZM110.156 166H112.156V152.5H110.156H108.156V166H110.156ZM110.156 152.5H112.156C112.156 151.02 111.767 149.427 110.419 148.416L109.219 150.016L108.019 151.616C107.988 151.593 108.01 151.587 108.051 151.694C108.098 151.82 108.156 152.07 108.156 152.5H110.156ZM109.219 150.016L110.507 148.486C109.535 147.667 108.369 147.266 107.109 147.266V149.266V151.266C107.474 151.266 107.715 151.364 107.93 151.545L109.219 150.016ZM107.109 149.266V147.266C105.911 147.266 104.814 147.673 103.911 148.469L105.234 149.969L106.558 151.468C106.718 151.327 106.87 151.266 107.109 151.266V149.266ZM105.234 149.969L103.917 148.464C103.28 149.021 102.706 149.678 102.19 150.416L103.828 151.562L105.467 152.709C105.825 152.197 106.189 151.791 106.551 151.474L105.234 149.969ZM103.828 151.562L105.785 151.148L104.613 145.617L102.656 146.031L100.7 146.446L101.872 151.977L103.828 151.562ZM102.656 146.031L104.393 147.024C104.995 145.97 105.793 145.096 106.803 144.388L105.656 142.75L104.509 141.112C103.02 142.154 101.818 143.468 100.92 145.039L102.656 146.031ZM105.656 142.75L106.811 144.383C107.749 143.719 108.782 143.391 109.969 143.391V141.391V139.391C107.968 139.391 106.126 139.968 104.501 141.117L105.656 142.75ZM109.969 141.391V143.391C111.274 143.391 112.348 143.688 113.252 144.231L114.281 142.516L115.31 140.801C113.715 139.843 111.914 139.391 109.969 139.391V141.391ZM114.281 142.516L113.284 144.249C114.135 144.738 114.84 145.5 115.376 146.645L117.188 145.797L118.999 144.949C118.16 143.157 116.928 141.73 115.278 140.782L114.281 142.516ZM117.188 145.797L115.391 146.676C115.94 147.798 116.266 149.29 116.266 151.234H118.266H120.266C120.266 148.866 119.872 146.733 118.984 144.918L117.188 145.797ZM118.266 151.234H116.266V166H118.266H120.266V151.234H118.266ZM118.266 166V164H110.156V166V168H118.266V166ZM81.5156 166H83.5156V142.094H81.5156H79.5156V166H81.5156ZM81.5156 142.094V144.094H89.5781V142.094V140.094H81.5156V142.094ZM89.5781 142.094H87.5781V166H89.5781H91.5781V142.094H89.5781ZM89.5781 166V164H81.5156V166V168H89.5781V166ZM95.8125 166H97.8125V152.5H95.8125H93.8125V166H95.8125ZM95.8125 152.5H97.8125C97.8125 151.02 97.4232 149.427 96.075 148.416L94.875 150.016L93.675 151.616C93.6443 151.593 93.6666 151.587 93.7069 151.694C93.7544 151.82 93.8125 152.07 93.8125 152.5H95.8125ZM94.875 150.016L96.1633 148.486C95.191 147.667 94.0256 147.266 92.7656 147.266V149.266V151.266C93.1306 151.266 93.3715 151.364 93.5867 151.545L94.875 150.016ZM92.7656 149.266V147.266C91.566 147.266 90.4597 147.675 89.5696 148.51L90.9375 149.969L92.3054 151.428C92.4153 151.325 92.5277 151.266 92.7656 151.266V149.266ZM90.9375 149.969L89.5729 148.507C88.985 149.055 88.4426 149.697 87.9397 150.416L89.5781 151.562L91.2166 152.709C91.5887 152.178 91.9525 151.757 92.3021 151.431L90.9375 149.969ZM89.5781 151.562H91.5781V145.188H89.5781H87.5781V151.562H89.5781ZM89.5781 145.188L91.1956 146.364C91.6502 145.739 92.1118 145.18 92.579 144.686L91.125 143.312L89.671 141.939C89.0757 142.57 88.506 143.261 87.9607 144.011L89.5781 145.188ZM91.125 143.312L92.6155 144.646C92.9848 144.233 93.3939 143.922 93.8475 143.695L92.9531 141.906L92.0587 140.117C91.1373 140.578 90.3277 141.204 89.6345 141.979L91.125 143.312ZM92.9531 141.906L93.816 143.711C94.1911 143.531 94.7662 143.391 95.625 143.391V141.391V139.391C94.3588 139.391 93.1526 139.594 92.0902 140.102L92.9531 141.906ZM95.625 141.391V143.391C97.123 143.391 98.3257 143.782 99.3237 144.508L100.5 142.891L101.676 141.273C99.9243 139.999 97.877 139.391 95.625 139.391V141.391ZM100.5 142.891L99.3237 144.508C100.276 145.201 101.023 146.261 101.486 147.854L103.406 147.297L105.327 146.739C104.665 144.458 103.474 142.58 101.676 141.273L100.5 142.891ZM103.406 147.297L101.43 147.603L101.945 150.931L103.922 150.625L105.898 150.319L105.383 146.991L103.406 147.297ZM103.922 150.625H101.922V166H103.922H105.922V150.625H103.922ZM103.922 166V164H95.8125V166V168H103.922V166ZM127.078 137.031L125.687 138.468L125.698 138.479L125.71 138.49L127.078 137.031ZM133.078 129.344L132.07 131.071L132.086 131.08L132.101 131.089L133.078 129.344ZM134.953 131.125L133.257 132.185L133.267 132.201L133.278 132.218L134.953 131.125ZM133.078 137.781L132.101 136.036L132.086 136.045L132.07 136.054L133.078 137.781ZM127.312 166H125.312V168H127.312V166ZM127.312 142.094V140.094H125.312V142.094H127.312ZM135.375 142.094H137.375V140.094H135.375V142.094ZM135.375 166V168H137.375V166H135.375ZM123.422 148.656H121.422V150.656H123.422V148.656ZM123.422 142.094V140.094H121.422V142.094H123.422ZM135.375 142.094H137.375V140.094H135.375V142.094ZM135.375 148.656V150.656H137.375V148.656H135.375ZM130.641 138.438V136.438C129.772 136.438 129.074 136.161 128.446 135.572L127.078 137.031L125.71 138.49C127.082 139.777 128.759 140.438 130.641 140.438V138.438ZM127.078 137.031L128.47 135.595C127.843 134.987 127.578 134.343 127.578 133.562H125.578H123.578C123.578 135.469 124.313 137.138 125.687 138.468L127.078 137.031ZM125.578 133.562H127.578C127.578 132.738 127.851 132.111 128.446 131.553L127.078 130.094L125.71 128.635C124.306 129.952 123.578 131.637 123.578 133.562H125.578ZM127.078 130.094L128.446 131.553C129.074 130.964 129.772 130.688 130.641 130.688V128.688V126.688C128.759 126.688 127.082 127.348 125.71 128.635L127.078 130.094ZM130.641 128.688V130.688C131.164 130.688 131.629 130.814 132.07 131.071L133.078 129.344L134.086 127.616C133.028 126.999 131.867 126.688 130.641 126.688V128.688ZM133.078 129.344L132.101 131.089C132.593 131.364 132.969 131.724 133.257 132.185L134.953 131.125L136.649 130.065C136 129.026 135.126 128.198 134.055 127.599L133.078 129.344ZM134.953 131.125L133.278 132.218C133.523 132.593 133.656 133.021 133.656 133.562H135.656H137.656C137.656 132.291 137.321 131.095 136.628 130.032L134.953 131.125ZM135.656 133.562H133.656C133.656 134.058 133.529 134.504 133.257 134.94L134.953 136L136.649 137.06C137.314 135.996 137.656 134.817 137.656 133.562H135.656ZM134.953 136L133.257 134.94C132.969 135.401 132.593 135.761 132.101 136.036L133.078 137.781L134.055 139.526C135.126 138.927 136 138.099 136.649 137.06L134.953 136ZM133.078 137.781L132.07 136.054C131.629 136.311 131.164 136.438 130.641 136.438V138.438V140.438C131.867 140.438 133.028 140.126 134.086 139.509L133.078 137.781ZM127.312 166H129.312V142.094H127.312H125.312V166H127.312ZM127.312 142.094V144.094H135.375V142.094V140.094H127.312V142.094ZM135.375 142.094H133.375V166H135.375H137.375V142.094H135.375ZM135.375 166V164H127.312V166V168H135.375V166ZM123.422 148.656H125.422V142.094H123.422H121.422V148.656H123.422ZM123.422 142.094V144.094H135.375V142.094V140.094H123.422V142.094ZM135.375 142.094H133.375V148.656H135.375H137.375V142.094H135.375ZM135.375 148.656V146.656H123.422V148.656V150.656H135.375V148.656ZM156.75 166H154.75V168H156.75V166ZM155.766 150.016L154.554 151.606L154.578 151.625L154.603 151.643L155.766 150.016ZM151.359 149.969L152.546 151.579L152.573 151.559L152.599 151.539L151.359 149.969ZM149.812 151.562H147.812V157.907L151.451 152.709L149.812 151.562ZM149.812 145.188L148.195 144.011L147.812 144.537V145.188H149.812ZM151.5 143.312L152.838 144.799L152.842 144.796L151.5 143.312ZM153.703 141.906L152.949 140.054L152.936 140.059L152.924 140.064L153.703 141.906ZM160.875 142.516L159.846 144.231L159.862 144.24L159.878 144.249L160.875 142.516ZM163.781 145.797L161.97 146.645L161.977 146.66L161.985 146.676L163.781 145.797ZM164.859 166V168H166.859V166H164.859ZM141.75 166H139.75V168H141.75V166ZM141.75 142.094V140.094H139.75V142.094H141.75ZM149.812 142.094H151.812V140.094H149.812V142.094ZM149.812 166V168H151.812V166H149.812ZM156.75 166H158.75V152.5H156.75H154.75V166H156.75ZM156.75 152.5H158.75C158.75 150.988 158.326 149.387 156.928 148.388L155.766 150.016L154.603 151.643C154.604 151.643 154.603 151.643 154.602 151.642C154.601 151.641 154.601 151.641 154.603 151.644C154.607 151.648 154.623 151.671 154.645 151.725C154.69 151.841 154.75 152.079 154.75 152.5H156.75ZM155.766 150.016L156.978 148.425C155.979 147.664 154.82 147.266 153.562 147.266V149.266V151.266C153.93 151.266 154.24 151.367 154.554 151.606L155.766 150.016ZM153.562 149.266V147.266C152.312 147.266 151.121 147.609 150.12 148.399L151.359 149.969L152.599 151.539C152.786 151.391 153.063 151.266 153.562 151.266V149.266ZM151.359 149.969L150.173 148.359C149.398 148.929 148.732 149.619 148.174 150.416L149.812 151.562L151.451 152.709C151.768 152.256 152.133 151.883 152.546 151.579L151.359 149.969ZM149.812 151.562H151.812V145.188H149.812H147.812V151.562H149.812ZM149.812 145.188L151.43 146.364C151.849 145.788 152.318 145.267 152.838 144.799L151.5 143.312L150.162 141.826C149.432 142.483 148.776 143.212 148.195 144.011L149.812 145.188ZM151.5 143.312L152.842 144.796C153.333 144.352 153.877 144.004 154.482 143.748L153.703 141.906L152.924 140.064C151.904 140.496 150.98 141.086 150.158 141.829L151.5 143.312ZM153.703 141.906L154.458 143.758C155.025 143.527 155.716 143.391 156.562 143.391V141.391V139.391C155.284 139.391 154.068 139.598 152.949 140.054L153.703 141.906ZM156.562 141.391V143.391C157.868 143.391 158.942 143.688 159.846 144.231L160.875 142.516L161.904 140.801C160.308 139.843 158.507 139.391 156.562 139.391V141.391ZM160.875 142.516L159.878 144.249C160.729 144.738 161.434 145.5 161.97 146.645L163.781 145.797L165.593 144.949C164.754 143.157 163.521 141.73 161.872 140.782L160.875 142.516ZM163.781 145.797L161.985 146.676C162.534 147.798 162.859 149.29 162.859 151.234H164.859H166.859C166.859 148.866 166.466 146.733 165.578 144.918L163.781 145.797ZM164.859 151.234H162.859V166H164.859H166.859V151.234H164.859ZM164.859 166V164H156.75V166V168H164.859V166ZM141.75 166H143.75V142.094H141.75H139.75V166H141.75ZM141.75 142.094V144.094H149.812V142.094V140.094H141.75V142.094ZM149.812 142.094H147.812V166H149.812H151.812V142.094H149.812ZM149.812 166V164H141.75V166V168H149.812V166Z" fill="#0B1215" mask="url(#path-13-outside-1_568_924)"/>
<defs>
<linearGradient id="paint0_linear_568_924" x1="121.733" y1="37.2647" x2="48.2034" y2="37.2647" gradientUnits="userSpaceOnUse">
<stop stop-color="white" stop-opacity="0.15"/>
<stop offset="0.34" stop-color="#DFA607" stop-opacity="0.5"/>
<stop offset="0.475" stop-color="#5E4500" stop-opacity="0.9"/>
<stop offset="0.655" stop-color="#DFA607" stop-opacity="0.5"/>
<stop offset="0.995" stop-color="white" stop-opacity="0.15"/>
</linearGradient>
<linearGradient id="paint1_linear_568_924" x1="119.125" y1="23.1579" x2="51.1931" y2="51.2964" gradientUnits="userSpaceOnUse">
<stop stop-color="white" stop-opacity="0.15"/>
<stop offset="0.34" stop-color="#DFA607" stop-opacity="0.5"/>
<stop offset="0.475" stop-color="#5E4500" stop-opacity="0.9"/>
<stop offset="0.655" stop-color="#DFA607" stop-opacity="0.5"/>
<stop offset="0.995" stop-color="white" stop-opacity="0.15"/>
</linearGradient>
<linearGradient id="paint2_linear_568_924" x1="118.743" y1="51.2952" x2="50.8104" y2="23.1568" gradientUnits="userSpaceOnUse">
<stop stop-color="white" stop-opacity="0.15"/>
<stop offset="0.34" stop-color="#DFA607" stop-opacity="0.5"/>
<stop offset="0.475" stop-color="#5E4500" stop-opacity="0.9"/>
<stop offset="0.655" stop-color="#DFA607" stop-opacity="0.5"/>
<stop offset="0.995" stop-color="white" stop-opacity="0.15"/>
</linearGradient>
<linearGradient id="paint3_linear_568_924" x1="85.468" y1="-0.000114441" x2="85.468" y2="73.5293" gradientUnits="userSpaceOnUse">
<stop stop-color="white" stop-opacity="0.15"/>
<stop offset="0.34" stop-color="#DFA607" stop-opacity="0.5"/>
<stop offset="0.475" stop-color="#5E4500" stop-opacity="0.9"/>
<stop offset="0.655" stop-color="#DFA607" stop-opacity="0.5"/>
<stop offset="0.995" stop-color="white" stop-opacity="0.15"/>
</linearGradient>
<linearGradient id="paint4_linear_568_924" x1="99.4996" y1="2.98949" x2="71.3611" y2="70.9218" gradientUnits="userSpaceOnUse">
<stop stop-color="white" stop-opacity="0.15"/>
<stop offset="0.34" stop-color="#DFA607" stop-opacity="0.5"/>
<stop offset="0.475" stop-color="#5E4500" stop-opacity="0.9"/>
<stop offset="0.655" stop-color="#DFA607" stop-opacity="0.5"/>
<stop offset="0.995" stop-color="white" stop-opacity="0.15"/>
</linearGradient>
<linearGradient id="paint5_linear_568_924" x1="98.5757" y1="70.9225" x2="70.4372" y2="2.99017" gradientUnits="userSpaceOnUse">
<stop stop-color="white" stop-opacity="0.15"/>
<stop offset="0.34" stop-color="#DFA607" stop-opacity="0.5"/>
<stop offset="0.475" stop-color="#5E4500" stop-opacity="0.9"/>
<stop offset="0.655" stop-color="#DFA607" stop-opacity="0.5"/>
<stop offset="0.995" stop-color="white" stop-opacity="0.15"/>
</linearGradient>
<linearGradient id="paint6_linear_568_924" x1="110.611" y1="63.1148" x2="58.6179" y2="11.1216" gradientUnits="userSpaceOnUse">
<stop stop-color="white" stop-opacity="0.15"/>
<stop offset="0.34" stop-color="#DFA607" stop-opacity="0.5"/>
<stop offset="0.475" stop-color="#5E4500" stop-opacity="0.9"/>
<stop offset="0.655" stop-color="#DFA607" stop-opacity="0.5"/>
<stop offset="0.995" stop-color="white" stop-opacity="0.15"/>
</linearGradient>
<linearGradient id="paint7_linear_568_924" x1="111.318" y1="11.1216" x2="59.325" y2="63.1148" gradientUnits="userSpaceOnUse">
<stop stop-color="white" stop-opacity="0.15"/>
<stop offset="0.34" stop-color="#DFA607" stop-opacity="0.5"/>
<stop offset="0.475" stop-color="#5E4500" stop-opacity="0.9"/>
<stop offset="0.655" stop-color="#DFA607" stop-opacity="0.5"/>
<stop offset="0.995" stop-color="white" stop-opacity="0.15"/>
</linearGradient>
</defs>
</svg>
