<svg width="51" height="76" viewBox="0 0 51 76" fill="none" xmlns="http://www.w3.org/2000/svg">
<line x1="5.06665" y1="17.4398" x2="40.1708" y2="17.4398" stroke="url(#paint0_linear_54_169)" stroke-width="0.5"/>
<line x1="6.30704" y1="24.1758" x2="38.7391" y2="10.742" stroke="url(#paint1_linear_54_169)" stroke-width="0.5"/>
<line x1="6.49838" y1="10.7419" x2="38.9304" y2="24.1757" stroke="url(#paint2_linear_54_169)" stroke-width="0.5"/>
<line x1="22.3688" y1="35.2419" x2="22.3688" y2="0.137745" stroke="url(#paint3_linear_54_169)" stroke-width="0.5"/>
<line x1="15.6709" y1="33.8101" x2="29.1047" y2="1.37804" stroke="url(#paint4_linear_54_169)" stroke-width="0.5"/>
<line x1="16.1328" y1="1.37808" x2="29.5666" y2="33.8101" stroke="url(#paint5_linear_54_169)" stroke-width="0.5"/>
<line x1="10.3843" y1="5.10179" x2="35.2067" y2="29.9242" stroke="url(#paint6_linear_54_169)" stroke-width="0.5"/>
<line x1="10.0307" y1="29.9243" x2="34.8532" y2="5.10188" stroke="url(#paint7_linear_54_169)" stroke-width="0.5"/>
<path d="M24.0605 17.2407L24.851 16.8177H23.6709L24.851 16.0606C22.0411 15.8952 20.7958 16.0304 20.2196 17.4077C17.9411 17.6778 17.4747 18.3464 17.0021 19.768C18.4687 19.0091 19.2087 19.0306 20.3755 19.9016C20.7557 20.3109 20.8449 20.5376 20.7874 20.9369C20.0296 23.7345 20.6175 25.2605 23.5039 27.9063C23.5192 28.7256 23.7067 29.207 24.3166 30.0995C25.1534 30.2538 25.4657 30.1267 25.5635 29.2757C26.0421 30.0963 26.3116 30.6036 26.7659 30.5226C27.7212 30.2928 27.9231 29.9858 27.9794 29.2757C29.4007 32.046 30.1895 34.205 31.6533 33.7846C33.6858 35.0255 33.6833 34.4908 32.1209 31.8586C36.4232 34.4414 34.4331 31.9776 30.6959 27.4165C31.6552 27.5504 31.6387 27.3358 30.2172 26.2252C31.1203 26.1484 31.4206 26.033 29.282 24.8892C31.4418 25.3345 28.5361 24.0431 27.1889 20.9369C25.1961 20.1465 25.6327 17.7647 24.0605 17.2407Z" fill="#0B1215"/>
<path d="M22.3794 18.0869C23.8474 18.9887 23.8474 17.6723 24.0605 17.2407M22.3794 18.0869C22.1167 17.1652 21.3997 17.0849 20.9544 17.8308C20.9317 18.2584 21.1169 18.4448 21.6892 18.7119M22.3794 18.0869L21.6892 18.7119M22.3794 18.0869C23.6709 18.9775 22.257 22.2345 20.7874 20.9369M24.0605 17.2407L24.851 16.8177H23.6709L24.851 16.0606C22.0411 15.8952 20.7958 16.0304 20.2196 17.4077C17.9411 17.6778 17.4747 18.3464 17.0021 19.768C18.4687 19.0091 19.2087 19.0306 20.3755 19.9016M24.0605 17.2407C25.6327 17.7647 25.1961 20.1465 27.1889 20.9369C28.5361 24.0431 31.4418 25.3345 29.282 24.8892C31.4206 26.033 31.1203 26.1484 30.2172 26.2252C31.6387 27.3358 31.6552 27.5504 30.6959 27.4165C34.4331 31.9776 36.4232 34.4414 32.1209 31.8586C33.6833 34.4908 33.6858 35.0255 31.6533 33.7846C30.1895 34.205 29.4007 32.046 27.9794 29.2757C27.9231 29.9857 27.7212 30.2928 26.7659 30.5226M20.3755 19.9016C21.5656 19.5153 21.3024 19.252 21.6892 18.7119M20.3755 19.9016C20.7557 20.3109 20.8449 20.5376 20.7874 20.9369M20.7874 20.9369C20.0296 23.7345 20.6175 25.2605 23.5039 27.9063C23.5192 28.7256 23.7067 29.207 24.3166 30.0995M24.3166 30.0995L22.591 32.4709M24.3166 30.0995C25.1534 30.2538 25.4657 30.1267 25.5635 29.2757C26.0421 30.0963 26.3116 30.6036 26.7659 30.5226M26.7659 30.5226L25.7973 33.0276" stroke="#E6AB07" stroke-width="0.75"/>
<path d="M5.69597 68.4612C4.46442 65.0797 4.59145 63.5749 6.81683 62.6481C5.88394 60.6121 6.25651 59.2986 7.64946 56.8197C7.41211 55.1444 7.51193 54.2256 8.48209 52.6566C6.92175 51.3034 6.34916 50.5573 7.64946 49.3261C6.98423 47.4158 7.34939 46.3157 8.48209 44.3303C10.7077 40.0108 12.1331 37.9402 15.1431 35.1714C14.1097 34.4602 14.5407 34.3485 15.9758 34.3388C10.9799 31.8411 26.7998 31.0084 35.1262 36.8366C36.675 38.092 36.8086 38.5099 35.1262 38.5019C36.5471 40.1392 35.9588 40.1673 33.4609 40.1673C37.8304 42.2417 40.4325 44.5684 39.2894 49.3261C43.116 52.8377 45.358 54.8322 43.4525 56.8197C45.1007 57.9753 45.998 58.6125 44.2852 58.485C45.8704 60.3164 46.5967 61.3078 45.9504 62.6481C47.4724 64.4845 48.7247 65.4306 48.4483 67.6439C50.1646 71.0123 50.4797 72.0161 49.2808 75.1377H30.963C31.3752 72.2253 31.8278 69.7549 33.461 66.8113C32.5588 64.4312 32.7215 62.9656 34.2936 60.1502C32.737 59.8332 32.4381 58.6196 32.6283 55.1545C30.1305 54.322 30.3484 51.7537 28.4652 50.9913C28.4652 50.1589 23.9615 48.7136 25.1347 46.8282C21.9604 46.6531 20.1336 48.0783 16.8084 52.6566C15.811 55.3448 15.0023 56.6883 12.6452 58.485C16.0831 63.197 16.8796 64.7282 17.641 66.8113C18.3426 69.3946 17.641 71.8072 15.9758 73.4725L17.6409 75.1377H7.64938C8.54726 74.0495 8.51281 72.6743 7.64949 71.8072C5.0341 72.1486 3.73316 72.0183 1.82108 70.9746C1.16096 70.0606 1.38944 69.5131 2.65371 68.4767C3.90209 68.3985 4.90847 68.3851 5.69597 68.4612Z" fill="#0B1215"/>
<path d="M5.69597 68.4612C4.46442 65.0797 4.59145 63.5749 6.81683 62.6481C5.88394 60.6121 6.25651 59.2986 7.64946 56.8197C7.41211 55.1444 7.51193 54.2256 8.48209 52.6566C6.92175 51.3034 6.34916 50.5573 7.64946 49.3261C6.98423 47.4158 7.34939 46.3157 8.48209 44.3303C10.7077 40.0108 12.1331 37.9402 15.1431 35.1714C14.1097 34.4602 14.5407 34.3485 15.9758 34.3388C10.9799 31.8411 26.7998 31.0084 35.1262 36.8366C36.675 38.092 36.8086 38.5099 35.1262 38.5019C36.5471 40.1392 35.9588 40.1673 33.4609 40.1673C37.8304 42.2417 40.4325 44.5684 39.2894 49.3261C43.116 52.8377 45.358 54.8322 43.4525 56.8197C45.1007 57.9753 45.998 58.6125 44.2852 58.485C45.8704 60.3164 46.5967 61.3078 45.9504 62.6481C47.4724 64.4845 48.7247 65.4306 48.4483 67.6439C50.1646 71.0123 50.4797 72.0161 49.2808 75.1377H30.963C31.3752 72.2253 31.8278 69.7549 33.461 66.8113C32.5588 64.4312 32.7215 62.9656 34.2936 60.1502C32.737 59.8332 32.4381 58.6196 32.6283 55.1545C30.1305 54.322 30.3484 51.7537 28.4652 50.9913C28.4652 50.1589 23.9615 48.7136 25.1347 46.8282C21.9604 46.6531 20.1336 48.0783 16.8084 52.6566C15.811 55.3448 15.0023 56.6883 12.6452 58.485C16.0831 63.197 16.8796 64.7282 17.641 66.8113C18.3426 69.3946 17.641 71.8072 15.9758 73.4725L17.6409 75.1377H2.6536M7.64949 71.8072C8.66392 68.8273 7.42987 68.1774 2.65371 68.4767C1.38944 69.5131 1.16096 70.0606 1.82108 70.9746C3.73316 72.0183 5.0341 72.1486 7.64949 71.8072ZM7.64949 71.8072C8.51281 72.6743 8.54726 74.0495 7.64938 75.1377H2.6536M2.6536 75.1377C-0.28984 73.8657 0.867187 72.4198 2.65371 71.3871" stroke="#A8A293"/>
<defs>
<linearGradient id="paint0_linear_54_169" x1="40.1708" y1="18.1899" x2="5.06665" y2="18.1898" gradientUnits="userSpaceOnUse">
<stop stop-color="white" stop-opacity="0.15"/>
<stop offset="0.34" stop-color="#DFA607" stop-opacity="0.5"/>
<stop offset="0.475" stop-color="#5E4500" stop-opacity="0.9"/>
<stop offset="0.655" stop-color="#DFA607" stop-opacity="0.5"/>
<stop offset="0.995" stop-color="white" stop-opacity="0.15"/>
</linearGradient>
<linearGradient id="paint1_linear_54_169" x1="39.0261" y1="11.4349" x2="6.59405" y2="24.8687" gradientUnits="userSpaceOnUse">
<stop stop-color="white" stop-opacity="0.15"/>
<stop offset="0.34" stop-color="#DFA607" stop-opacity="0.5"/>
<stop offset="0.475" stop-color="#5E4500" stop-opacity="0.9"/>
<stop offset="0.655" stop-color="#DFA607" stop-opacity="0.5"/>
<stop offset="0.995" stop-color="white" stop-opacity="0.15"/>
</linearGradient>
<linearGradient id="paint2_linear_54_169" x1="38.6434" y1="24.8686" x2="6.21137" y2="11.4348" gradientUnits="userSpaceOnUse">
<stop stop-color="white" stop-opacity="0.15"/>
<stop offset="0.34" stop-color="#DFA607" stop-opacity="0.5"/>
<stop offset="0.475" stop-color="#5E4500" stop-opacity="0.9"/>
<stop offset="0.655" stop-color="#DFA607" stop-opacity="0.5"/>
<stop offset="0.995" stop-color="white" stop-opacity="0.15"/>
</linearGradient>
<linearGradient id="paint3_linear_54_169" x1="23.1188" y1="0.137745" x2="23.1188" y2="35.2419" gradientUnits="userSpaceOnUse">
<stop stop-color="white" stop-opacity="0.15"/>
<stop offset="0.34" stop-color="#DFA607" stop-opacity="0.5"/>
<stop offset="0.475" stop-color="#5E4500" stop-opacity="0.9"/>
<stop offset="0.655" stop-color="#DFA607" stop-opacity="0.5"/>
<stop offset="0.995" stop-color="white" stop-opacity="0.15"/>
</linearGradient>
<linearGradient id="paint4_linear_54_169" x1="29.7976" y1="1.66505" x2="16.3638" y2="34.0971" gradientUnits="userSpaceOnUse">
<stop stop-color="white" stop-opacity="0.15"/>
<stop offset="0.34" stop-color="#DFA607" stop-opacity="0.5"/>
<stop offset="0.475" stop-color="#5E4500" stop-opacity="0.9"/>
<stop offset="0.655" stop-color="#DFA607" stop-opacity="0.5"/>
<stop offset="0.995" stop-color="white" stop-opacity="0.15"/>
</linearGradient>
<linearGradient id="paint5_linear_54_169" x1="28.8737" y1="34.0971" x2="15.4399" y2="1.6651" gradientUnits="userSpaceOnUse">
<stop stop-color="white" stop-opacity="0.15"/>
<stop offset="0.34" stop-color="#DFA607" stop-opacity="0.5"/>
<stop offset="0.475" stop-color="#5E4500" stop-opacity="0.9"/>
<stop offset="0.655" stop-color="#DFA607" stop-opacity="0.5"/>
<stop offset="0.995" stop-color="white" stop-opacity="0.15"/>
</linearGradient>
<linearGradient id="paint6_linear_54_169" x1="34.6764" y1="30.4545" x2="9.85397" y2="5.63212" gradientUnits="userSpaceOnUse">
<stop stop-color="white" stop-opacity="0.15"/>
<stop offset="0.34" stop-color="#DFA607" stop-opacity="0.5"/>
<stop offset="0.475" stop-color="#5E4500" stop-opacity="0.9"/>
<stop offset="0.655" stop-color="#DFA607" stop-opacity="0.5"/>
<stop offset="0.995" stop-color="white" stop-opacity="0.15"/>
</linearGradient>
<linearGradient id="paint7_linear_54_169" x1="35.3835" y1="5.63221" x2="10.5611" y2="30.4546" gradientUnits="userSpaceOnUse">
<stop stop-color="white" stop-opacity="0.15"/>
<stop offset="0.34" stop-color="#DFA607" stop-opacity="0.5"/>
<stop offset="0.475" stop-color="#5E4500" stop-opacity="0.9"/>
<stop offset="0.655" stop-color="#DFA607" stop-opacity="0.5"/>
<stop offset="0.995" stop-color="white" stop-opacity="0.15"/>
</linearGradient>
</defs>
</svg>
