<svg width="30" height="22" viewBox="0 0 30 22" fill="none" xmlns="http://www.w3.org/2000/svg">
<path d="M3.09777 21.1377V13.4342C-0.470908 13.4342 -0.471066 1.87857 1.90807 12.1502C2.50335 12.7919 2.50335 12.7919 3.09777 12.1502C1.9083 0.594648 5.47717 0.594645 4.28747 13.4342C4.88275 14.0758 4.88275 14.0758 5.47717 13.4342C7.8568 3.16249 9.04651 14.7178 4.28747 14.7181V21.1377H3.09777Z" fill="#0B1215" stroke="#0B1215" stroke-width="0.5"/>
<path d="M14.4573 21.1377V15.6352C18.026 15.6352 18.0261 7.38118 15.647 14.7181C15.0517 15.1764 15.0517 15.1764 14.4573 14.7181C15.6468 6.46409 12.0779 6.46409 13.2676 15.6352C12.6723 16.0935 12.6723 16.0935 12.0779 15.6352C9.69825 8.29827 8.50855 16.5521 13.2676 16.5523V21.1377H14.4573Z" fill="#0B1215" stroke="#0B1215" stroke-width="0.5"/>
<path d="M24.4436 21.1377V12.3336C30.1535 12.3336 30.1537 -0.872734 26.3471 10.8663C25.3946 11.5997 25.3946 11.5997 24.4436 10.8663C26.3467 -2.34007 20.6365 -2.34008 22.54 12.3336C21.5876 13.067 21.5876 13.067 20.6365 12.3336C16.8291 0.594607 14.9256 13.8007 22.54 13.801V21.1377H24.4436Z" fill="#0B1215" stroke="#0B1215" stroke-width="0.5"/>
</svg>
