<svg width="41" height="75" viewBox="0 0 41 75" fill="none" xmlns="http://www.w3.org/2000/svg">
<line x1="0.377441" y1="17.4387" x2="35.7548" y2="17.4387" stroke="url(#paint0_linear_280_2397)" stroke-width="0.5"/>
<line x1="1.62821" y1="24.2269" x2="34.3126" y2="10.6886" stroke="url(#paint1_linear_280_2397)" stroke-width="0.5"/>
<line x1="1.81955" y1="10.6885" x2="34.504" y2="24.2269" stroke="url(#paint2_linear_280_2397)" stroke-width="0.5"/>
<line x1="17.8162" y1="35.3774" x2="17.8162" y2="2.28882e-05" stroke="url(#paint3_linear_280_2397)" stroke-width="0.5"/>
<line x1="11.0659" y1="33.9353" x2="24.6042" y2="1.25086" stroke="url(#paint4_linear_280_2397)" stroke-width="0.5"/>
<line x1="11.5278" y1="1.25083" x2="25.0662" y2="33.9352" stroke="url(#paint5_linear_280_2397)" stroke-width="0.5"/>
<line x1="5.73513" y1="5.00413" x2="30.7507" y2="30.0197" stroke="url(#paint6_linear_280_2397)" stroke-width="0.5"/>
<line x1="5.38157" y1="30.0196" x2="30.3971" y2="5.00407" stroke="url(#paint7_linear_280_2397)" stroke-width="0.5"/>
<path d="M18.8116 18.2266L19.6082 17.8003H18.4189L19.6082 17.0373C16.7765 16.8706 15.5215 17.0069 14.9408 18.3949C12.6446 18.6671 12.1746 19.3409 11.6983 20.7735C13.1763 20.0088 13.9221 20.0304 15.0979 20.9081C15.4811 21.3206 15.571 21.5491 15.513 21.9516C14.7493 24.7709 15.3418 26.3088 18.2506 28.9752C18.2661 29.8009 18.455 30.286 19.0697 31.1855C19.913 31.3409 20.2277 31.2129 20.3263 30.3552C20.8086 31.1822 21.0802 31.6935 21.538 31.6118C22.5008 31.3803 22.7043 31.0708 22.761 30.3552C24.1934 33.147 24.9883 35.3229 26.4635 34.8992C28.5118 36.1498 28.5092 35.6109 26.9348 32.9582C31.2705 35.5611 29.2649 33.0781 25.4986 28.4815C26.4654 28.6165 26.4487 28.4002 25.0162 27.281C25.9264 27.2036 26.2289 27.0873 24.0737 25.9346C26.2504 26.3834 23.322 25.0819 21.9644 21.9516C19.9561 21.155 20.3961 18.7546 18.8116 18.2266Z" fill="#0B1215"/>
<path d="M17.1174 19.0793C18.5969 19.9882 18.5969 18.6616 18.8116 18.2266M17.1174 19.0793C16.8527 18.1505 16.1301 18.0695 15.6813 18.8213C15.6585 19.2522 15.8451 19.4401 16.4218 19.7092M17.1174 19.0793L16.4218 19.7092M17.1174 19.0793C18.4189 19.9769 16.994 23.2592 15.513 21.9516M18.8116 18.2266L19.6082 17.8003H18.4189L19.6082 17.0373C16.7765 16.8706 15.5215 17.0069 14.9408 18.3949C12.6446 18.6671 12.1746 19.3409 11.6983 20.7735C13.1763 20.0088 13.9221 20.0304 15.0979 20.9081M18.8116 18.2266C20.3961 18.7546 19.9561 21.155 21.9644 21.9516C23.322 25.0819 26.2504 26.3834 24.0737 25.9346C26.2289 27.0873 25.9264 27.2036 25.0162 27.281C26.4487 28.4002 26.4654 28.6165 25.4986 28.4815C29.2649 33.0781 31.2705 35.5611 26.9348 32.9582C28.5092 35.6109 28.5118 36.1498 26.4635 34.8992C24.9883 35.3229 24.1934 33.147 22.761 30.3552C22.7043 31.0708 22.5008 31.3803 21.538 31.6118M15.0979 20.9081C16.2973 20.5189 16.032 20.2535 16.4218 19.7092M15.0979 20.9081C15.4811 21.3206 15.571 21.5491 15.513 21.9516M15.513 21.9516C14.7493 24.7709 15.3418 26.3088 18.2506 28.9752C18.2661 29.8009 18.455 30.286 19.0697 31.1855M19.0697 31.1855L17.3306 33.5753M19.0697 31.1855C19.913 31.3409 20.2277 31.2129 20.3263 30.3552C20.8086 31.1822 21.0802 31.6935 21.538 31.6118M21.538 31.6118L20.5619 34.1363" stroke="#E6AB07" stroke-width="0.75"/>
<path d="M7.58999 43.3002C6.97883 43.4578 6.46746 43.6463 6.03776 43.8799C5.27281 44.2957 4.76673 44.8546 4.41734 45.6371C4.1712 46.1884 4.00283 46.8507 3.87653 47.652C3.78321 48.2441 3.71284 48.9121 3.65103 49.6674C3.61319 50.1298 3.57856 50.6249 3.54382 51.1553C3.51878 51.5377 3.49368 51.9384 3.4673 52.3585C3.44055 52.7843 3.41248 53.23 3.38179 53.6966C5.61124 52.7026 7.44717 52.6231 11.6351 53.2268C11.652 53.0639 11.6684 52.9039 11.6845 52.7468C11.7172 52.4279 11.7482 52.1208 11.7776 51.825C11.808 51.5192 11.8366 51.2255 11.8633 50.9434C11.9114 50.4351 11.9534 49.9645 11.9887 49.5283C12.0482 48.794 12.0888 48.1574 12.1082 47.6033C12.1282 47.0299 12.1254 46.5448 12.0971 46.1314C12.058 45.5629 11.9707 45.1299 11.8277 44.7888C11.6135 44.2778 11.2746 43.9735 10.7869 43.7292C10.2976 43.4841 9.54728 43.3002 7.58999 43.3002Z" fill="#0B1215"/>
<path d="M7.23115 41.8296C7.37129 42.4039 7.88357 42.8917 7.58999 43.3002C9.54728 43.3002 10.2976 43.4841 10.7869 43.7292C10.7869 43.3002 11.3415 43.1981 12.0592 42.9939C10.7869 42.0543 9.90612 41.8296 7.23115 41.8296Z" fill="#0B1215"/>
<path d="M9.80827 69.9959C10.4322 69.0157 11.0503 68.9402 12.5485 69.5057C14.6698 67.9586 15.4097 67.0701 14.0491 65.3594C13.71 65.2121 13.4189 65.0527 13.1698 64.8818C12.16 64.1888 11.8405 63.3057 11.8157 62.2642C11.8023 61.6989 11.8757 61.0869 11.9727 60.4334C12.0206 60.1102 12.0743 59.7769 12.1262 59.434C12.2193 58.8175 12.3064 58.1702 12.343 57.4955C12.3588 57.2033 12.3651 56.906 12.3584 56.6038C12.3481 56.143 12.3074 55.6709 12.2235 55.1887C12.1126 54.5518 11.9263 53.897 11.6351 53.2268C7.44717 52.6231 5.61124 52.7026 3.38179 53.6966C3.31786 54.6685 3.26009 55.6415 3.22982 56.6038C3.20528 57.3837 3.19881 58.1566 3.22178 58.916C3.23522 59.3607 3.25876 59.8007 3.29467 60.2349C3.352 60.9281 3.44087 61.6062 3.57056 62.2642C3.61759 62.5028 3.66999 62.7387 3.7282 62.9717C3.91292 63.7112 4.15616 64.4214 4.47206 65.0944C4.61779 65.4048 4.77898 65.7073 4.95702 66.0012C5.21403 66.4254 5.50616 66.8314 5.83758 67.217C6.36317 67.8285 6.98759 68.3885 7.7275 68.8878C7.86762 68.9823 8.01189 69.0747 8.16041 69.1648C8.54936 69.4008 8.96751 69.6215 9.41687 69.8256C9.54479 69.8837 9.67524 69.9405 9.80827 69.9959Z" fill="#0B1215"/>
<path d="M17.2787 32.9243C17.4229 33.3351 17.5695 33.5518 18.1921 33.8638C19.3076 33.8525 19.9349 33.8086 21.0628 33.537C21.7654 33.3478 21.9089 33.1112 22.1067 32.6588C20.2236 32.4938 19.1673 32.4598 17.2787 32.9243Z" fill="#0B1215"/>
<path d="M18.1921 33.8638C18.0949 34.1809 18.0054 34.4804 17.9237 34.7669C17.7576 35.3489 17.6231 35.8773 17.519 36.3903C17.4297 36.8304 17.3628 37.2591 17.3175 37.7003C17.2774 38.0899 17.2543 38.4894 17.2476 38.9151C17.2406 39.3554 17.2511 39.8238 17.2787 40.3386C19.6035 39.4054 20.8795 39.37 23.118 39.971C23.1071 39.8525 23.0962 39.7365 23.0853 39.6227C23.0364 39.1129 22.9859 38.6473 22.9215 38.2076C22.8927 38.0101 22.861 37.8179 22.8254 37.6293C22.7655 37.3116 22.6945 37.0041 22.6072 36.6989C22.43 36.0795 22.1853 35.4695 21.829 34.8032C21.6165 34.4058 21.3642 33.9884 21.0628 33.537C19.9349 33.8086 19.3076 33.8525 18.1921 33.8638Z" fill="#0B1215"/>
<path d="M17.2787 40.3386C17.2086 40.525 17.1432 40.7067 17.082 40.8841C16.8898 41.4418 16.7405 41.9581 16.6275 42.4528C16.5602 42.7475 16.5058 43.0346 16.463 43.3182C16.4153 43.6345 16.3819 43.9465 16.361 44.26C16.3208 44.8641 16.3269 45.4741 16.366 46.1314C16.3899 46.5351 16.4263 46.9566 16.472 47.4057C16.4987 47.668 16.5286 47.9397 16.561 48.2227C19.2316 46.4201 20.7647 46.1566 23.5747 47.2627C23.8763 46.3486 24.0895 45.5643 24.1833 44.8107C24.2228 44.4934 24.2412 44.1817 24.2361 43.8679C24.2286 43.4082 24.1707 42.9443 24.0551 42.4528C23.9508 42.0092 23.7994 41.5433 23.5958 41.0377C23.4602 40.7013 23.3015 40.3474 23.118 39.971C20.8795 39.37 19.6035 39.4054 17.2787 40.3386Z" fill="#0B1215"/>
<path d="M16.561 48.2227C16.3945 48.8461 16.2661 49.4251 16.1686 49.9724C16.1228 50.2298 16.0837 50.4803 16.0508 50.725C15.974 51.2946 15.9301 51.8335 15.9095 52.3585C15.8907 52.8375 15.8913 53.305 15.904 53.7736C15.9215 54.4187 15.9619 55.066 16.0063 55.749C16.0387 56.2466 16.0732 56.7631 16.1025 57.3113C16.1147 57.5413 16.1261 57.7768 16.136 58.0189C16.1513 58.3928 16.1631 58.7823 16.1695 59.191C20.4902 57.8116 21.8437 57.8982 25.4341 59.0276C25.4666 58.7214 25.4956 58.4242 25.521 58.1348C25.5891 57.3582 25.6307 56.6383 25.6406 55.9535C25.6472 55.4999 25.64 55.0618 25.6174 54.6328C25.5884 54.0814 25.5341 53.5452 25.4514 53.0108C25.3457 52.3279 25.1936 51.648 24.9887 50.9434C24.8553 50.4847 24.6995 50.0156 24.5195 49.5283C24.3215 48.9922 24.0941 48.4341 23.8351 47.8439C23.7516 47.6536 23.6648 47.46 23.5747 47.2627C20.7647 46.1566 19.2316 46.4201 16.561 48.2227Z" fill="#0B1215"/>
<path d="M12.5485 69.5057C12.4345 69.957 12.336 70.3671 12.2498 70.7547C12.1397 71.2499 12.0495 71.7085 11.9725 72.1698C11.9334 72.4033 11.8978 72.6374 11.8645 72.8774C11.7931 73.393 11.733 73.9355 11.6751 74.5554C11.6617 74.6992 11.6484 74.8472 11.6351 75H27.8155C27.8252 74.9537 27.8346 74.9079 27.8437 74.8627C27.997 74.0983 28.0606 73.4886 28.0525 72.8774C28.0492 72.6321 28.0344 72.3867 28.0092 72.1308C27.9693 71.7243 27.9031 71.2917 27.8155 70.7924C25.8477 68.4577 25.3366 67.0599 26.9021 64.1951C26.9657 63.0508 26.925 62.1917 26.6903 61.3821C26.5406 60.8658 26.312 60.3697 25.9811 59.8325C25.823 59.5758 25.6415 59.3097 25.4341 59.0276C21.8437 57.8982 20.4902 57.8116 16.1695 59.191C16.0156 59.5488 15.8571 59.8902 15.6994 60.2218C15.3742 60.9056 15.0521 61.5472 14.7798 62.2031C14.6334 62.5556 14.5014 62.9123 14.3909 63.2818C14.2 63.9207 14.0736 64.5982 14.0491 65.3594C15.4097 67.0701 14.6698 67.9586 12.5485 69.5057Z" fill="#0B1215"/>
<path d="M29.7076 60.3144C29.6529 60.6327 29.5975 60.9278 29.5388 61.201C29.2823 62.3942 28.9621 63.1693 28.3593 63.6422C27.9938 63.9291 27.5243 64.1047 26.9021 64.1951C25.3366 67.0599 25.8477 68.4577 27.8155 70.7924C29.486 70.4 29.9531 70.7296 30.3274 71.8545C30.3691 71.8299 30.4107 71.8053 30.452 71.7808C30.6474 71.6646 30.8378 71.5492 31.0231 71.434C31.3085 71.2568 31.5821 71.0803 31.8446 70.9031C32.3688 70.5492 32.8488 70.1924 33.2897 69.8207C33.633 69.5313 33.9526 69.2328 34.2509 68.9198C34.4823 68.677 34.7009 68.4254 34.9079 68.1623C35.3225 67.6354 35.6905 67.0625 36.0209 66.4227C36.1459 66.1806 36.2656 65.9288 36.3804 65.6663C36.5399 65.3017 36.6899 64.9163 36.8319 64.5071C36.986 64.063 37.1306 63.5907 37.2674 63.0865C37.3189 62.8966 37.3693 62.702 37.4187 62.5028C37.5127 62.1237 37.603 61.7275 37.6902 61.3127C37.7266 61.1398 37.7624 60.9636 37.7977 60.7841C35.0884 59.4737 33.2756 59.4747 29.7076 60.3144Z" fill="#0B1215"/>
<path d="M32.9045 51.0005C32.1827 51.1979 31.6211 51.5212 31.1848 52.0012C30.8166 52.4064 30.5377 52.9233 30.3272 53.5704C30.2757 53.7289 30.2283 53.8952 30.1846 54.0695C30.0142 54.7506 29.9018 55.5549 29.829 56.4987C29.8089 56.7589 29.7919 57.0296 29.7775 57.3113C29.7547 57.7554 29.7385 58.2267 29.7274 58.7264C29.7162 59.2267 29.7101 59.7556 29.7076 60.3144C33.2756 59.4747 35.0884 59.4737 37.7977 60.7841C37.8638 60.4269 37.9262 60.0813 37.9847 59.747C38.0722 59.2478 38.1511 58.7738 38.2207 58.3238C38.2802 57.9398 38.3329 57.5734 38.3785 57.2238C38.4402 56.7509 38.4888 56.3089 38.5233 55.8962C38.5666 55.3798 38.5878 54.9091 38.5849 54.4811C38.5823 54.0786 38.5581 53.7137 38.5112 53.384C38.4559 52.9947 38.3686 52.6543 38.2466 52.3585C38.0643 51.9166 37.8046 51.5743 37.4583 51.3171C37.1446 51.0841 36.7598 50.9208 36.2971 50.8167C34.9786 51.07 34.2373 51.1536 32.9045 51.0005Z" fill="#0B1215"/>
<path d="M31.5018 49.8363C31.7142 50.325 31.9834 50.5838 32.9045 51.0005C34.2373 51.1536 34.9786 51.07 36.2971 50.8167C36.7596 50.5521 36.9437 50.3793 37.1779 50.0405C35.1292 49.3805 33.8681 49.3987 31.5018 49.8363Z" fill="#0B1215"/>
<path d="M12.5485 69.5057C11.0503 68.9402 10.4322 69.0157 9.80827 69.9959C9.67524 69.9405 9.54479 69.8837 9.41687 69.8256M12.5485 69.5057C14.6698 67.9586 15.4097 67.0701 14.0491 65.3594M12.5485 69.5057C12.4345 69.957 12.336 70.3671 12.2498 70.7547M3.38179 53.6966C5.61124 52.7026 7.44717 52.6231 11.6351 53.2268M3.38179 53.6966C3.41248 53.23 3.44055 52.7843 3.4673 52.3585M3.38179 53.6966H2.50003M3.38179 53.6966C3.31786 54.6685 3.26009 55.6415 3.22982 56.6038M7.58999 43.3002C7.88357 42.8917 7.37129 42.4039 7.23115 41.8296C9.90612 41.8296 10.7869 42.0543 12.0592 42.9939C11.3415 43.1981 10.7869 43.3002 10.7869 43.7292M7.58999 43.3002C9.54728 43.3002 10.2976 43.4841 10.7869 43.7292M7.58999 43.3002C6.97883 43.4578 6.46746 43.6463 6.03776 43.8799M10.7869 43.7292C11.2746 43.9735 11.6135 44.2778 11.8277 44.7888M11.6351 53.2268C11.652 53.0639 11.6684 52.9039 11.6845 52.7468M11.6351 53.2268C11.9263 53.897 12.1126 54.5518 12.2235 55.1887M14.0491 65.3594C13.71 65.2121 13.4189 65.0527 13.1698 64.8818M14.0491 65.3594C14.0736 64.5982 14.2 63.9207 14.3909 63.2818M16.1695 59.191C20.4902 57.8116 21.8437 57.8982 25.4341 59.0276M16.1695 59.191C16.0156 59.5488 15.8571 59.8902 15.6994 60.2218M16.1695 59.191C16.1631 58.7823 16.1513 58.3928 16.136 58.0189M16.561 48.2227C19.2316 46.4201 20.7647 46.1566 23.5747 47.2627M16.561 48.2227C16.3945 48.8461 16.2661 49.4251 16.1686 49.9724M16.561 48.2227C16.5286 47.9397 16.4987 47.668 16.472 47.4057M17.2787 40.3386C19.6035 39.4054 20.8795 39.37 23.118 39.971M17.2787 40.3386C17.2086 40.525 17.1432 40.7067 17.082 40.8841M17.2787 40.3386C17.2511 39.8238 17.2406 39.3554 17.2476 38.9151M18.1921 33.8638C17.5695 33.5518 17.4229 33.3351 17.2787 32.9243C19.1673 32.4598 20.2236 32.4938 22.1067 32.6588C21.9089 33.1112 21.7654 33.3478 21.0628 33.537M18.1921 33.8638C19.3076 33.8525 19.9349 33.8086 21.0628 33.537M18.1921 33.8638C18.0949 34.1809 18.0054 34.4804 17.9237 34.7669M21.0628 33.537C21.3642 33.9884 21.6165 34.4058 21.829 34.8032M23.118 39.971C23.1071 39.8525 23.0962 39.7365 23.0853 39.6227M23.118 39.971C23.3015 40.3474 23.4602 40.7013 23.5958 41.0377M23.5747 47.2627C23.8763 46.3486 24.0895 45.5643 24.1833 44.8107M23.5747 47.2627C23.6648 47.46 23.7516 47.6536 23.8351 47.8439M25.4341 59.0276C25.4666 58.7214 25.4956 58.4242 25.521 58.1348M25.4341 59.0276C25.6415 59.3097 25.823 59.5758 25.9811 59.8325M26.9021 64.1951C25.3366 67.0599 25.8477 68.4577 27.8155 70.7924M26.9021 64.1951C26.9657 63.0508 26.925 62.1917 26.6903 61.3821M26.9021 64.1951C27.5243 64.1047 27.9938 63.9291 28.3593 63.6422M29.7076 60.3144C33.2756 59.4747 35.0884 59.4737 37.7977 60.7841M29.7076 60.3144C29.6529 60.6327 29.5975 60.9278 29.5388 61.201M29.7076 60.3144C29.7101 59.7556 29.7162 59.2267 29.7274 58.7264M32.9045 51.0005C31.9834 50.5838 31.7142 50.325 31.5018 49.8363C33.8681 49.3987 35.1292 49.3805 37.1779 50.0405C36.9437 50.3793 36.7596 50.5521 36.2971 50.8167M32.9045 51.0005C34.2373 51.1536 34.9786 51.07 36.2971 50.8167M32.9045 51.0005C32.1827 51.1979 31.6211 51.5212 31.1848 52.0012M36.2971 50.8167C36.7598 50.9208 37.1446 51.0841 37.4583 51.3171M37.7977 60.7841C37.8638 60.4269 37.9262 60.0813 37.9847 59.747M37.7977 60.7841C37.7624 60.9636 37.7266 61.1398 37.6902 61.3127M27.8155 70.7924C29.486 70.4 29.9531 70.7296 30.3274 71.8545C30.3691 71.8299 30.4107 71.8053 30.452 71.7808M27.8155 70.7924C27.9031 71.2917 27.9693 71.7243 28.0092 72.1308M4.62267 42.4528L6.03776 43.8799M6.03776 43.8799C5.27281 44.2957 4.76673 44.8546 4.41734 45.6371M3.20757 45.283L4.41734 45.6371M4.41734 45.6371C4.1712 46.1884 4.00283 46.8507 3.87653 47.652M3.20757 47.4057L3.87653 47.652M3.87653 47.652C3.78321 48.2441 3.71284 48.9121 3.65103 49.6674M2.50003 49.5283L3.65103 49.6674M3.65103 49.6674C3.61319 50.1298 3.57856 50.6249 3.54382 51.1553M2.50003 50.9434L3.54382 51.1553M3.54382 51.1553C3.51878 51.5377 3.49368 51.9384 3.4673 52.3585M2.50003 52.3585H3.4673M2.50003 55.1887H3.20757M1.79248 56.6038H3.22982M3.22982 56.6038C3.20528 57.3837 3.19881 58.1566 3.22178 58.916M1.79248 58.7264L3.22178 58.916M3.22178 58.916C3.23522 59.3607 3.25876 59.8007 3.29467 60.2349M1.79248 60.8491L3.29467 60.2349M3.29467 60.2349C3.352 60.9281 3.44087 61.6062 3.57056 62.2642M2.50003 62.2642H3.57056M3.57056 62.2642C3.61759 62.5028 3.66999 62.7387 3.7282 62.9717M3.20757 63.6793L3.7282 62.9717M3.7282 62.9717C3.91292 63.7112 4.15616 64.4214 4.47206 65.0944M3.38179 65.0944H4.47206M4.47206 65.0944C4.61779 65.4048 4.77898 65.7073 4.95702 66.0012M4.62267 66.5094L4.95702 66.0012M4.95702 66.0012C5.21403 66.4254 5.50616 66.8314 5.83758 67.217M5.33022 67.9245L5.83758 67.217M5.83758 67.217C6.36317 67.8285 6.98759 68.3885 7.7275 68.8878M6.74531 69.3396L7.7275 68.8878M7.7275 68.8878C7.86762 68.9823 8.01189 69.0747 8.16041 69.1648M8.16041 70.0472V69.1648M8.16041 69.1648C8.54936 69.4008 8.96751 69.6215 9.41687 69.8256M9.5755 70.7547L9.41687 69.8256M11.6981 70.7547H12.2498M12.2498 70.7547C12.1397 71.2499 12.0495 71.7085 11.9725 72.1698M10.9906 72.1698H11.9725M11.9725 72.1698C11.9334 72.4033 11.8978 72.6374 11.8645 72.8774M10.9906 73.5849L11.8645 72.8774M11.8645 72.8774C11.7931 73.393 11.733 73.9355 11.6751 74.5554M10.9906 74.2925L11.6751 74.5554M11.6751 74.5554C11.6617 74.6992 11.6484 74.8472 11.6351 75H27.8155C27.8252 74.9537 27.8346 74.9079 27.8437 74.8627M11.8277 44.7888L13.1132 44.5755M11.8277 44.7888C11.9707 45.1299 12.058 45.5629 12.0971 46.1314M13.1132 45.9906L12.0971 46.1314M12.0971 46.1314C12.1254 46.5448 12.1282 47.0299 12.1082 47.6033M13.1132 48.1132L12.1082 47.6033M12.1082 47.6033C12.0888 48.1574 12.0482 48.794 11.9887 49.5283M13.1132 49.5283H11.9887M11.9887 49.5283C11.9534 49.9645 11.9114 50.4351 11.8633 50.9434M13.1132 50.2359L11.8633 50.9434M11.8633 50.9434C11.8366 51.2255 11.808 51.5192 11.7776 51.825M13.1132 52.3585L11.7776 51.825M11.7776 51.825C11.7482 52.1208 11.7172 52.4279 11.6845 52.7468M12.4057 53.7736L11.6845 52.7468M13.1132 55.1887H12.2235M12.2235 55.1887C12.3074 55.6709 12.3481 56.143 12.3584 56.6038M13.1132 56.6038H12.3584M12.3584 56.6038C12.3651 56.906 12.3588 57.2033 12.343 57.4955M13.1132 58.0189L12.343 57.4955M12.343 57.4955C12.3064 58.1702 12.2193 58.8175 12.1262 59.434M13.1132 59.434H12.1262M12.1262 59.434C12.0743 59.7769 12.0206 60.1102 11.9727 60.4334M13.1132 60.8491L11.9727 60.4334M11.9727 60.4334C11.8757 61.0869 11.8023 61.6989 11.8157 62.2642M13.1132 62.2642H11.8157M11.8157 62.2642C11.8405 63.3057 12.16 64.1888 13.1698 64.8818M13.1132 63.6793L13.1698 64.8818M13.8208 62.9717L14.3909 63.2818M14.3909 63.2818C14.5014 62.9123 14.6334 62.5556 14.7798 62.2031M14.5283 60.8491L14.7798 62.2031M14.7798 62.2031C15.0521 61.5472 15.3742 60.9056 15.6994 60.2218M14.5283 60.1415L15.6994 60.2218M14.5283 58.7264L16.136 58.0189M16.136 58.0189C16.1261 57.7768 16.1147 57.5413 16.1025 57.3113M14.5283 57.3113H16.1025M16.1025 57.3113C16.0732 56.7631 16.0387 56.2466 16.0063 55.749M14.5283 55.1887L16.0063 55.749M16.0063 55.749C15.9619 55.066 15.9215 54.4187 15.904 53.7736M14.5283 53.7736H15.904M15.904 53.7736C15.8913 53.305 15.8907 52.8375 15.9095 52.3585M15.2359 52.3585H15.9095M15.9095 52.3585C15.9301 51.8335 15.974 51.2946 16.0508 50.725M15.2359 50.9434L16.0508 50.725M16.0508 50.725C16.0837 50.4803 16.1228 50.2298 16.1686 49.9724M15.2359 49.5283L16.1686 49.9724M15.2359 48.1132L16.472 47.4057M16.472 47.4057C16.4263 46.9566 16.3899 46.5351 16.366 46.1314M15.2359 45.9906L16.366 46.1314M16.366 46.1314C16.3269 45.4741 16.3208 44.8641 16.361 44.26M15.2359 44.5755L16.361 44.26M16.361 44.26C16.3819 43.9465 16.4153 43.6345 16.463 43.3182M15.2359 43.1604L16.463 43.3182M16.463 43.3182C16.5058 43.0346 16.5602 42.7475 16.6275 42.4528M15.9434 41.7453L16.6275 42.4528M16.6275 42.4528C16.7405 41.9581 16.8898 41.4418 17.082 40.8841M15.9434 40.3302L17.082 40.8841M15.9434 38.9151H17.2476M17.2476 38.9151C17.2543 38.4894 17.2774 38.0899 17.3175 37.7003M16.463 37.8583L17.3175 37.7003M17.3175 37.7003C17.3628 37.2591 17.4297 36.8304 17.519 36.3903M16.651 36.0849L17.519 36.3903M17.519 36.3903C17.6231 35.8773 17.7576 35.3489 17.9237 34.7669M17.082 34.7669H17.9237M23.0189 34.6698L21.829 34.8032M21.829 34.8032C22.1853 35.4695 22.43 36.0795 22.6072 36.6989M23.7264 36.0849L22.6072 36.6989M22.6072 36.6989C22.6945 37.0041 22.7655 37.3116 22.8254 37.6293M24.434 36.7925L22.8254 37.6293M22.8254 37.6293C22.861 37.8179 22.8927 38.0101 22.9215 38.2076M23.7264 38.2076H22.9215M22.9215 38.2076C22.9859 38.6473 23.0364 39.1129 23.0853 39.6227M24.434 39.6227H23.0853M25.1415 41.0377H23.5958M23.5958 41.0377C23.7994 41.5433 23.9508 42.0092 24.0551 42.4528M25.8491 41.7453L24.0551 42.4528M24.0551 42.4528C24.1707 42.9443 24.2286 43.4082 24.2361 43.8679M25.1415 43.8679H24.2361M24.2361 43.8679C24.2412 44.1817 24.2228 44.4934 24.1833 44.8107M25.8491 45.283L24.1833 44.8107M25.1415 46.6981L23.8351 47.8439M23.8351 47.8439C24.0941 48.4341 24.3215 48.9922 24.5195 49.5283M25.8491 48.8208L24.5195 49.5283M24.5195 49.5283C24.6995 50.0156 24.8553 50.4847 24.9887 50.9434M26.5566 50.9434H24.9887M24.9887 50.9434C25.1936 51.648 25.3457 52.3279 25.4514 53.0108M26.5566 52.3585L25.4514 53.0108M25.4514 53.0108C25.5341 53.5452 25.5884 54.0814 25.6174 54.6328M27.2642 54.4811L25.6174 54.6328M25.6174 54.6328C25.64 55.0618 25.6472 55.4999 25.6406 55.9535M26.5566 56.6038L25.6406 55.9535M25.6406 55.9535C25.6307 56.6383 25.5891 57.3582 25.521 58.1348M27.2642 58.0189L25.521 58.1348M26.5566 59.434L25.9811 59.8325M25.9811 59.8325C26.312 60.3697 26.5406 60.8658 26.6903 61.3821M27.9717 60.8491L26.6903 61.3821M27.9717 62.2642L28.3593 63.6422M28.3593 63.6422C28.9621 63.1693 29.2823 62.3942 29.5388 61.201M28.6793 60.1415L29.5388 61.201M28.6793 58.7264H29.7274M29.7274 58.7264C29.7385 58.2267 29.7547 57.7554 29.7774 57.3113M27.9717 57.3113H29.7774M29.7774 57.3113C29.7919 57.0296 29.8089 56.7589 29.829 56.4987M28.6793 55.8962L29.829 56.4987M29.829 56.4987C29.9018 55.5549 30.0142 54.7506 30.1846 54.0695M28.6793 54.4811L30.1846 54.0695M30.1846 54.0695C30.2283 53.8952 30.2757 53.7289 30.3272 53.5704M28.6793 52.3585L30.3272 53.5704M30.3272 53.5704C30.5377 52.9233 30.8166 52.4064 31.1848 52.0012M30.3272 51.4717L31.1848 52.0012M38.3111 50.8167L37.4583 51.3171M37.4583 51.3171C37.8046 51.5743 38.0643 51.9166 38.2466 52.3585M39.2925 51.651L38.2466 52.3585M38.2466 52.3585C38.3686 52.6543 38.4559 52.9947 38.5112 53.384M40 53.066L38.5112 53.384M38.5112 53.384C38.5581 53.7137 38.5823 54.0786 38.5849 54.4811M39.2925 55.1887L38.5849 54.4811M38.5849 54.4811C38.5878 54.9091 38.5666 55.3798 38.5233 55.8962M39.2925 55.8962H38.5233M38.5233 55.8962C38.4888 56.3089 38.4402 56.7509 38.3785 57.2238M40 57.3113L38.3785 57.2238M38.3785 57.2238C38.3329 57.5734 38.2802 57.9398 38.2207 58.3238M39.2925 58.7264L38.2207 58.3238M38.2207 58.3238C38.1511 58.7738 38.0722 59.2478 37.9847 59.747M38.5849 60.1415L37.9847 59.747M38.5849 61.5566L37.6902 61.3127M37.6902 61.3127C37.603 61.7275 37.5127 62.1237 37.4187 62.5028M38.5849 62.9717L37.4187 62.5028M37.4187 62.5028C37.3693 62.702 37.3189 62.8966 37.2674 63.0865M37.9847 64.3146L37.2674 63.0865M37.2674 63.0865C37.1306 63.5907 36.986 64.063 36.8319 64.5071M37.8774 65.0944L36.8319 64.5071M36.8319 64.5071C36.6899 64.9163 36.5399 65.3017 36.3804 65.6663M37.1698 65.8019L36.3804 65.6663M36.3804 65.6663C36.2656 65.9288 36.1459 66.1806 36.0209 66.4227M36.3804 67.3492L36.0209 66.4227M36.0209 66.4227C35.6905 67.0625 35.3225 67.6354 34.9079 68.1623M35.7547 68.6321L34.9079 68.1623M34.9079 68.1623C34.7009 68.4254 34.4823 68.677 34.2509 68.9198M34.3397 70.0472L34.2509 68.9198M34.2509 68.9198C33.9526 69.2328 33.633 69.5313 33.2897 69.8207M33.6321 70.7547L33.2897 69.8207M33.2897 69.8207C32.8488 70.1924 32.3688 70.5492 31.8446 70.9031M32.9246 71.4623L31.8446 70.9031M31.8446 70.9031C31.5821 71.0803 31.3085 71.2568 31.0231 71.434M31.5095 72.1698L31.0231 71.434M31.0231 71.434C30.8378 71.5492 30.6474 71.6646 30.452 71.7808M30.8019 72.8774L30.452 71.7808M28.8877 71.8545L28.0092 72.1308M28.0092 72.1308C28.0344 72.3867 28.0492 72.6321 28.0525 72.8774M28.6793 72.8774H28.0525M28.0525 72.8774C28.0606 73.4886 27.997 74.0983 27.8437 74.8627M28.8877 74.3369L28.0525 73.6118L28.6793 75L27.8437 74.8627" stroke="#A8A293" stroke-width="0.5" stroke-linecap="round"/>
<defs>
<linearGradient id="paint0_linear_280_2397" x1="35.7548" y1="18.1887" x2="0.377441" y2="18.1887" gradientUnits="userSpaceOnUse">
<stop stop-color="white" stop-opacity="0.15"/>
<stop offset="0.34" stop-color="#DFA607" stop-opacity="0.5"/>
<stop offset="0.475" stop-color="#5E4500" stop-opacity="0.9"/>
<stop offset="0.655" stop-color="#DFA607" stop-opacity="0.5"/>
<stop offset="0.995" stop-color="white" stop-opacity="0.15"/>
</linearGradient>
<linearGradient id="paint1_linear_280_2397" x1="34.5996" y1="11.3815" x2="1.91522" y2="24.9198" gradientUnits="userSpaceOnUse">
<stop stop-color="white" stop-opacity="0.15"/>
<stop offset="0.34" stop-color="#DFA607" stop-opacity="0.5"/>
<stop offset="0.475" stop-color="#5E4500" stop-opacity="0.9"/>
<stop offset="0.655" stop-color="#DFA607" stop-opacity="0.5"/>
<stop offset="0.995" stop-color="white" stop-opacity="0.15"/>
</linearGradient>
<linearGradient id="paint2_linear_280_2397" x1="34.217" y1="24.9198" x2="1.53254" y2="11.3814" gradientUnits="userSpaceOnUse">
<stop stop-color="white" stop-opacity="0.15"/>
<stop offset="0.34" stop-color="#DFA607" stop-opacity="0.5"/>
<stop offset="0.475" stop-color="#5E4500" stop-opacity="0.9"/>
<stop offset="0.655" stop-color="#DFA607" stop-opacity="0.5"/>
<stop offset="0.995" stop-color="white" stop-opacity="0.15"/>
</linearGradient>
<linearGradient id="paint3_linear_280_2397" x1="18.5662" y1="2.28882e-05" x2="18.5662" y2="35.3774" gradientUnits="userSpaceOnUse">
<stop stop-color="white" stop-opacity="0.15"/>
<stop offset="0.34" stop-color="#DFA607" stop-opacity="0.5"/>
<stop offset="0.475" stop-color="#5E4500" stop-opacity="0.9"/>
<stop offset="0.655" stop-color="#DFA607" stop-opacity="0.5"/>
<stop offset="0.995" stop-color="white" stop-opacity="0.15"/>
</linearGradient>
<linearGradient id="paint4_linear_280_2397" x1="25.2971" y1="1.53787" x2="11.7588" y2="34.2223" gradientUnits="userSpaceOnUse">
<stop stop-color="white" stop-opacity="0.15"/>
<stop offset="0.34" stop-color="#DFA607" stop-opacity="0.5"/>
<stop offset="0.475" stop-color="#5E4500" stop-opacity="0.9"/>
<stop offset="0.655" stop-color="#DFA607" stop-opacity="0.5"/>
<stop offset="0.995" stop-color="white" stop-opacity="0.15"/>
</linearGradient>
<linearGradient id="paint5_linear_280_2397" x1="24.3733" y1="34.2223" x2="10.8349" y2="1.53784" gradientUnits="userSpaceOnUse">
<stop stop-color="white" stop-opacity="0.15"/>
<stop offset="0.34" stop-color="#DFA607" stop-opacity="0.5"/>
<stop offset="0.475" stop-color="#5E4500" stop-opacity="0.9"/>
<stop offset="0.655" stop-color="#DFA607" stop-opacity="0.5"/>
<stop offset="0.995" stop-color="white" stop-opacity="0.15"/>
</linearGradient>
<linearGradient id="paint6_linear_280_2397" x1="30.2204" y1="30.55" x2="5.2048" y2="5.53446" gradientUnits="userSpaceOnUse">
<stop stop-color="white" stop-opacity="0.15"/>
<stop offset="0.34" stop-color="#DFA607" stop-opacity="0.5"/>
<stop offset="0.475" stop-color="#5E4500" stop-opacity="0.9"/>
<stop offset="0.655" stop-color="#DFA607" stop-opacity="0.5"/>
<stop offset="0.995" stop-color="white" stop-opacity="0.15"/>
</linearGradient>
<linearGradient id="paint7_linear_280_2397" x1="30.9275" y1="5.5344" x2="5.9119" y2="30.55" gradientUnits="userSpaceOnUse">
<stop stop-color="white" stop-opacity="0.15"/>
<stop offset="0.34" stop-color="#DFA607" stop-opacity="0.5"/>
<stop offset="0.475" stop-color="#5E4500" stop-opacity="0.9"/>
<stop offset="0.655" stop-color="#DFA607" stop-opacity="0.5"/>
<stop offset="0.995" stop-color="white" stop-opacity="0.15"/>
</linearGradient>
</defs>
</svg>
