<svg width="69" height="77" viewBox="0 0 69 77" fill="none" xmlns="http://www.w3.org/2000/svg">
<path d="M10.7423 19.9971C9.66255 20.2754 8.75912 20.6084 8 21.021C6.64859 21.7557 5.7545 22.7432 5.13726 24.1256C4.7024 25.0995 4.40496 26.2695 4.18181 27.6853C4.01695 28.7313 3.89264 29.9114 3.78344 31.2458C3.71659 32.0627 3.6554 32.9373 3.59403 33.8744C3.54979 34.5499 3.50546 35.2579 3.45885 36C3.41159 36.7523 3.36199 37.5397 3.30777 38.364C7.24647 36.6079 10.49 36.4674 17.8886 37.5341C17.9184 37.2462 17.9475 36.9636 17.9759 36.686C18.0336 36.1226 18.0885 35.58 18.1404 35.0575C18.1941 34.5172 18.2446 33.9984 18.2918 33.5C18.3767 32.6021 18.4509 31.7706 18.5133 31C18.6184 29.7028 18.6902 28.5781 18.7244 27.5992C18.7598 26.5861 18.7549 25.7292 18.7048 24.9989C18.6358 23.9944 18.4814 23.2294 18.2289 22.6269C17.8505 21.7241 17.2518 21.1864 16.3902 20.7549C15.5257 20.3218 14.2001 19.9971 10.7423 19.9971Z" fill="#0B1215"/>
<path d="M10.1083 17.399C10.3559 18.4136 11.2609 19.2754 10.7423 19.9971C14.2001 19.9971 15.5257 20.3218 16.3902 20.7549C16.3902 19.9971 17.3699 19.8167 18.6378 19.4558C16.3902 17.7959 14.8341 17.399 10.1083 17.399Z" fill="#0B1215"/>
<path d="M14.6612 67.1593C15.7636 65.4276 16.8555 65.2944 19.5023 66.2933C23.2499 63.5601 24.557 61.9904 22.1534 58.9682C21.5544 58.7079 21.0401 58.4264 20.6 58.1244C18.8159 56.9003 18.2515 55.3401 18.2078 53.5C18.1841 52.5013 18.3137 51.4202 18.485 50.2656C18.5697 49.6947 18.6646 49.1058 18.7562 48.5C18.9208 47.4109 19.0746 46.2673 19.1392 45.0754C19.1671 44.5591 19.1784 44.0338 19.1665 43.5C19.1483 42.6859 19.0764 41.852 18.9281 41C18.7322 39.8748 18.4031 38.7181 17.8886 37.5341C10.49 36.4674 7.24647 36.6079 3.30777 38.364C3.19484 40.0809 3.09278 41.8 3.0393 43.5C2.99595 44.8779 2.98452 46.2433 3.02509 47.5849C3.04884 48.3705 3.09043 49.1479 3.15387 49.915C3.25515 51.1396 3.41216 52.3376 3.64128 53.5C3.72437 53.9215 3.81694 54.3383 3.91978 54.75C4.24611 56.0564 4.67583 57.311 5.23393 58.5C5.49138 59.0485 5.77615 59.583 6.09069 60.1021C6.54474 60.8514 7.06083 61.5688 7.64634 62.25C8.57489 63.3303 9.67803 64.3197 10.9852 65.2017C11.2328 65.3688 11.4876 65.532 11.75 65.6912C12.4372 66.1081 13.1759 66.4979 13.9697 66.8585C14.1957 66.9612 14.4262 67.0615 14.6612 67.1593Z" fill="#0B1215"/>
<path d="M27.8589 1.66623C28.1138 2.39197 28.3727 2.7749 29.4726 3.32611C31.4435 3.30606 32.5516 3.22844 34.5442 2.74876C35.7855 2.41438 36.039 1.99635 36.3884 1.19714C33.0616 0.905667 31.1955 0.845627 27.8589 1.66623Z" fill="#0B1215"/>
<path d="M29.4726 3.32611C29.3009 3.88617 29.1429 4.41533 28.9984 4.92159C28.7051 5.94965 28.4675 6.8833 28.2835 7.78957C28.1258 8.56703 28.0075 9.32433 27.9274 10.1038C27.8568 10.7922 27.8159 11.4979 27.804 12.25C27.7917 13.0279 27.8103 13.8554 27.8589 14.7649C31.9661 13.1162 34.2204 13.0536 38.175 14.1153C38.1557 13.9061 38.1366 13.7011 38.1173 13.5C38.0309 12.5994 37.9417 11.7768 37.828 11C37.777 10.6512 37.721 10.3116 37.6582 9.97842C37.5523 9.4172 37.427 8.87394 37.2727 8.33473C36.9596 7.24037 36.5274 6.16274 35.8978 4.98562C35.5224 4.2836 35.0767 3.5462 34.5442 2.74876C32.5516 3.22844 31.4435 3.30606 29.4726 3.32611Z" fill="#0B1215"/>
<path d="M27.8589 14.7649C27.7352 15.0942 27.6195 15.4151 27.5115 15.7285C27.172 16.7138 26.9081 17.6259 26.7085 18.5C26.5896 19.0206 26.4936 19.5278 26.4179 20.0289C26.3336 20.5876 26.2746 21.1387 26.2377 21.6927C26.1667 22.7599 26.1775 23.8375 26.2465 24.9989C26.2888 25.712 26.3531 26.4566 26.4338 27.25C26.481 27.7134 26.5337 28.1934 26.591 28.6934C31.309 25.5088 34.0176 25.0433 38.9819 26.9974C39.5147 25.3824 39.8914 23.9968 40.0572 22.6655C40.127 22.1051 40.1594 21.5543 40.1504 21C40.1371 20.1878 40.0348 19.3682 39.8306 18.5C39.6463 17.7163 39.379 16.8931 39.0191 16C38.7797 15.4057 38.4992 14.7804 38.175 14.1153C34.2204 13.0536 31.9661 13.1162 27.8589 14.7649Z" fill="#0B1215"/>
<path d="M26.591 28.6934C26.2969 29.7948 26.0701 30.8177 25.8979 31.7845C25.8168 32.2393 25.7479 32.6818 25.6896 33.1142C25.554 34.1205 25.4765 35.0725 25.4401 36C25.4069 36.8463 25.4079 37.6721 25.4303 38.5C25.4612 39.6396 25.5326 40.7833 25.6111 41.9899C25.6683 42.869 25.7292 43.7814 25.781 44.75C25.8026 45.1562 25.8227 45.5723 25.8402 46C25.8673 46.6606 25.8882 47.3488 25.8994 48.0707C33.5326 45.6338 35.9238 45.7868 42.2669 47.782C42.3243 47.2411 42.3756 46.716 42.4204 46.2048C42.5407 44.8328 42.6141 43.5609 42.6317 42.3511C42.6434 41.5499 42.6305 40.7758 42.5907 40.018C42.5394 39.0439 42.4435 38.0965 42.2974 37.1523C42.1107 35.9459 41.842 34.7447 41.48 33.5C41.2443 32.6896 40.9691 31.8608 40.6511 31C40.3012 30.0528 39.8996 29.0669 39.442 28.0242C39.2945 27.6881 39.1412 27.346 38.9819 26.9974C34.0176 25.0433 31.309 25.5088 26.591 28.6934Z" fill="#0B1215"/>
<path d="M19.5023 66.2933C19.3008 67.0907 19.1269 67.8152 18.9746 68.5C18.78 69.3748 18.6208 70.185 18.4846 71C18.4157 71.4124 18.3527 71.8261 18.294 72.25C18.1678 73.161 18.0615 74.1194 17.9593 75.2145C17.9356 75.4686 17.9121 75.7301 17.8886 76H46.474C46.4911 75.9181 46.5077 75.8373 46.5237 75.7574C46.7947 74.4069 46.907 73.3299 46.8926 72.25C46.8869 71.8168 46.8607 71.3831 46.8163 70.9311C46.7457 70.213 46.6288 69.4487 46.474 68.5666C42.9975 64.4418 42.0947 61.9724 44.8603 56.9114C44.9726 54.8898 44.9008 53.372 44.4861 51.9417C44.2217 51.0296 43.8177 50.1531 43.2332 49.2041C42.9538 48.7505 42.6332 48.2804 42.2669 47.782C35.9238 45.7868 33.5326 45.6338 25.8994 48.0707C25.6275 48.7028 25.3476 49.3061 25.0689 49.8918C24.4943 51.0998 23.9254 52.2334 23.4442 53.3921C23.1856 54.0149 22.9524 54.645 22.7572 55.2978C22.4199 56.4266 22.1966 57.6234 22.1534 58.9682C24.557 61.9904 23.2499 63.5601 19.5023 66.2933Z" fill="#0B1215"/>
<path d="M49.8166 50.0553C49.7201 50.6178 49.6223 51.1391 49.5185 51.6217C49.0654 53.7297 48.4997 55.0991 47.4348 55.9346C46.7889 56.4413 45.9595 56.7517 44.8603 56.9114C42.0947 61.9724 42.9975 64.4418 46.474 68.5666C49.4252 67.8733 50.2505 68.4556 50.9116 70.443C50.9854 70.3995 51.0588 70.3561 51.1318 70.3127C51.4771 70.1075 51.8133 69.9035 52.1408 69.7001C52.6449 69.387 53.1283 69.0752 53.5921 68.7621C54.5182 68.1369 55.3662 67.5065 56.1451 66.8498C56.7515 66.3385 57.3161 65.8113 57.8432 65.2582C58.252 64.8293 58.6382 64.3848 59.0039 63.9201C59.7364 62.9891 60.3865 61.9771 60.9702 60.8468C61.1911 60.419 61.4025 59.9742 61.6053 59.5105C61.8871 58.8663 62.1522 58.1854 62.403 57.4626C62.6753 56.6779 62.9307 55.8436 63.1723 54.9529C63.2634 54.6172 63.3524 54.2736 63.4397 53.9216C63.6057 53.2519 63.7652 52.5519 63.9193 51.819C63.9835 51.5136 64.0468 51.2024 64.1092 50.8853C59.3228 48.5702 56.1201 48.572 49.8166 50.0553Z" fill="#0B1215"/>
<path d="M55.4645 33.6009C54.1894 33.9496 53.1972 34.5208 52.4265 35.3688C51.7759 36.0846 51.2832 36.9978 50.9114 38.141C50.8203 38.421 50.7365 38.7148 50.6594 39.0228C50.3584 40.226 50.1597 41.6469 50.0311 43.3144C49.9957 43.774 49.9656 44.2523 49.9401 44.75C49.9 45.5345 49.8714 46.3671 49.8517 47.25C49.832 48.1338 49.8212 49.0682 49.8166 50.0553C56.1201 48.572 59.3228 48.5702 64.1092 50.8853C64.2259 50.2542 64.3362 49.6437 64.4397 49.053C64.5941 48.1711 64.7335 47.3336 64.8566 46.5387C64.9616 45.8603 65.0547 45.2129 65.1353 44.5953C65.2442 43.7599 65.3302 42.9791 65.3912 42.25C65.4676 41.3376 65.505 40.5061 65.5 39.75C65.4953 39.0388 65.4525 38.3942 65.3697 37.8117C65.272 37.1239 65.1177 36.5225 64.9022 36C64.5802 35.2194 64.1214 34.6146 63.5096 34.1602C62.9554 33.7485 62.2756 33.4601 61.4582 33.2761C59.1289 33.7236 57.8192 33.8713 55.4645 33.6009Z" fill="#0B1215"/>
<path d="M52.9864 31.5441C53.3616 32.4075 53.8373 32.8646 55.4645 33.6009C57.8192 33.8713 59.1289 33.7236 61.4582 33.2761C62.2752 32.8087 62.6005 32.5035 63.0142 31.9049C59.3948 30.7389 57.167 30.7711 52.9864 31.5441Z" fill="#0B1215"/>
<path d="M19.5023 66.2933C16.8555 65.2944 15.7636 65.4276 14.6612 67.1593C14.4262 67.0615 14.1957 66.9612 13.9697 66.8585M19.5023 66.2933C23.2499 63.5601 24.557 61.9904 22.1534 58.9682M19.5023 66.2933C19.3008 67.0907 19.1269 67.8152 18.9746 68.5M3.30777 38.364C7.24647 36.6079 10.49 36.4674 17.8886 37.5341M3.30777 38.364C3.36199 37.5397 3.41159 36.7523 3.45885 36M3.30777 38.364H1.75M3.30777 38.364C3.19484 40.0809 3.09278 41.8 3.0393 43.5M10.7423 19.9971C11.2609 19.2754 10.3559 18.4136 10.1083 17.399C14.8341 17.399 16.3902 17.7959 18.6378 19.4558C17.3699 19.8167 16.3902 19.9971 16.3902 20.7549M10.7423 19.9971C14.2001 19.9971 15.5257 20.3218 16.3902 20.7549M10.7423 19.9971C9.66255 20.2754 8.75912 20.6084 8 21.021M16.3902 20.7549C17.2518 21.1864 17.8505 21.7241 18.2289 22.6269M17.8886 37.5341C17.9184 37.2462 17.9475 36.9636 17.9759 36.686M17.8886 37.5341C18.4031 38.7181 18.7322 39.8748 18.9281 41M22.1534 58.9682C21.5544 58.7079 21.04 58.4264 20.6 58.1244M22.1534 58.9682C22.1966 57.6234 22.4199 56.4266 22.7572 55.2978M25.8994 48.0707C33.5326 45.6338 35.9238 45.7868 42.2669 47.782M25.8994 48.0707C25.6275 48.7028 25.3476 49.3061 25.0689 49.8918M25.8994 48.0707C25.8882 47.3488 25.8673 46.6606 25.8402 46M26.591 28.6934C31.309 25.5088 34.0176 25.0433 38.9819 26.9974M26.591 28.6934C26.2969 29.7948 26.0701 30.8177 25.8979 31.7845M26.591 28.6934C26.5337 28.1934 26.481 27.7134 26.4338 27.25M27.8589 14.7649C31.9661 13.1162 34.2204 13.0536 38.175 14.1153M27.8589 14.7649C27.7352 15.0942 27.6195 15.4151 27.5115 15.7285M27.8589 14.7649C27.8103 13.8554 27.7917 13.0279 27.804 12.25M29.4726 3.32611C28.3727 2.7749 28.1138 2.39197 27.8589 1.66623C31.1955 0.845627 33.0616 0.905667 36.3884 1.19714C36.039 1.99635 35.7855 2.41438 34.5442 2.74876M29.4726 3.32611C31.4435 3.30606 32.5516 3.22844 34.5442 2.74876M29.4726 3.32611C29.3009 3.88617 29.1429 4.41533 28.9984 4.92159M34.5442 2.74876C35.0767 3.54619 35.5224 4.2836 35.8978 4.98562M38.175 14.1153C38.1557 13.9061 38.1366 13.7011 38.1173 13.5M38.175 14.1153C38.4992 14.7804 38.7797 15.4057 39.0191 16M38.9819 26.9974C39.5147 25.3824 39.8914 23.9968 40.0572 22.6655M38.9819 26.9974C39.1412 27.346 39.2945 27.6881 39.442 28.0242M42.2669 47.782C42.3243 47.2411 42.3756 46.716 42.4204 46.2048M42.2669 47.782C42.6332 48.2804 42.9538 48.7505 43.2332 49.2041M44.8603 56.9114C42.0947 61.9724 42.9975 64.4418 46.474 68.5666M44.8603 56.9114C44.9726 54.8898 44.9008 53.372 44.4861 51.9417M44.8603 56.9114C45.9595 56.7517 46.7889 56.4413 47.4348 55.9346M49.8166 50.0553C56.1201 48.572 59.3228 48.5702 64.1092 50.8853M49.8166 50.0553C49.7201 50.6178 49.6223 51.1391 49.5185 51.6217M49.8166 50.0553C49.8212 49.0682 49.832 48.1338 49.8517 47.25M55.4645 33.6009C53.8373 32.8646 53.3616 32.4075 52.9864 31.5441C57.167 30.7711 59.3948 30.7389 63.0142 31.9049C62.6005 32.5035 62.2752 32.8087 61.4582 33.2761M55.4645 33.6009C57.8192 33.8713 59.1289 33.7236 61.4582 33.2761M55.4645 33.6009C54.1894 33.9496 53.1972 34.5208 52.4265 35.3688M61.4582 33.2761C62.2755 33.4601 62.9554 33.7485 63.5096 34.1602M64.1092 50.8853C64.2259 50.2542 64.3362 49.6436 64.4397 49.053M64.1092 50.8853C64.0468 51.2024 63.9835 51.5136 63.9193 51.819M46.474 68.5666C49.4252 67.8733 50.2505 68.4556 50.9116 70.443C50.9854 70.3995 51.0588 70.3561 51.1318 70.3127M46.474 68.5666C46.6288 69.4487 46.7457 70.213 46.8163 70.9311M5.5 18.5L8 21.021M8 21.021C6.64859 21.7557 5.7545 22.7432 5.13726 24.1256M3 23.5L5.13726 24.1256M5.13726 24.1256C4.7024 25.0995 4.40496 26.2695 4.18181 27.6853M3 27.25L4.18181 27.6853M4.18181 27.6853C4.01695 28.7313 3.89264 29.9114 3.78344 31.2458M1.75 31L3.78344 31.2458M3.78344 31.2458C3.71659 32.0627 3.6554 32.9373 3.59403 33.8744M1.75 33.5L3.59403 33.8744M3.59403 33.8744C3.54979 34.5499 3.50546 35.2579 3.45885 36M1.75 36H3.45885M1.75 41H3M0.5 43.5H3.0393M3.0393 43.5C2.99595 44.8779 2.98452 46.2433 3.02509 47.5849M0.5 47.25L3.02509 47.5849M3.02509 47.5849C3.04884 48.3705 3.09043 49.1479 3.15387 49.915M0.5 51L3.15387 49.915M3.15387 49.915C3.25515 51.1396 3.41216 52.3376 3.64128 53.5M1.75 53.5H3.64128M3.64128 53.5C3.72437 53.9215 3.81694 54.3383 3.91978 54.75M3 56L3.91978 54.75M3.91978 54.75C4.24611 56.0564 4.67583 57.311 5.23393 58.5M3.30777 58.5H5.23393M5.23393 58.5C5.49138 59.0485 5.77615 59.583 6.09069 60.1021M5.5 61L6.09069 60.1021M6.09069 60.1021C6.54474 60.8514 7.06083 61.5688 7.64634 62.25M6.75 63.5L7.64634 62.25M7.64634 62.25C8.57489 63.3303 9.67803 64.3197 10.9852 65.2017M9.25 66L10.9852 65.2017M10.9852 65.2017C11.2328 65.3688 11.4876 65.532 11.75 65.6912M11.75 67.25V65.6912M11.75 65.6912C12.4372 66.1081 13.1759 66.4979 13.9697 66.8585M14.25 68.5L13.9697 66.8585M18 68.5H18.9746M18.9746 68.5C18.78 69.3748 18.6208 70.185 18.4846 71M16.75 71H18.4846M18.4846 71C18.4157 71.4124 18.3527 71.8261 18.294 72.25M16.75 73.5L18.294 72.25M18.294 72.25C18.1678 73.161 18.0615 74.1194 17.9593 75.2145M16.75 74.75L17.9593 75.2145M17.9593 75.2145C17.9356 75.4686 17.9121 75.7301 17.8886 76H46.474C46.4911 75.9181 46.5077 75.8373 46.5237 75.7574M18.2289 22.6269L20.5 22.25M18.2289 22.6269C18.4814 23.2294 18.6358 23.9944 18.7048 24.9989M20.5 24.75L18.7048 24.9989M18.7048 24.9989C18.7549 25.7292 18.7598 26.5861 18.7244 27.5992M20.5 28.5L18.7244 27.5992M18.7244 27.5992C18.6902 28.5781 18.6184 29.7028 18.5133 31M20.5 31H18.5133M18.5133 31C18.4509 31.7706 18.3767 32.6021 18.2918 33.5M20.5 32.25L18.2918 33.5M18.2918 33.5C18.2446 33.9984 18.1941 34.5172 18.1404 35.0575M20.5 36L18.1404 35.0575M18.1404 35.0575C18.0885 35.58 18.0336 36.1226 17.9759 36.686M19.25 38.5L17.9759 36.686M20.5 41H18.9281M18.9281 41C19.0764 41.852 19.1483 42.6859 19.1665 43.5M20.5 43.5H19.1665M19.1665 43.5C19.1784 44.0338 19.1671 44.5591 19.1392 45.0754M20.5 46L19.1392 45.0754M19.1392 45.0754C19.0746 46.2673 18.9208 47.4109 18.7562 48.5M20.5 48.5H18.7562M18.7562 48.5C18.6646 49.1058 18.5697 49.6947 18.485 50.2656M20.5 51L18.485 50.2656M18.485 50.2656C18.3137 51.4202 18.1841 52.5013 18.2078 53.5M20.5 53.5H18.2078M18.2078 53.5C18.2515 55.3401 18.8159 56.9003 20.6 58.1244M20.5 56L20.6 58.1244M21.75 54.75L22.7572 55.2978M22.7572 55.2978C22.9523 54.645 23.1856 54.0149 23.4442 53.3921M23 51L23.4442 53.3921M23.4442 53.3921C23.9254 52.2334 24.4943 51.0998 25.0689 49.8918M23 49.75L25.0689 49.8918M23 47.25L25.8402 46M25.8402 46C25.8227 45.5723 25.8026 45.1562 25.781 44.75M23 44.75H25.781M25.781 44.75C25.7292 43.7814 25.6683 42.869 25.6111 41.9899M23 41L25.6111 41.9899M25.6111 41.9899C25.5326 40.7833 25.4612 39.6396 25.4303 38.5M23 38.5H25.4303M25.4303 38.5C25.4079 37.6721 25.4069 36.8463 25.4401 36M24.25 36H25.4401M25.4401 36C25.4765 35.0725 25.554 34.1205 25.6896 33.1142M24.25 33.5L25.6896 33.1142M25.6896 33.1142C25.7479 32.6818 25.8168 32.2393 25.8979 31.7845M24.25 31L25.8979 31.7845M24.25 28.5L26.4338 27.25M26.4338 27.25C26.3531 26.4566 26.2888 25.712 26.2465 24.9989M24.25 24.75L26.2465 24.9989M26.2465 24.9989C26.1775 23.8375 26.1667 22.7599 26.2377 21.6927M24.25 22.25L26.2377 21.6927M26.2377 21.6927C26.2746 21.1387 26.3336 20.5876 26.4179 20.0289M24.25 19.75L26.4179 20.0289M26.4179 20.0289C26.4936 19.5278 26.5896 19.0206 26.7085 18.5M25.5 17.25L26.7085 18.5M26.7085 18.5C26.9081 17.6259 27.172 16.7138 27.5115 15.7285M25.5 14.75L27.5115 15.7285M25.5 12.25H27.804M27.804 12.25C27.8159 11.4979 27.8568 10.7922 27.9274 10.1038M26.4179 10.3829L27.9274 10.1038M27.9274 10.1038C28.0075 9.32433 28.1258 8.56703 28.2835 7.78957M26.75 7.25L28.2835 7.78957M28.2835 7.78957C28.4675 6.8833 28.7051 5.94965 28.9984 4.92159M27.5115 4.92159H28.9984M38 4.75L35.8978 4.98562M35.8978 4.98562C36.5274 6.16274 36.9596 7.24037 37.2727 8.33473M39.25 7.25L37.2727 8.33473M37.2727 8.33473C37.427 8.87394 37.5523 9.4172 37.6582 9.97842M40.5 8.5L37.6582 9.97842M37.6582 9.97842C37.721 10.3116 37.777 10.6512 37.828 11M39.25 11H37.828M37.828 11C37.9417 11.7768 38.0309 12.5994 38.1173 13.5M40.5 13.5H38.1173M41.75 16H39.0191M39.0191 16C39.379 16.8931 39.6463 17.7163 39.8306 18.5M43 17.25L39.8306 18.5M39.8306 18.5C40.0348 19.3682 40.1371 20.1878 40.1504 21M41.75 21H40.1504M40.1504 21C40.1594 21.5543 40.127 22.1051 40.0572 22.6655M43 23.5L40.0572 22.6655M41.75 26L39.442 28.0242M39.442 28.0242C39.8996 29.0669 40.3012 30.0528 40.6511 31M43 29.75L40.6511 31M40.6511 31C40.9691 31.8608 41.2443 32.6896 41.48 33.5M44.25 33.5H41.48M41.48 33.5C41.842 34.7447 42.1107 35.9459 42.2974 37.1523M44.25 36L42.2974 37.1523M42.2974 37.1523C42.4435 38.0965 42.5394 39.0439 42.5907 40.018M45.5 39.75L42.5907 40.018M42.5907 40.018C42.6305 40.7758 42.6434 41.5499 42.6317 42.3511M44.25 43.5L42.6317 42.3511M42.6317 42.3511C42.6141 43.5609 42.5407 44.8328 42.4204 46.2048M45.5 46L42.4204 46.2048M44.25 48.5L43.2332 49.2041M43.2332 49.2041C43.8177 50.1531 44.2217 51.0296 44.4861 51.9417M46.75 51L44.4861 51.9417M46.75 53.5L47.4348 55.9346M47.4348 55.9346C48.4997 55.0991 49.0654 53.7297 49.5185 51.6217M48 49.75L49.5185 51.6217M48 47.25H49.8517M49.8517 47.25C49.8714 46.3671 49.9 45.5345 49.9401 44.75M46.75 44.75H49.9401M49.9401 44.75C49.9656 44.2523 49.9957 43.774 50.0311 43.3144M48 42.25L50.0311 43.3144M50.0311 43.3144C50.1597 41.647 50.3584 40.226 50.6594 39.0228M48 39.75L50.6594 39.0228M50.6594 39.0228C50.7365 38.7148 50.8203 38.421 50.9114 38.141M48 36L50.9114 38.141M50.9114 38.141C51.2832 36.9978 51.7759 36.0846 52.4265 35.3688M50.9114 34.4333L52.4265 35.3688M65.0163 33.2761L63.5096 34.1602M63.5096 34.1602C64.1214 34.6146 64.5802 35.2194 64.9022 36M66.75 34.75L64.9022 36M64.9022 36C65.1177 36.5225 65.272 37.1239 65.3697 37.8117M68 37.25L65.3697 37.8117M65.3697 37.8117C65.4525 38.3942 65.4953 39.0388 65.5 39.75M66.75 41L65.5 39.75M65.5 39.75C65.505 40.5061 65.4676 41.3376 65.3912 42.25M66.75 42.25H65.3912M65.3912 42.25C65.3302 42.9791 65.2442 43.7599 65.1353 44.5953M68 44.75L65.1353 44.5953M65.1353 44.5953C65.0547 45.2129 64.9616 45.8603 64.8566 46.5387M66.75 47.25L64.8566 46.5387M64.8566 46.5387C64.7335 47.3336 64.5941 48.1711 64.4397 49.053M65.5 49.75L64.4397 49.053M65.5 52.25L63.9193 51.819M63.9193 51.819C63.7652 52.5519 63.6057 53.2519 63.4397 53.9216M65.5 54.75L63.4397 53.9216M63.4397 53.9216C63.3524 54.2736 63.2634 54.6172 63.1723 54.9529M64.4397 57.1224L63.1723 54.9529M63.1723 54.9529C62.9307 55.8436 62.6753 56.6779 62.403 57.4626M64.25 58.5L62.403 57.4626M62.403 57.4626C62.1522 58.1854 61.8871 58.8663 61.6053 59.5105M63 59.75L61.6053 59.5105M61.6053 59.5105C61.4025 59.9742 61.1911 60.419 60.9702 60.8468M61.6053 62.4836L60.9702 60.8468M60.9702 60.8468C60.3865 61.9771 59.7364 62.9891 59.0039 63.9201M60.5 64.75L59.0039 63.9201M59.0039 63.9201C58.6382 64.3848 58.252 64.8293 57.8432 65.2582M58 67.25L57.8432 65.2582M57.8432 65.2582C57.3161 65.8113 56.7515 66.3385 56.1451 66.8498M56.75 68.5L56.1451 66.8498M56.1451 66.8498C55.3662 67.5065 54.5182 68.1369 53.5921 68.7621M55.5 69.75L53.5921 68.7621M53.5921 68.7621C53.1283 69.0752 52.6449 69.387 52.1408 69.7001M53 71L52.1408 69.7001M52.1408 69.7001C51.8133 69.9035 51.4771 70.1074 51.1318 70.3127M51.75 72.25L51.1318 70.3127M48.3682 70.443L46.8163 70.9311M46.8163 70.9311C46.8607 71.3831 46.8869 71.8168 46.8926 72.25M48 72.25H46.8926M46.8926 72.25C46.907 73.3299 46.7947 74.4069 46.5237 75.7574M48.3682 74.8285L46.8926 73.5475L48 76L46.5237 75.7574" stroke="#E6AB07" stroke-width="0.5" stroke-linecap="round"/>
</svg>
