<svg width="130" height="126" viewBox="0 0 130 126" fill="none" xmlns="http://www.w3.org/2000/svg">
<path d="M32.4968 70.6908C31.8082 70.4421 31.062 70.1168 30.1827 69.6914C16.7169 64.4376 45.8137 59.0382 47.3136 67.1373C48.8134 70.7369 44.4273 69.3221 44.3139 71.0369C45.8137 72.8367 44.6587 73.1239 43.0171 72.3622C47.3136 74.9365 47.3136 74.0366 45.2556 79.9888C48.8134 86.3352 50.9132 85.1353 47.0465 87.1522C46.3806 87.7793 45.97 87.4079 45.2556 87.0925C53.3145 91.48 47.0465 87.8983 53.3145 99.8373H23.3178C23.4658 94.0628 22.1375 88.818 29.9942 86.6412C29.0712 86.7737 25.7219 86.344 25.416 86.0352C24.4552 84.8753 25.7159 77.0362 32.869 79.9888C25.416 76.9124 30.1827 74.0366 32.4968 70.6908Z" fill="#050412"/>
<path d="M32.869 79.9888C37.6445 80.2872 43.3156 78.4964 45.2556 79.9888M32.869 79.9888C25.7159 77.0362 24.4552 84.8753 25.416 86.0352C25.75 86.3723 29.7113 86.8535 30.1827 86.59M32.869 79.9888C25.416 76.9124 30.1827 74.0366 32.4968 70.6908M45.2556 79.9888C47.3136 74.0366 47.3136 74.9365 43.0171 72.3622M45.2556 79.9888C48.8134 86.3352 50.9132 85.1353 47.0465 87.1522C46.3806 87.7793 45.97 87.4079 45.2556 87.0925M43.0171 72.3622C40.3247 72.6529 39.061 72.4913 37.3461 71.4823C34.5675 71.4158 33.1167 71.1106 30.1827 69.6914C16.7169 64.4376 45.8137 59.0382 47.3136 67.1373C48.8134 70.7369 44.4273 69.3221 44.3139 71.0369C45.8137 72.8367 44.6587 73.1239 43.0171 72.3622ZM30.1827 86.59C22.1163 88.7349 23.467 94.0171 23.3178 99.8373H53.3145C47.0465 87.8983 53.3145 91.48 45.2556 87.0925M30.1827 86.59C37.6445 88.1968 38.9877 87.4506 45.2556 87.0925" stroke="#A8A293"/>
<path d="M89.1501 64.9707C88.7719 64.8125 88.3763 64.6417 87.957 64.4583C78.6099 59.3015 93.5236 51.1096 99.9569 59.83C104.051 61.6798 106.793 65.3006 106.683 66.8112C106.098 68.5505 104.343 69.3432 100.469 66.8112C100.032 70.3745 105.591 74.1589 102.589 74.3641C105.474 74.7932 104.722 75.3532 106.098 77.0066C105.481 77.5316 103.245 83.5122 102.426 83.8691C106.672 83.5746 106.077 83.721 103.753 100H85.3586C85.5041 94.8727 86.6476 88.5384 87.957 83.5732C87.4974 83.8054 85.9537 79.4176 85.6281 79.1207C84.6915 78.0988 82.7038 77.3641 86.7978 70.4934C84.0981 67.8099 85.137 63.9207 89.1501 64.9707Z" fill="#050412"/>
<path d="M86.7978 70.4934C91.4533 70.7564 100.697 73.0494 102.589 74.3641M86.7978 70.4934C82.7038 77.3641 84.6915 78.0988 85.6281 79.1207C85.9537 79.4176 87.4974 83.8054 87.957 83.5732M86.7978 70.4934C83.8736 67.5866 85.3357 63.2654 90.2129 65.3388M102.589 74.3641C105.591 74.1589 100.032 70.3745 100.469 66.8112M102.589 74.3641C105.474 74.7932 104.722 75.3532 106.098 77.0066C105.449 77.5591 103.006 84.1552 102.309 83.8773M100.469 66.8112C97.844 67.0673 96.95 67.3253 95.2781 66.4364C92.5694 66.3779 90.8172 65.7086 87.957 64.4583C78.6099 59.3015 93.5236 51.1096 99.9569 59.83C104.051 61.6798 106.793 65.3006 106.683 66.8112C106.098 68.5505 104.343 69.3432 100.469 66.8112ZM87.957 83.5732C86.6476 88.5384 85.5041 94.8727 85.3586 100H103.753C106.098 83.5732 106.683 83.5732 102.309 83.8773M87.957 83.5732C95.2312 84.9887 96.1991 84.1928 102.309 83.8773" stroke="#A8A293"/>
<g clip-path="url(#clip0_695_2737)">
<line x1="37.3145" y1="24.75" x2="87.3145" y2="24.75" stroke="url(#paint0_linear_695_2737)" stroke-width="0.5"/>
<line x1="39.1216" y1="34.3361" x2="85.3156" y2="15.2019" stroke="url(#paint1_linear_695_2737)" stroke-width="0.5"/>
<line x1="39.313" y1="15.202" x2="85.5069" y2="34.3361" stroke="url(#paint2_linear_695_2737)" stroke-width="0.5"/>
<line x1="62.0645" y1="50" x2="62.0645" stroke="url(#paint3_linear_695_2737)" stroke-width="0.5"/>
<line x1="52.5166" y1="48.0013" x2="71.6508" y2="1.80734" stroke="url(#paint4_linear_695_2737)" stroke-width="0.5"/>
<line x1="52.9785" y1="1.80734" x2="72.1127" y2="48.0013" stroke="url(#paint5_linear_695_2737)" stroke-width="0.5"/>
<line x1="44.8135" y1="7.14555" x2="80.1688" y2="42.5009" stroke="url(#paint6_linear_695_2737)" stroke-width="0.5"/>
<line x1="44.4599" y1="42.5009" x2="79.8153" y2="7.14556" stroke="url(#paint7_linear_695_2737)" stroke-width="0.5"/>
<path d="M55.6145 51.2899C54.4667 50.8752 53.223 50.333 51.7572 49.6239C48.4811 46.8229 31.8144 30.9896 81.1105 50.8677C83.9811 52.609 78.3145 51.9896 78.1254 54.8478C74.4811 53.4896 75.8866 55.3453 73.1503 54.0758C72.404 60.818 82.0145 66.4 76.8816 66.7881C81.8145 67.6 77.5145 75.6 79.8667 78.7284C78.7568 79.7738 78.0724 79.1547 76.8816 78.6289C90.3145 85.9423 79.8667 79.9722 90.3145 99.8727H40.3145C40.5632 90.1712 49.5184 87.1861 51.7572 77.7914C50.9715 78.2306 50.5727 78.2952 50.0159 77.7334C48.4145 75.8 51.9145 67.6 56.2348 66.7881C51.4145 63.3 48.2145 55.2 55.6145 51.2899Z" fill="#050412"/>
<path d="M56.2348 66.7881C64.195 67.2856 73.6478 64.3006 76.8816 66.7881M56.2348 66.7881C51.9145 67.6 48.4145 75.8 50.0159 77.7334C50.5727 78.2952 50.9715 78.2306 51.7572 77.7914M56.2348 66.7881C51.4145 63.3 48.2145 55.2 55.6145 51.2899M76.8816 66.7881C82.0145 66.4 72.404 60.818 73.1503 54.0758M76.8816 66.7881C81.8145 67.6 77.5145 75.6 79.8667 78.7284C78.7568 79.7738 78.0724 79.1547 76.8816 78.6289M73.1503 54.0758C68.6625 54.5603 66.5561 54.2909 63.6975 52.609C59.066 52.4983 56.6478 51.9896 51.7572 49.6239C48.4811 46.8229 31.8144 30.9896 81.1105 50.8677C83.9811 52.609 78.3145 51.9896 78.1254 54.8478C74.4811 53.4896 75.8866 55.3453 73.1503 54.0758ZM51.7572 77.7914C49.5184 87.1861 40.5632 90.1712 40.3145 99.8727H90.3145C79.8667 79.9722 90.3145 85.9423 76.8816 78.6289M51.7572 77.7914C64.195 80.4697 66.4339 79.2259 76.8816 78.6289" stroke="#A8A293" stroke-width="1.5"/>
<path d="M63.5682 22.3603L64.6941 21.7577H63.0132L64.6941 20.6794C60.6918 20.4438 58.9181 20.6364 58.0974 22.5981C54.8521 22.9828 54.1878 23.9351 53.5146 25.9599C55.6035 24.8791 56.6576 24.9096 58.3194 26.1502C58.861 26.7331 58.9881 27.0561 58.9061 27.6249C57.8268 31.6095 58.6641 33.7831 62.7753 37.5516C62.7971 38.7185 63.0642 39.4042 63.9329 40.6755C65.1248 40.8952 65.5695 40.7142 65.7089 39.502C66.3905 40.6709 66.7745 41.3935 67.4215 41.278C68.7822 40.9508 69.0698 40.5134 69.15 39.502C71.1744 43.4478 72.2979 46.523 74.3829 45.9242C77.2777 47.6917 77.2741 46.93 75.0489 43.1809C81.1767 46.8597 78.3421 43.3504 73.0191 36.8539C74.3855 37.0447 74.3619 36.7389 72.3373 35.1571C73.6237 35.0477 74.0513 34.8833 71.0053 33.2542C74.0816 33.8885 69.9428 32.0491 68.0241 27.6249C65.1856 26.499 65.8075 23.1065 63.5682 22.3603Z" fill="#050412"/>
<path d="M61.1737 23.5654C63.2646 24.85 63.2646 22.975 63.5682 22.3603M61.1737 23.5654C60.7995 22.2527 59.7783 22.1383 59.144 23.2007C59.1117 23.8098 59.3755 24.0753 60.1906 24.4557M61.1737 23.5654L60.1906 24.4557M61.1737 23.5654C63.0132 24.834 60.9993 29.473 58.9061 27.6249M63.5682 22.3603L64.6941 21.7577H63.0132L64.6941 20.6794C60.6918 20.4438 58.9181 20.6364 58.0974 22.5981C54.8521 22.9828 54.1878 23.9351 53.5146 25.9599C55.6035 24.8791 56.6576 24.9096 58.3194 26.1502M63.5682 22.3603C65.8075 23.1065 65.1856 26.499 68.0241 27.6249C69.9428 32.0491 74.0816 33.8885 71.0053 33.2542C74.0513 34.8833 73.6237 35.0477 72.3373 35.1571C74.3619 36.7389 74.3855 37.0447 73.0191 36.8539C78.3421 43.3504 81.1767 46.8597 75.0489 43.1809C77.2741 46.93 77.2777 47.6916 74.3829 45.9242C72.2979 46.523 71.1744 43.4478 69.15 39.502C69.0698 40.5134 68.7822 40.9508 67.4215 41.278M58.3194 26.1502C60.0146 25.6 59.6396 25.225 60.1906 24.4557M58.3194 26.1502C58.861 26.7331 58.9881 27.0561 58.9061 27.6249M58.9061 27.6249C57.8268 31.6095 58.6641 33.7831 62.7753 37.5516C62.7971 38.7185 63.0642 39.4042 63.9329 40.6755M63.9329 40.6755L61.475 44.0531M63.9329 40.6755C65.1248 40.8952 65.5696 40.7142 65.7089 39.502C66.3905 40.6709 66.7745 41.3935 67.4215 41.278M67.4215 41.278L66.0419 44.8459" stroke="#E6AB07"/>
</g>
<mask id="path-17-outside-1_695_2737" maskUnits="userSpaceOnUse" x="12.5" y="88" width="104" height="38" fill="black">
<rect fill="white" x="12.5" y="88" width="104" height="38"/>
<path d="M32.0156 123.703C29.8906 123.703 27.8281 123.344 25.8281 122.625C23.8594 121.875 22.0781 120.797 20.4844 119.391C18.9219 117.984 17.6719 116.266 16.7344 114.234C15.8281 112.203 15.375 109.891 15.375 107.297C15.375 104.703 15.8281 102.391 16.7344 100.359C17.6719 98.3281 18.9219 96.6094 20.4844 95.2031C22.0781 93.7969 23.8594 92.7344 25.8281 92.0156C27.8281 91.2656 29.8906 90.8906 32.0156 90.8906C33.6719 90.8906 35.2031 91.125 36.6094 91.5938C38.0156 92.0625 39.25 92.75 40.3125 93.6562V102.141C39.5 101.453 38.7031 100.891 37.9219 100.453C37.1719 100.016 36.3594 99.6875 35.4844 99.4688C34.6094 99.2188 33.5625 99.0938 32.3438 99.0938C30.9375 99.0938 29.625 99.4531 28.4062 100.172C27.2188 100.891 26.25 101.875 25.5 103.125C24.75 104.344 24.375 105.734 24.375 107.297C24.375 108.859 24.75 110.266 25.5 111.516C26.25 112.734 27.2188 113.703 28.4062 114.422C29.625 115.141 30.9375 115.5 32.3438 115.5C34.1562 115.5 35.625 115.25 36.75 114.75C37.875 114.219 39.0625 113.453 40.3125 112.453V120.938C39.25 121.844 38.0156 122.531 36.6094 123C35.2031 123.469 33.6719 123.703 32.0156 123.703ZM54.1406 123.703C52.3594 123.703 50.6875 123.25 49.125 122.344C47.5625 121.438 46.2812 120.047 45.2812 118.172C44.3125 116.266 43.8281 113.875 43.8281 111C43.8281 108.312 44.3125 106.031 45.2812 104.156C46.2812 102.281 47.5938 100.859 49.2188 99.8906C50.875 98.8906 52.6719 98.3906 54.6094 98.3906C55.8594 98.3906 57.0781 98.6719 58.2656 99.2344C59.4844 99.7656 60.4844 100.453 61.2656 101.297V99.0938H69.3281V123H61.2656V119.016C60.6719 120.328 59.7656 121.438 58.5469 122.344C57.3281 123.25 55.8594 123.703 54.1406 123.703ZM56.5312 115.547C57.2188 115.547 57.9219 115.375 58.6406 115.031C59.3594 114.656 59.9688 114.109 60.4688 113.391C61 112.641 61.2656 111.688 61.2656 110.531V108.234C60.5781 107.672 59.7969 107.203 58.9219 106.828C58.0781 106.453 57.2031 106.266 56.2969 106.266C55.5156 106.266 54.8125 106.484 54.1875 106.922C53.5938 107.359 53.125 107.938 52.7812 108.656C52.4375 109.375 52.2656 110.156 52.2656 111C52.2656 111.844 52.4375 112.609 52.7812 113.297C53.1562 113.984 53.6562 114.531 54.2812 114.938C54.9375 115.344 55.6875 115.547 56.5312 115.547ZM75.8906 123V99.0938H83.9531V123H75.8906ZM83.9531 110.719V103.359C84.7031 102.078 85.5312 100.969 86.4375 100.031C87.375 99.0938 88.5938 98.625 90.0938 98.625C90.9062 98.625 91.6094 98.7656 92.2031 99.0469V107.953C91.7344 107.703 91.2344 107.516 90.7031 107.391C90.2031 107.234 89.6094 107.156 88.9219 107.156C87.8281 107.156 86.8594 107.484 86.0156 108.141C85.1719 108.797 84.4844 109.656 83.9531 110.719ZM106.922 123.703C105.422 123.703 104.016 123.359 102.703 122.672C101.422 121.984 100.375 121 99.5625 119.719C98.7812 118.438 98.3906 116.891 98.3906 115.078V105.422H95.0156V100.5C96.5469 100.094 97.7812 99.25 98.7188 97.9688C99.6875 96.6875 100.516 95.0312 101.203 93H106.453V99.0938H113.203V105.422H106.453V112.125C106.453 113.281 106.672 114.203 107.109 114.891C107.578 115.547 108.359 115.875 109.453 115.875C110.391 115.875 111.156 115.719 111.75 115.406C112.375 115.062 112.984 114.719 113.578 114.375V121.125C113.078 121.812 112.234 122.422 111.047 122.953C109.859 123.453 108.484 123.703 106.922 123.703Z"/>
</mask>
<path d="M32.0156 123.703C29.8906 123.703 27.8281 123.344 25.8281 122.625C23.8594 121.875 22.0781 120.797 20.4844 119.391C18.9219 117.984 17.6719 116.266 16.7344 114.234C15.8281 112.203 15.375 109.891 15.375 107.297C15.375 104.703 15.8281 102.391 16.7344 100.359C17.6719 98.3281 18.9219 96.6094 20.4844 95.2031C22.0781 93.7969 23.8594 92.7344 25.8281 92.0156C27.8281 91.2656 29.8906 90.8906 32.0156 90.8906C33.6719 90.8906 35.2031 91.125 36.6094 91.5938C38.0156 92.0625 39.25 92.75 40.3125 93.6562V102.141C39.5 101.453 38.7031 100.891 37.9219 100.453C37.1719 100.016 36.3594 99.6875 35.4844 99.4688C34.6094 99.2188 33.5625 99.0938 32.3438 99.0938C30.9375 99.0938 29.625 99.4531 28.4062 100.172C27.2188 100.891 26.25 101.875 25.5 103.125C24.75 104.344 24.375 105.734 24.375 107.297C24.375 108.859 24.75 110.266 25.5 111.516C26.25 112.734 27.2188 113.703 28.4062 114.422C29.625 115.141 30.9375 115.5 32.3438 115.5C34.1562 115.5 35.625 115.25 36.75 114.75C37.875 114.219 39.0625 113.453 40.3125 112.453V120.938C39.25 121.844 38.0156 122.531 36.6094 123C35.2031 123.469 33.6719 123.703 32.0156 123.703ZM54.1406 123.703C52.3594 123.703 50.6875 123.25 49.125 122.344C47.5625 121.438 46.2812 120.047 45.2812 118.172C44.3125 116.266 43.8281 113.875 43.8281 111C43.8281 108.312 44.3125 106.031 45.2812 104.156C46.2812 102.281 47.5938 100.859 49.2188 99.8906C50.875 98.8906 52.6719 98.3906 54.6094 98.3906C55.8594 98.3906 57.0781 98.6719 58.2656 99.2344C59.4844 99.7656 60.4844 100.453 61.2656 101.297V99.0938H69.3281V123H61.2656V119.016C60.6719 120.328 59.7656 121.438 58.5469 122.344C57.3281 123.25 55.8594 123.703 54.1406 123.703ZM56.5312 115.547C57.2188 115.547 57.9219 115.375 58.6406 115.031C59.3594 114.656 59.9688 114.109 60.4688 113.391C61 112.641 61.2656 111.688 61.2656 110.531V108.234C60.5781 107.672 59.7969 107.203 58.9219 106.828C58.0781 106.453 57.2031 106.266 56.2969 106.266C55.5156 106.266 54.8125 106.484 54.1875 106.922C53.5938 107.359 53.125 107.938 52.7812 108.656C52.4375 109.375 52.2656 110.156 52.2656 111C52.2656 111.844 52.4375 112.609 52.7812 113.297C53.1562 113.984 53.6562 114.531 54.2812 114.938C54.9375 115.344 55.6875 115.547 56.5312 115.547ZM75.8906 123V99.0938H83.9531V123H75.8906ZM83.9531 110.719V103.359C84.7031 102.078 85.5312 100.969 86.4375 100.031C87.375 99.0938 88.5938 98.625 90.0938 98.625C90.9062 98.625 91.6094 98.7656 92.2031 99.0469V107.953C91.7344 107.703 91.2344 107.516 90.7031 107.391C90.2031 107.234 89.6094 107.156 88.9219 107.156C87.8281 107.156 86.8594 107.484 86.0156 108.141C85.1719 108.797 84.4844 109.656 83.9531 110.719ZM106.922 123.703C105.422 123.703 104.016 123.359 102.703 122.672C101.422 121.984 100.375 121 99.5625 119.719C98.7812 118.438 98.3906 116.891 98.3906 115.078V105.422H95.0156V100.5C96.5469 100.094 97.7812 99.25 98.7188 97.9688C99.6875 96.6875 100.516 95.0312 101.203 93H106.453V99.0938H113.203V105.422H106.453V112.125C106.453 113.281 106.672 114.203 107.109 114.891C107.578 115.547 108.359 115.875 109.453 115.875C110.391 115.875 111.156 115.719 111.75 115.406C112.375 115.062 112.984 114.719 113.578 114.375V121.125C113.078 121.812 112.234 122.422 111.047 122.953C109.859 123.453 108.484 123.703 106.922 123.703Z" fill="#E6AB07"/>
<path d="M25.8281 122.625L25.1161 124.494L25.1339 124.501L25.1517 124.507L25.8281 122.625ZM20.4844 119.391L19.1464 120.877L19.1538 120.884L19.1611 120.89L20.4844 119.391ZM16.7344 114.234L14.9079 115.049L14.9131 115.061L14.9185 115.072L16.7344 114.234ZM16.7344 100.359L14.9185 99.5213L14.9131 99.5328L14.9079 99.5445L16.7344 100.359ZM20.4844 95.2031L19.1611 93.7034L19.1538 93.71L19.1464 93.7165L20.4844 95.2031ZM25.8281 92.0156L26.514 93.8943L26.5222 93.8913L26.5304 93.8883L25.8281 92.0156ZM40.3125 93.6562H42.3125V92.7334L41.6104 92.1346L40.3125 93.6562ZM40.3125 102.141L39.0206 103.667L42.3125 106.453V102.141H40.3125ZM37.9219 100.453L36.9141 102.181L36.9293 102.19L36.9447 102.198L37.9219 100.453ZM35.4844 99.4688L34.9349 101.392L34.967 101.401L34.9993 101.409L35.4844 99.4688ZM28.4062 100.172L27.3903 98.4491L27.3804 98.455L27.3706 98.4609L28.4062 100.172ZM25.5 103.125L27.2033 104.173L27.2092 104.164L27.215 104.154L25.5 103.125ZM25.5 111.516L23.785 112.545L23.7908 112.554L23.7967 112.564L25.5 111.516ZM28.4062 114.422L27.3706 116.133L27.3804 116.139L27.3903 116.145L28.4062 114.422ZM36.75 114.75L37.5623 116.578L37.5833 116.568L37.604 116.558L36.75 114.75ZM40.3125 112.453H42.3125V108.292L39.0631 110.891L40.3125 112.453ZM40.3125 120.938L41.6104 122.459L42.3125 121.86V120.938H40.3125ZM32.0156 123.703V121.703C30.1212 121.703 28.2876 121.384 26.5045 120.743L25.8281 122.625L25.1517 124.507C27.3687 125.304 29.66 125.703 32.0156 125.703V123.703ZM25.8281 122.625L26.5401 120.756C24.7976 120.092 23.2231 119.14 21.8076 117.891L20.4844 119.391L19.1611 120.89C20.9332 122.454 22.9211 123.658 25.1161 124.494L25.8281 122.625ZM20.4844 119.391L21.8223 117.904C20.4742 116.691 19.3815 115.197 18.5503 113.396L16.7344 114.234L14.9185 115.072C15.9622 117.334 17.3695 119.278 19.1464 120.877L20.4844 119.391ZM16.7344 114.234L18.5608 113.419C17.7864 111.684 17.375 109.656 17.375 107.297H15.375H13.375C13.375 110.125 13.8698 112.722 14.9079 115.049L16.7344 114.234ZM15.375 107.297H17.375C17.375 104.938 17.7864 102.91 18.5608 101.174L16.7344 100.359L14.9079 99.5445C13.8698 101.871 13.375 104.469 13.375 107.297H15.375ZM16.7344 100.359L18.5503 101.197C19.3815 99.3965 20.4742 97.903 21.8223 96.6897L20.4844 95.2031L19.1464 93.7165C17.3695 95.3158 15.9622 97.2597 14.9185 99.5213L16.7344 100.359ZM20.4844 95.2031L21.8076 96.7028C23.2171 95.4591 24.7828 94.5264 26.514 93.8943L25.8281 92.0156L25.1422 90.1369C22.9359 90.9424 20.9391 92.1346 19.1611 93.7034L20.4844 95.2031ZM25.8281 92.0156L26.5304 93.8883C28.307 93.222 30.1317 92.8906 32.0156 92.8906V90.8906V88.8906C29.6495 88.8906 27.3492 89.3092 25.1259 90.143L25.8281 92.0156ZM32.0156 90.8906V92.8906C33.4819 92.8906 34.797 93.0978 35.9769 93.4911L36.6094 91.5938L37.2418 89.6964C35.6092 89.1522 33.8619 88.8906 32.0156 88.8906V90.8906ZM36.6094 91.5938L35.9769 93.4911C37.1544 93.8836 38.1595 94.4486 39.0146 95.1779L40.3125 93.6562L41.6104 92.1346C40.3405 91.0514 38.8768 90.2414 37.2418 89.6964L36.6094 91.5938ZM40.3125 93.6562H38.3125V102.141H40.3125H42.3125V93.6562H40.3125ZM40.3125 102.141L41.6044 100.614C40.7119 99.8587 39.8105 99.2185 38.8991 98.7081L37.9219 100.453L36.9447 102.198C37.5957 102.563 38.2881 103.048 39.0206 103.667L40.3125 102.141ZM37.9219 100.453L38.9296 98.7256C38.0101 98.1892 37.0207 97.7913 35.9694 97.5285L35.4844 99.4688L34.9993 101.409C35.698 101.584 36.3337 101.842 36.9141 102.181L37.9219 100.453ZM35.4844 99.4688L36.0338 97.5457C34.9314 97.2307 33.6897 97.0938 32.3438 97.0938V99.0938V101.094C33.4353 101.094 34.2874 101.207 34.9349 101.392L35.4844 99.4688ZM32.3438 99.0938V97.0938C30.5778 97.0938 28.9148 97.55 27.3903 98.4491L28.4062 100.172L29.4222 101.895C30.3352 101.356 31.2972 101.094 32.3438 101.094V99.0938ZM28.4062 100.172L27.3706 98.4609C25.8904 99.3568 24.6939 100.581 23.785 102.096L25.5 103.125L27.215 104.154C27.8061 103.169 28.5471 102.424 29.4419 101.883L28.4062 100.172ZM25.5 103.125L23.7967 102.077C22.835 103.639 22.375 105.399 22.375 107.297H24.375H26.375C26.375 106.069 26.665 105.048 27.2033 104.173L25.5 103.125ZM24.375 107.297H22.375C22.375 109.195 22.8351 110.961 23.785 112.545L25.5 111.516L27.215 110.487C26.6649 109.57 26.375 108.524 26.375 107.297H24.375ZM25.5 111.516L23.7967 112.564C24.708 114.045 25.9024 115.244 27.3706 116.133L28.4062 114.422L29.4419 112.711C28.5351 112.162 27.792 111.424 27.2033 110.467L25.5 111.516ZM28.4062 114.422L27.3903 116.145C28.9148 117.044 30.5778 117.5 32.3438 117.5V115.5V113.5C31.2972 113.5 30.3352 113.238 29.4222 112.699L28.4062 114.422ZM32.3438 115.5V117.5C34.3151 117.5 36.0903 117.232 37.5623 116.578L36.75 114.75L35.9377 112.922C35.1597 113.268 33.9974 113.5 32.3438 113.5V115.5ZM36.75 114.75L37.604 116.558C38.9034 115.945 40.2229 115.086 41.5619 114.015L40.3125 112.453L39.0631 110.891C37.9021 111.82 36.8466 112.493 35.896 112.942L36.75 114.75ZM40.3125 112.453H38.3125V120.938H40.3125H42.3125V112.453H40.3125ZM40.3125 120.938L39.0146 119.416C38.1595 120.145 37.1544 120.71 35.9769 121.103L36.6094 123L37.2418 124.897C38.8768 124.352 40.3405 123.542 41.6104 122.459L40.3125 120.938ZM36.6094 123L35.9769 121.103C34.797 121.496 33.4819 121.703 32.0156 121.703V123.703V125.703C33.8619 125.703 35.6092 125.442 37.2418 124.897L36.6094 123ZM45.2812 118.172L43.4983 119.078L43.5072 119.096L43.5165 119.113L45.2812 118.172ZM45.2812 104.156L43.5165 103.215L43.5104 103.227L43.5044 103.238L45.2812 104.156ZM49.2188 99.8906L50.2429 101.609L50.2525 101.603L49.2188 99.8906ZM58.2656 99.2344L57.4095 101.042L57.4378 101.055L57.4665 101.068L58.2656 99.2344ZM61.2656 101.297L59.7981 102.656L63.2656 106.401V101.297H61.2656ZM61.2656 99.0938V97.0938H59.2656V99.0938H61.2656ZM69.3281 99.0938H71.3281V97.0938H69.3281V99.0938ZM69.3281 123V125H71.3281V123H69.3281ZM61.2656 123H59.2656V125H61.2656V123ZM61.2656 119.016H63.2656L59.4434 118.191L61.2656 119.016ZM58.6406 115.031L59.5035 116.836L59.5349 116.821L59.5658 116.804L58.6406 115.031ZM60.4688 113.391L58.8367 112.235L58.8318 112.242L58.8269 112.248L60.4688 113.391ZM61.2656 108.234H63.2656V107.287L62.5321 106.686L61.2656 108.234ZM58.9219 106.828L58.1096 108.656L58.1218 108.661L58.134 108.666L58.9219 106.828ZM54.1875 106.922L53.0406 105.283L53.0207 105.297L53.0011 105.312L54.1875 106.922ZM52.7812 113.297L50.9924 114.191L51.0084 114.223L51.0255 114.255L52.7812 113.297ZM54.2812 114.938L53.1913 116.614L53.2098 116.626L53.2285 116.638L54.2812 114.938ZM54.1406 123.703V121.703C52.717 121.703 51.3906 121.346 50.1284 120.614L49.125 122.344L48.1216 124.074C49.9844 125.154 52.0018 125.703 54.1406 125.703V123.703ZM49.125 122.344L50.1284 120.614C48.9414 119.925 47.902 118.836 47.046 117.231L45.2812 118.172L43.5165 119.113C44.6605 121.258 46.1836 122.95 48.1216 124.074L49.125 122.344ZM45.2812 118.172L47.0642 117.266C46.2786 115.72 45.8281 113.664 45.8281 111H43.8281H41.8281C41.8281 114.086 42.3464 116.811 43.4983 119.078L45.2812 118.172ZM43.8281 111H45.8281C45.8281 108.547 46.2706 106.599 47.0581 105.074L45.2812 104.156L43.5044 103.238C42.3544 105.464 41.8281 108.078 41.8281 111H43.8281ZM45.2812 104.156L47.046 105.097C47.8961 103.503 48.9682 102.368 50.2429 101.609L49.2188 99.8906L48.1946 98.1727C46.2193 99.3503 44.6664 101.059 43.5165 103.215L45.2812 104.156ZM49.2188 99.8906L50.2525 101.603C51.5963 100.791 53.0357 100.391 54.6094 100.391V98.3906V96.3906C52.3081 96.3906 50.1537 96.9899 48.185 98.1785L49.2188 99.8906ZM54.6094 98.3906V100.391C55.5481 100.391 56.4755 100.599 57.4095 101.042L58.2656 99.2344L59.1218 97.4269C57.6807 96.7443 56.1706 96.3906 54.6094 96.3906V98.3906ZM58.2656 99.2344L57.4665 101.068C58.4713 101.506 59.2315 102.044 59.7981 102.656L61.2656 101.297L62.7331 99.9381C61.7372 98.8625 60.4975 98.0255 59.0648 97.401L58.2656 99.2344ZM61.2656 101.297H63.2656V99.0938H61.2656H59.2656V101.297H61.2656ZM61.2656 99.0938V101.094H69.3281V99.0938V97.0938H61.2656V99.0938ZM69.3281 99.0938H67.3281V123H69.3281H71.3281V99.0938H69.3281ZM69.3281 123V121H61.2656V123V125H69.3281V123ZM61.2656 123H63.2656V119.016H61.2656H59.2656V123H61.2656ZM61.2656 119.016L59.4434 118.191C58.9973 119.177 58.3151 120.024 57.3535 120.739L58.5469 122.344L59.7403 123.949C61.2162 122.851 62.3465 121.479 63.0878 119.84L61.2656 119.016ZM58.5469 122.344L57.3535 120.739C56.5244 121.355 55.4887 121.703 54.1406 121.703V123.703V125.703C56.2301 125.703 58.1319 125.145 59.7403 123.949L58.5469 122.344ZM56.5312 115.547V117.547C57.5614 117.547 58.5581 117.288 59.5035 116.836L58.6406 115.031L57.7777 113.227C57.2857 113.462 56.8761 113.547 56.5312 113.547V115.547ZM58.6406 115.031L59.5658 116.804C60.5934 116.268 61.4412 115.495 62.1106 114.533L60.4688 113.391L58.8269 112.248C58.4963 112.724 58.1253 113.044 57.7155 113.258L58.6406 115.031ZM60.4688 113.391L62.1008 114.547C62.9269 113.38 63.2656 111.994 63.2656 110.531H61.2656H59.2656C59.2656 111.381 59.0731 111.901 58.8367 112.235L60.4688 113.391ZM61.2656 110.531H63.2656V108.234H61.2656H59.2656V110.531H61.2656ZM61.2656 108.234L62.5321 106.686C61.6894 105.997 60.7448 105.433 59.7097 104.99L58.9219 106.828L58.134 108.666C58.849 108.973 59.4668 109.347 59.9991 109.782L61.2656 108.234ZM58.9219 106.828L59.7342 105.001C58.6396 104.514 57.4883 104.266 56.2969 104.266V106.266V108.266C56.9179 108.266 57.5166 108.392 58.1096 108.656L58.9219 106.828ZM56.2969 106.266V104.266C55.1158 104.266 54.0103 104.605 53.0406 105.283L54.1875 106.922L55.3344 108.56C55.6147 108.364 55.9154 108.266 56.2969 108.266V106.266ZM54.1875 106.922L53.0011 105.312C52.1223 105.959 51.4506 106.803 50.977 107.793L52.7812 108.656L54.5855 109.519C54.7994 109.072 55.0652 108.759 55.3739 108.532L54.1875 106.922ZM52.7812 108.656L50.977 107.793C50.4968 108.797 50.2656 109.876 50.2656 111H52.2656H54.2656C54.2656 110.437 54.3782 109.953 54.5855 109.519L52.7812 108.656ZM52.2656 111H50.2656C50.2656 112.123 50.4966 113.2 50.9924 114.191L52.7812 113.297L54.5701 112.402C54.3784 112.019 54.2656 111.564 54.2656 111H52.2656ZM52.7812 113.297L51.0255 114.255C51.551 115.218 52.2739 116.018 53.1913 116.614L54.2812 114.938L55.3712 113.261C55.0386 113.044 54.7615 112.751 54.537 112.339L52.7812 113.297ZM54.2812 114.938L53.2285 116.638C54.2302 117.258 55.3515 117.547 56.5312 117.547V115.547V113.547C56.0235 113.547 55.6448 113.429 55.334 113.237L54.2812 114.938ZM75.8906 123H73.8906V125H75.8906V123ZM75.8906 99.0938V97.0938H73.8906V99.0938H75.8906ZM83.9531 99.0938H85.9531V97.0938H83.9531V99.0938ZM83.9531 123V125H85.9531V123H83.9531ZM83.9531 110.719H81.9531L85.742 111.613L83.9531 110.719ZM83.9531 103.359L82.2271 102.349L81.9531 102.817V103.359H83.9531ZM86.4375 100.031L85.0233 98.617L85.0113 98.629L84.9995 98.6412L86.4375 100.031ZM92.2031 99.0469H94.2031V97.7812L93.0593 97.2394L92.2031 99.0469ZM92.2031 107.953L91.2619 109.718L94.2031 111.286V107.953H92.2031ZM90.7031 107.391L90.1066 109.3L90.1751 109.321L90.245 109.337L90.7031 107.391ZM75.8906 123H77.8906V99.0938H75.8906H73.8906V123H75.8906ZM75.8906 99.0938V101.094H83.9531V99.0938V97.0938H75.8906V99.0938ZM83.9531 99.0938H81.9531V123H83.9531H85.9531V99.0938H83.9531ZM83.9531 123V121H75.8906V123V125H83.9531V123ZM83.9531 110.719H85.9531V103.359H83.9531H81.9531V110.719H83.9531ZM83.9531 103.359L85.6792 104.37C86.3595 103.207 87.0941 102.23 87.8755 101.421L86.4375 100.031L84.9995 98.6412C83.9684 99.7079 83.0467 100.949 82.2271 102.349L83.9531 103.359ZM86.4375 100.031L87.8517 101.445C88.3637 100.934 89.0482 100.625 90.0938 100.625V98.625V96.625C88.1393 96.625 86.3863 97.254 85.0233 98.617L86.4375 100.031ZM90.0938 98.625V100.625C90.6786 100.625 91.0765 100.726 91.347 100.854L92.2031 99.0469L93.0593 97.2394C92.1423 96.805 91.1339 96.625 90.0938 96.625V98.625ZM92.2031 99.0469H90.2031V107.953H92.2031H94.2031V99.0469H92.2031ZM92.2031 107.953L93.1443 106.188C92.5189 105.855 91.8561 105.607 91.1612 105.444L90.7031 107.391L90.245 109.337C90.6127 109.424 90.9498 109.551 91.2619 109.718L92.2031 107.953ZM90.7031 107.391L91.2997 105.482C90.5571 105.25 89.7523 105.156 88.9219 105.156V107.156V109.156C89.4664 109.156 89.8492 109.219 90.1066 109.3L90.7031 107.391ZM88.9219 107.156V105.156C87.3945 105.156 85.9913 105.626 84.7877 106.562L86.0156 108.141L87.2435 109.719C87.7275 109.343 88.2617 109.156 88.9219 109.156V107.156ZM86.0156 108.141L84.7877 106.562C83.6831 107.421 82.8141 108.525 82.1643 109.824L83.9531 110.719L85.742 111.613C86.1547 110.788 86.6606 110.173 87.2435 109.719L86.0156 108.141ZM102.703 122.672L101.757 124.434L101.766 124.439L101.775 124.444L102.703 122.672ZM99.5625 119.719L97.8549 120.76L97.8641 120.775L97.8735 120.79L99.5625 119.719ZM98.3906 105.422H100.391V103.422H98.3906V105.422ZM95.0156 105.422H93.0156V107.422H95.0156V105.422ZM95.0156 100.5L94.5028 98.5669L93.0156 98.9614V100.5H95.0156ZM98.7188 97.9688L97.1234 96.7625L97.114 96.7751L97.1047 96.7877L98.7188 97.9688ZM101.203 93V91H99.7686L99.3087 92.3588L101.203 93ZM106.453 93H108.453V91H106.453V93ZM106.453 99.0938H104.453V101.094H106.453V99.0938ZM113.203 99.0938H115.203V97.0938H113.203V99.0938ZM113.203 105.422V107.422H115.203V105.422H113.203ZM106.453 105.422V103.422H104.453V105.422H106.453ZM107.109 114.891L105.422 115.964L105.451 116.01L105.482 116.053L107.109 114.891ZM111.75 115.406L112.681 117.176L112.698 117.168L112.714 117.159L111.75 115.406ZM113.578 114.375H115.578V110.906L112.576 112.644L113.578 114.375ZM113.578 121.125L115.196 122.301L115.578 121.775V121.125H113.578ZM111.047 122.953L111.823 124.796L111.843 124.788L111.864 124.779L111.047 122.953ZM106.922 123.703V121.703C105.741 121.703 104.654 121.436 103.631 120.9L102.703 122.672L101.775 124.444C103.378 125.283 105.103 125.703 106.922 125.703V123.703ZM102.703 122.672L103.649 120.91C102.684 120.392 101.888 119.652 101.252 118.648L99.5625 119.719L97.8735 120.79C98.8619 122.348 100.16 123.577 101.757 124.434L102.703 122.672ZM99.5625 119.719L101.27 118.678C100.716 117.769 100.391 116.6 100.391 115.078H98.3906H96.3906C96.3906 117.181 96.8461 119.106 97.8549 120.76L99.5625 119.719ZM98.3906 115.078H100.391V105.422H98.3906H96.3906V115.078H98.3906ZM98.3906 105.422V103.422H95.0156V105.422V107.422H98.3906V105.422ZM95.0156 105.422H97.0156V100.5H95.0156H93.0156V105.422H95.0156ZM95.0156 100.5L95.5285 102.433C97.5031 101.909 99.1257 100.799 100.333 99.1498L98.7188 97.9688L97.1047 96.7877C96.4368 97.7005 95.5907 98.2782 94.5028 98.5669L95.0156 100.5ZM98.7188 97.9688L100.314 99.175C101.447 97.6762 102.363 95.8119 103.098 93.6412L101.203 93L99.3087 92.3588C98.6684 94.2506 97.9277 95.6988 97.1234 96.7625L98.7188 97.9688ZM101.203 93V95H106.453V93V91H101.203V93ZM106.453 93H104.453V99.0938H106.453H108.453V93H106.453ZM106.453 99.0938V101.094H113.203V99.0938V97.0938H106.453V99.0938ZM113.203 99.0938H111.203V105.422H113.203H115.203V99.0938H113.203ZM113.203 105.422V103.422H106.453V105.422V107.422H113.203V105.422ZM106.453 105.422H104.453V112.125H106.453H108.453V105.422H106.453ZM106.453 112.125H104.453C104.453 113.51 104.712 114.848 105.422 115.964L107.109 114.891L108.797 113.817C108.632 113.558 108.453 113.053 108.453 112.125H106.453ZM107.109 114.891L105.482 116.053C106.451 117.41 107.964 117.875 109.453 117.875V115.875V113.875C109.098 113.875 108.907 113.821 108.821 113.785C108.755 113.757 108.744 113.739 108.737 113.728L107.109 114.891ZM109.453 115.875V117.875C110.594 117.875 111.709 117.688 112.681 117.176L111.75 115.406L110.819 113.636C110.603 113.75 110.188 113.875 109.453 113.875V115.875ZM111.75 115.406L112.714 117.159C113.351 116.808 113.973 116.457 114.58 116.106L113.578 114.375L112.576 112.644C111.995 112.98 111.399 113.317 110.786 113.654L111.75 115.406ZM113.578 114.375H111.578V121.125H113.578H115.578V114.375H113.578ZM113.578 121.125L111.961 119.949C111.747 120.242 111.254 120.669 110.23 121.127L111.047 122.953L111.864 124.779C113.215 124.174 114.409 123.383 115.196 122.301L113.578 121.125ZM111.047 122.953L110.271 121.11C109.375 121.487 108.273 121.703 106.922 121.703V123.703V125.703C108.696 125.703 110.343 125.419 111.823 124.796L111.047 122.953Z" fill="#050412" mask="url(#path-17-outside-1_695_2737)"/>
<defs>
<linearGradient id="paint0_linear_695_2737" x1="87.3145" y1="25.5" x2="37.3145" y2="25.5" gradientUnits="userSpaceOnUse">
<stop stop-color="white" stop-opacity="0.15"/>
<stop offset="0.34" stop-color="#DFA607" stop-opacity="0.5"/>
<stop offset="0.475" stop-color="#5E4500" stop-opacity="0.9"/>
<stop offset="0.655" stop-color="#DFA607" stop-opacity="0.5"/>
<stop offset="0.995" stop-color="white" stop-opacity="0.15"/>
</linearGradient>
<linearGradient id="paint1_linear_695_2737" x1="85.6026" y1="15.8948" x2="39.4086" y2="35.029" gradientUnits="userSpaceOnUse">
<stop stop-color="white" stop-opacity="0.15"/>
<stop offset="0.34" stop-color="#DFA607" stop-opacity="0.5"/>
<stop offset="0.475" stop-color="#5E4500" stop-opacity="0.9"/>
<stop offset="0.655" stop-color="#DFA607" stop-opacity="0.5"/>
<stop offset="0.995" stop-color="white" stop-opacity="0.15"/>
</linearGradient>
<linearGradient id="paint2_linear_695_2737" x1="85.2199" y1="35.029" x2="39.0259" y2="15.8949" gradientUnits="userSpaceOnUse">
<stop stop-color="white" stop-opacity="0.15"/>
<stop offset="0.34" stop-color="#DFA607" stop-opacity="0.5"/>
<stop offset="0.475" stop-color="#5E4500" stop-opacity="0.9"/>
<stop offset="0.655" stop-color="#DFA607" stop-opacity="0.5"/>
<stop offset="0.995" stop-color="white" stop-opacity="0.15"/>
</linearGradient>
<linearGradient id="paint3_linear_695_2737" x1="62.8145" y1="0" x2="62.8145" y2="50" gradientUnits="userSpaceOnUse">
<stop stop-color="white" stop-opacity="0.15"/>
<stop offset="0.34" stop-color="#DFA607" stop-opacity="0.5"/>
<stop offset="0.475" stop-color="#5E4500" stop-opacity="0.9"/>
<stop offset="0.655" stop-color="#DFA607" stop-opacity="0.5"/>
<stop offset="0.995" stop-color="white" stop-opacity="0.15"/>
</linearGradient>
<linearGradient id="paint4_linear_695_2737" x1="72.3437" y1="2.09435" x2="53.2095" y2="48.2883" gradientUnits="userSpaceOnUse">
<stop stop-color="white" stop-opacity="0.15"/>
<stop offset="0.34" stop-color="#DFA607" stop-opacity="0.5"/>
<stop offset="0.475" stop-color="#5E4500" stop-opacity="0.9"/>
<stop offset="0.655" stop-color="#DFA607" stop-opacity="0.5"/>
<stop offset="0.995" stop-color="white" stop-opacity="0.15"/>
</linearGradient>
<linearGradient id="paint5_linear_695_2737" x1="71.4198" y1="48.2883" x2="52.2856" y2="2.09436" gradientUnits="userSpaceOnUse">
<stop stop-color="white" stop-opacity="0.15"/>
<stop offset="0.34" stop-color="#DFA607" stop-opacity="0.5"/>
<stop offset="0.475" stop-color="#5E4500" stop-opacity="0.9"/>
<stop offset="0.655" stop-color="#DFA607" stop-opacity="0.5"/>
<stop offset="0.995" stop-color="white" stop-opacity="0.15"/>
</linearGradient>
<linearGradient id="paint6_linear_695_2737" x1="79.6385" y1="43.0312" x2="44.2832" y2="7.67588" gradientUnits="userSpaceOnUse">
<stop stop-color="white" stop-opacity="0.15"/>
<stop offset="0.34" stop-color="#DFA607" stop-opacity="0.5"/>
<stop offset="0.475" stop-color="#5E4500" stop-opacity="0.9"/>
<stop offset="0.655" stop-color="#DFA607" stop-opacity="0.5"/>
<stop offset="0.995" stop-color="white" stop-opacity="0.15"/>
</linearGradient>
<linearGradient id="paint7_linear_695_2737" x1="80.3456" y1="7.67589" x2="44.9903" y2="43.0312" gradientUnits="userSpaceOnUse">
<stop stop-color="white" stop-opacity="0.15"/>
<stop offset="0.34" stop-color="#DFA607" stop-opacity="0.5"/>
<stop offset="0.475" stop-color="#5E4500" stop-opacity="0.9"/>
<stop offset="0.655" stop-color="#DFA607" stop-opacity="0.5"/>
<stop offset="0.995" stop-color="white" stop-opacity="0.15"/>
</linearGradient>
<clipPath id="clip0_695_2737">
<rect width="57" height="100" fill="white" transform="translate(36.3145)"/>
</clipPath>
</defs>
</svg>
