<svg width="31" height="32" viewBox="0 0 31 32" fill="none" xmlns="http://www.w3.org/2000/svg">
<path d="M26.3 1H4.69999C3.34626 1.23185 2.43287 1.57424 1.7763 2.27631L15.5 16L29.2181 2.28188C28.581 1.66064 27.6667 1.28947 26.3 1Z" fill="#0B1215"/>
<path d="M0.499992 5.2V26.8C1.10281 29.6369 2.02957 30.551 4.69999 31H26.3C28.8261 30.6094 29.811 29.7822 30.5 26.8V5.2C30.2399 3.83523 29.8774 2.92469 29.2181 2.28188L15.5 16L1.7763 2.27631C1.1893 2.90401 0.807579 3.81922 0.499992 5.2Z" fill="#0B1215"/>
<path d="M29.2181 2.28188C28.581 1.66064 27.6667 1.28947 26.3 1H4.69999C3.34626 1.23185 2.43287 1.57424 1.7763 2.27631M29.2181 2.28188C29.8774 2.92469 30.2399 3.83523 30.5 5.2V26.8C29.811 29.7822 28.8261 30.6094 26.3 31H4.69999C2.02957 30.551 1.10281 29.6369 0.499992 26.8V5.2C0.807579 3.81922 1.1893 2.90401 1.7763 2.27631M29.2181 2.28188L15.5 16L1.7763 2.27631" stroke="#A8A293"/>
</svg>
