<svg width="32" height="32" viewBox="0 0 32 32" fill="none" xmlns="http://www.w3.org/2000/svg">
<path d="M26.8 1H5.2C3.84626 1.23185 2.93288 1.57424 2.27631 2.27631L16 16L29.7181 2.28188C29.081 1.66064 28.1667 1.28947 26.8 1Z" fill="#0B1215"/>
<path d="M1 5.2V26.8C1.60282 29.6369 2.52958 30.551 5.2 31H26.8C29.3261 30.6094 30.311 29.7822 31 26.8V5.2C30.74 3.83523 30.3774 2.92469 29.7181 2.28188L16 16L2.27631 2.27631C1.6893 2.90401 1.30759 3.81922 1 5.2Z" fill="#0B1215"/>
<path d="M29.7181 2.28188C29.081 1.66064 28.1667 1.28947 26.8 1H5.2C3.84626 1.23185 2.93288 1.57424 2.27631 2.27631M29.7181 2.28188C30.3774 2.92469 30.74 3.83523 31 5.2V26.8C30.311 29.7822 29.3261 30.6094 26.8 31H5.2C2.52958 30.551 1.60282 29.6369 1 26.8V5.2C1.30759 3.81922 1.6893 2.90401 2.27631 2.27631M29.7181 2.28188L16 16L2.27631 2.27631" stroke="#E6AB07"/>
</svg>
