<svg width="174" height="181" viewBox="0 0 174 181" fill="none" xmlns="http://www.w3.org/2000/svg">
<line x1="40.7792" y1="35.2676" x2="110.988" y2="35.2676" stroke="url(#paint0_linear_341_732)" stroke-width="0.5"/>
<line x1="43.3557" y1="48.7201" x2="108.22" y2="21.8525" stroke="url(#paint1_linear_341_732)" stroke-width="0.5"/>
<line x1="43.5471" y1="21.853" x2="108.411" y2="48.7206" stroke="url(#paint2_linear_341_732)" stroke-width="0.5"/>
<line x1="75.6333" y1="70.6217" x2="75.6333" y2="0.413307" stroke="url(#paint3_linear_341_732)" stroke-width="0.5"/>
<line x1="62.2185" y1="67.8542" x2="89.0861" y2="2.99006" stroke="url(#paint4_linear_341_732)" stroke-width="0.5"/>
<line x1="62.6804" y1="2.98953" x2="89.548" y2="67.8536" stroke="url(#paint5_linear_341_732)" stroke-width="0.5"/>
<line x1="51.2376" y1="10.5183" x2="100.882" y2="60.1631" stroke="url(#paint6_linear_341_732)" stroke-width="0.5"/>
<line x1="50.884" y1="60.1633" x2="100.529" y2="10.5185" stroke="url(#paint7_linear_341_732)" stroke-width="0.5"/>
<path d="M78.7668 34.6194L80.3477 33.7733H77.9875L80.3477 32.2592C74.7279 31.9283 72.2373 32.1988 71.0849 34.9534C66.528 35.4935 65.5952 36.8307 64.65 39.6739C67.5831 38.1562 69.0632 38.1991 71.3967 39.9411C72.1571 40.7596 72.3356 41.2132 72.2205 42.0118C70.7049 47.6069 71.8807 50.659 77.6535 55.9506C77.6841 57.5892 78.0591 58.552 79.2789 60.337C80.9526 60.6455 81.5771 60.3914 81.7728 58.6893C82.7299 60.3306 83.269 61.3452 84.1775 61.1832C86.0882 60.7236 86.492 60.1094 86.6046 58.6893C89.4472 64.2299 91.0248 68.548 93.9525 67.7072C98.0173 70.1889 98.0123 69.1195 94.8876 63.8551C103.492 69.0207 99.5119 64.0931 92.0375 54.9708C93.9562 55.2388 93.9231 54.8095 91.0801 52.5883C92.8864 52.4347 93.4869 52.2039 89.2097 49.9164C93.5294 50.807 87.7179 48.2241 85.0236 42.0118C81.038 40.4309 81.9112 35.6673 78.7668 34.6194Z" fill="#0B1215"/>
<path d="M75.4046 36.3116C78.3406 38.1154 78.3406 35.4826 78.7668 34.6194M75.4046 36.3116C74.8791 34.4683 73.4452 34.3077 72.5545 35.7995C72.5091 36.6548 72.8795 37.0276 74.0241 37.5618M75.4046 36.3116L74.0241 37.5618M75.4046 36.3116C77.9875 38.093 75.1597 44.6068 72.2205 42.0118M78.7668 34.6194L80.3477 33.7733H77.9875L80.3477 32.2592C74.7279 31.9283 72.2373 32.1988 71.0849 34.9534C66.528 35.4935 65.5952 36.8307 64.65 39.6739C67.5831 38.1562 69.0632 38.1991 71.3967 39.9411M78.7668 34.6194C81.9112 35.6673 81.038 40.4309 85.0236 42.0118C87.7179 48.2241 93.5294 50.807 89.2097 49.9164C93.4869 52.2039 92.8864 52.4347 91.0801 52.5883C93.9231 54.8095 93.9562 55.2388 92.0375 54.9708C99.5119 64.0931 103.492 69.0207 94.8876 63.8551C98.0123 69.1195 98.0173 70.1889 93.9525 67.7072C91.0248 68.548 89.4472 64.2299 86.6046 58.6893C86.492 60.1094 86.0882 60.7236 84.1775 61.1832M71.3967 39.9411C73.777 39.1685 73.2505 38.642 74.0241 37.5618M71.3967 39.9411C72.1571 40.7596 72.3356 41.2132 72.2205 42.0118M72.2205 42.0118C70.7049 47.6069 71.8807 50.659 77.6535 55.9506C77.6841 57.5892 78.0591 58.552 79.2789 60.337M79.2789 60.337L75.8277 65.0798M79.2789 60.337C80.9526 60.6455 81.5771 60.3914 81.7728 58.6893C82.7299 60.3306 83.269 61.3452 84.1775 61.1832M84.1775 61.1832L82.2404 66.1931" stroke="#E6AB07" stroke-width="0.75"/>
<path d="M42.0378 137.06C39.5747 130.297 39.8288 127.288 44.2795 125.434C42.4138 121.362 43.1589 118.735 45.9448 113.777C45.4701 110.427 45.6697 108.589 47.6101 105.451C44.4894 102.745 43.3442 101.252 45.9448 98.7899C44.6143 94.9694 45.3446 92.7693 47.6101 88.7984C52.0612 80.1593 54.9121 76.0182 60.9321 70.4806C58.8653 69.0582 59.7273 68.8349 62.5974 68.8153C52.6057 63.82 84.2456 62.1546 100.898 73.8111C103.996 76.3217 104.263 77.1577 100.898 77.1416C103.74 80.4161 102.563 80.4725 97.5676 80.4725C106.307 84.6213 111.511 89.2747 109.225 98.7899C116.878 105.813 121.362 109.802 117.551 113.777C120.847 116.088 122.642 117.363 119.216 117.108C122.387 120.771 123.839 122.753 122.547 125.434C125.591 129.107 128.095 130.999 127.542 135.426C130.975 142.162 131.605 144.17 129.208 150.413H92.5719C93.3963 144.588 94.3014 139.648 97.5678 133.76C95.7634 129 96.0889 126.069 99.2331 120.438C96.1199 119.804 95.522 117.377 95.9026 110.447C90.9068 108.782 91.3427 103.645 87.5763 102.12C87.5763 100.456 78.569 97.5651 80.9152 93.7942C74.5667 93.444 70.9131 96.2944 64.2626 105.451C62.2679 110.827 60.6504 113.514 55.9363 117.108C62.812 126.532 64.4051 129.594 65.9279 133.76C67.3311 138.927 65.9279 143.752 62.5974 147.083L65.9277 150.413H45.9446H35.9531C30.0662 147.869 32.3802 144.977 35.9533 142.912C35.4173 142.677 34.8667 142.403 34.288 142.087C32.9678 140.259 33.4248 139.164 35.9533 137.091C38.45 136.935 40.4628 136.908 42.0378 137.06Z" fill="#0B1215"/>
<path d="M42.0378 137.06C39.5747 130.297 39.8288 127.288 44.2795 125.434C42.4138 121.362 43.1589 118.735 45.9448 113.777C45.4701 110.427 45.6697 108.589 47.6101 105.451C44.4894 102.745 43.3442 101.252 45.9448 98.7899C44.6143 94.9695 45.3446 92.7693 47.6101 88.7984C52.0612 80.1593 54.9121 76.0182 60.9321 70.4806C58.8653 69.0582 59.7273 68.8349 62.5974 68.8153C52.6057 63.82 84.2456 62.1546 100.898 73.8111C103.996 76.3217 104.263 77.1577 100.898 77.1416C103.74 80.4161 102.563 80.4725 97.5676 80.4725C106.307 84.6213 111.511 89.2747 109.225 98.7899C116.878 105.813 121.362 109.802 117.551 113.777C120.847 116.088 122.642 117.363 119.216 117.108C122.387 120.771 123.839 122.753 122.547 125.434C125.591 129.107 128.095 130.999 127.542 135.426C130.975 142.162 131.605 144.17 129.208 150.413H92.5719C93.3963 144.588 94.3014 139.648 97.5678 133.76C95.7634 129 96.0889 126.069 99.2331 120.438C96.1199 119.804 95.522 117.377 95.9026 110.447C90.9068 108.782 91.3427 103.645 87.5763 102.12C87.5763 100.456 78.569 97.5651 80.9152 93.7942C74.5667 93.444 70.9131 96.2944 64.2626 105.451C62.2679 110.827 60.6504 113.514 55.9363 117.108C62.812 126.532 64.4051 129.594 65.9279 133.76C67.3311 138.927 65.9279 143.752 62.5974 147.083L65.9277 150.413H35.9531M45.9449 143.752C47.9737 137.792 45.5056 136.493 35.9533 137.091C33.4248 139.164 32.9678 140.259 34.288 142.087C38.1122 144.174 40.7141 144.435 45.9449 143.752ZM45.9449 143.752C47.6715 145.486 47.7404 148.237 45.9446 150.413H35.9531M35.9531 150.413C30.0662 147.869 32.3802 144.977 35.9533 142.912" stroke="#A8A293"/>
<mask id="path-13-outside-1_341_732" maskUnits="userSpaceOnUse" x="0.5" y="130.276" width="173" height="50" fill="black">
<rect fill="white" x="0.5" y="130.276" width="173" height="50"/>
<path d="M20.0156 166.979C17.8906 166.979 15.8281 166.619 13.8281 165.901C11.8594 165.151 10.0781 164.073 8.48438 162.666C6.92188 161.26 5.67188 159.541 4.73438 157.51C3.82812 155.479 3.375 153.166 3.375 150.573C3.375 147.979 3.82812 145.666 4.73438 143.635C5.67188 141.604 6.92188 139.885 8.48438 138.479C10.0781 137.073 11.8594 136.01 13.8281 135.291C15.8281 134.541 17.8906 134.166 20.0156 134.166C21.6719 134.166 23.2031 134.401 24.6094 134.869C26.0156 135.338 27.25 136.026 28.3125 136.932V145.416C27.5 144.729 26.7031 144.166 25.9219 143.729C25.1719 143.291 24.3594 142.963 23.4844 142.744C22.6094 142.494 21.5625 142.369 20.3438 142.369C18.9375 142.369 17.625 142.729 16.4062 143.448C15.2188 144.166 14.25 145.151 13.5 146.401C12.75 147.619 12.375 149.01 12.375 150.573C12.375 152.135 12.75 153.541 13.5 154.791C14.25 156.01 15.2188 156.979 16.4062 157.698C17.625 158.416 18.9375 158.776 20.3438 158.776C21.0938 158.776 21.7656 158.713 22.3594 158.588C22.9844 158.432 23.5156 158.244 23.9531 158.026C24.4219 157.776 24.7812 157.51 25.0312 157.229L31.5 162.104C30.5312 163.135 29.4531 164.01 28.2656 164.729C27.0781 165.448 25.7969 165.994 24.4219 166.369C23.0469 166.776 21.5781 166.979 20.0156 166.979ZM23.9531 164.916V155.119V155.073V149.448H31.5V162.104L23.9531 164.916ZM46.0312 166.979C44.25 166.979 42.5781 166.526 41.0156 165.619C39.4531 164.713 38.1719 163.323 37.1719 161.448C36.2031 159.541 35.7188 157.151 35.7188 154.276C35.7188 151.588 36.2031 149.307 37.1719 147.432C38.1719 145.557 39.4844 144.135 41.1094 143.166C42.7656 142.166 44.5625 141.666 46.5 141.666C47.75 141.666 48.9688 141.948 50.1562 142.51C51.375 143.041 52.375 143.729 53.1562 144.573V142.369H61.2188V166.276H53.1562V162.291C52.5625 163.604 51.6562 164.713 50.4375 165.619C49.2188 166.526 47.75 166.979 46.0312 166.979ZM48.4219 158.823C49.1094 158.823 49.8125 158.651 50.5312 158.307C51.25 157.932 51.8594 157.385 52.3594 156.666C52.8906 155.916 53.1562 154.963 53.1562 153.807V151.51C52.4688 150.948 51.6875 150.479 50.8125 150.104C49.9688 149.729 49.0938 149.541 48.1875 149.541C47.4062 149.541 46.7031 149.76 46.0781 150.198C45.4844 150.635 45.0156 151.213 44.6719 151.932C44.3281 152.651 44.1562 153.432 44.1562 154.276C44.1562 155.119 44.3281 155.885 44.6719 156.573C45.0469 157.26 45.5469 157.807 46.1719 158.213C46.8281 158.619 47.5781 158.823 48.4219 158.823ZM67.7812 166.276V132.526H75.8438V166.276H67.7812ZM82.4062 166.276V132.526H90.4688V166.276H82.4062ZM108.562 166.979C106.875 166.979 105.234 166.698 103.641 166.135C102.078 165.573 100.672 164.76 99.4219 163.698C98.1719 162.635 97.1875 161.354 96.4688 159.854C95.75 158.323 95.3906 156.604 95.3906 154.698C95.3906 152.323 95.9375 150.151 97.0312 148.182C98.1562 146.213 99.6719 144.635 101.578 143.448C103.516 142.26 105.688 141.666 108.094 141.666C110.344 141.666 112.344 142.166 114.094 143.166C115.844 144.166 117.203 145.573 118.172 147.385C119.172 149.166 119.672 151.291 119.672 153.76V156.526H102.75V151.651H112.031C112.031 150.901 111.828 150.276 111.422 149.776C111.016 149.276 110.5 148.916 109.875 148.698C109.25 148.448 108.578 148.323 107.859 148.323C106.922 148.323 106.094 148.557 105.375 149.026C104.688 149.463 104.141 150.151 103.734 151.088C103.328 152.026 103.125 153.229 103.125 154.698C103.125 155.885 103.375 156.869 103.875 157.651C104.406 158.432 105.125 159.01 106.031 159.385C106.938 159.76 107.938 159.948 109.031 159.948C110.844 159.948 112.406 159.698 113.719 159.198C115.062 158.666 116.062 158.213 116.719 157.838V164.729C116.188 165.073 115.5 165.416 114.656 165.76C113.844 166.104 112.922 166.385 111.891 166.604C110.859 166.854 109.75 166.979 108.562 166.979ZM124.125 166.276V142.369H132.188V166.276H124.125ZM132.188 153.994V146.635C132.938 145.354 133.766 144.244 134.672 143.307C135.609 142.369 136.828 141.901 138.328 141.901C139.141 141.901 139.844 142.041 140.438 142.323V151.229C139.969 150.979 139.469 150.791 138.938 150.666C138.438 150.51 137.844 150.432 137.156 150.432C136.062 150.432 135.094 150.76 134.25 151.416C133.406 152.073 132.719 152.932 132.188 153.994ZM144.141 177.526L154.5 159.244L161.297 142.369H170.297L153.141 177.526H144.141ZM153.094 167.213L141.609 142.369H150.891L158.672 161.119L153.094 167.213Z"/>
</mask>
<path d="M20.0156 166.979C17.8906 166.979 15.8281 166.619 13.8281 165.901C11.8594 165.151 10.0781 164.073 8.48438 162.666C6.92188 161.26 5.67188 159.541 4.73438 157.51C3.82812 155.479 3.375 153.166 3.375 150.573C3.375 147.979 3.82812 145.666 4.73438 143.635C5.67188 141.604 6.92188 139.885 8.48438 138.479C10.0781 137.073 11.8594 136.01 13.8281 135.291C15.8281 134.541 17.8906 134.166 20.0156 134.166C21.6719 134.166 23.2031 134.401 24.6094 134.869C26.0156 135.338 27.25 136.026 28.3125 136.932V145.416C27.5 144.729 26.7031 144.166 25.9219 143.729C25.1719 143.291 24.3594 142.963 23.4844 142.744C22.6094 142.494 21.5625 142.369 20.3438 142.369C18.9375 142.369 17.625 142.729 16.4062 143.448C15.2188 144.166 14.25 145.151 13.5 146.401C12.75 147.619 12.375 149.01 12.375 150.573C12.375 152.135 12.75 153.541 13.5 154.791C14.25 156.01 15.2188 156.979 16.4062 157.698C17.625 158.416 18.9375 158.776 20.3438 158.776C21.0938 158.776 21.7656 158.713 22.3594 158.588C22.9844 158.432 23.5156 158.244 23.9531 158.026C24.4219 157.776 24.7812 157.51 25.0312 157.229L31.5 162.104C30.5312 163.135 29.4531 164.01 28.2656 164.729C27.0781 165.448 25.7969 165.994 24.4219 166.369C23.0469 166.776 21.5781 166.979 20.0156 166.979ZM23.9531 164.916V155.119V155.073V149.448H31.5V162.104L23.9531 164.916ZM46.0312 166.979C44.25 166.979 42.5781 166.526 41.0156 165.619C39.4531 164.713 38.1719 163.323 37.1719 161.448C36.2031 159.541 35.7188 157.151 35.7188 154.276C35.7188 151.588 36.2031 149.307 37.1719 147.432C38.1719 145.557 39.4844 144.135 41.1094 143.166C42.7656 142.166 44.5625 141.666 46.5 141.666C47.75 141.666 48.9688 141.948 50.1562 142.51C51.375 143.041 52.375 143.729 53.1562 144.573V142.369H61.2188V166.276H53.1562V162.291C52.5625 163.604 51.6562 164.713 50.4375 165.619C49.2188 166.526 47.75 166.979 46.0312 166.979ZM48.4219 158.823C49.1094 158.823 49.8125 158.651 50.5312 158.307C51.25 157.932 51.8594 157.385 52.3594 156.666C52.8906 155.916 53.1562 154.963 53.1562 153.807V151.51C52.4688 150.948 51.6875 150.479 50.8125 150.104C49.9688 149.729 49.0938 149.541 48.1875 149.541C47.4062 149.541 46.7031 149.76 46.0781 150.198C45.4844 150.635 45.0156 151.213 44.6719 151.932C44.3281 152.651 44.1562 153.432 44.1562 154.276C44.1562 155.119 44.3281 155.885 44.6719 156.573C45.0469 157.26 45.5469 157.807 46.1719 158.213C46.8281 158.619 47.5781 158.823 48.4219 158.823ZM67.7812 166.276V132.526H75.8438V166.276H67.7812ZM82.4062 166.276V132.526H90.4688V166.276H82.4062ZM108.562 166.979C106.875 166.979 105.234 166.698 103.641 166.135C102.078 165.573 100.672 164.76 99.4219 163.698C98.1719 162.635 97.1875 161.354 96.4688 159.854C95.75 158.323 95.3906 156.604 95.3906 154.698C95.3906 152.323 95.9375 150.151 97.0312 148.182C98.1562 146.213 99.6719 144.635 101.578 143.448C103.516 142.26 105.688 141.666 108.094 141.666C110.344 141.666 112.344 142.166 114.094 143.166C115.844 144.166 117.203 145.573 118.172 147.385C119.172 149.166 119.672 151.291 119.672 153.76V156.526H102.75V151.651H112.031C112.031 150.901 111.828 150.276 111.422 149.776C111.016 149.276 110.5 148.916 109.875 148.698C109.25 148.448 108.578 148.323 107.859 148.323C106.922 148.323 106.094 148.557 105.375 149.026C104.688 149.463 104.141 150.151 103.734 151.088C103.328 152.026 103.125 153.229 103.125 154.698C103.125 155.885 103.375 156.869 103.875 157.651C104.406 158.432 105.125 159.01 106.031 159.385C106.938 159.76 107.938 159.948 109.031 159.948C110.844 159.948 112.406 159.698 113.719 159.198C115.062 158.666 116.062 158.213 116.719 157.838V164.729C116.188 165.073 115.5 165.416 114.656 165.76C113.844 166.104 112.922 166.385 111.891 166.604C110.859 166.854 109.75 166.979 108.562 166.979ZM124.125 166.276V142.369H132.188V166.276H124.125ZM132.188 153.994V146.635C132.938 145.354 133.766 144.244 134.672 143.307C135.609 142.369 136.828 141.901 138.328 141.901C139.141 141.901 139.844 142.041 140.438 142.323V151.229C139.969 150.979 139.469 150.791 138.938 150.666C138.438 150.51 137.844 150.432 137.156 150.432C136.062 150.432 135.094 150.76 134.25 151.416C133.406 152.073 132.719 152.932 132.188 153.994ZM144.141 177.526L154.5 159.244L161.297 142.369H170.297L153.141 177.526H144.141ZM153.094 167.213L141.609 142.369H150.891L158.672 161.119L153.094 167.213Z" fill="#E6AB07"/>
<path d="M13.8281 165.901L13.1161 167.77L13.1339 167.776L13.1517 167.783L13.8281 165.901ZM8.48438 162.666L7.14645 164.153L7.15376 164.159L7.16113 164.166L8.48438 162.666ZM4.73438 157.51L2.90791 158.325L2.91311 158.337L2.91846 158.348L4.73438 157.51ZM4.73438 143.635L2.91846 142.797L2.91311 142.808L2.90791 142.82L4.73438 143.635ZM8.48438 138.479L7.16113 136.979L7.15376 136.986L7.14645 136.992L8.48438 138.479ZM13.8281 135.291L14.514 137.17L14.5222 137.167L14.5304 137.164L13.8281 135.291ZM28.3125 136.932H30.3125V136.009L29.6104 135.41L28.3125 136.932ZM28.3125 145.416L27.0206 146.943L30.3125 149.728V145.416H28.3125ZM25.9219 143.729L24.9141 145.456L24.9293 145.465L24.9447 145.474L25.9219 143.729ZM23.4844 142.744L22.9349 144.667L22.967 144.677L22.9993 144.685L23.4844 142.744ZM16.4062 143.448L15.3903 141.725L15.3804 141.731L15.3706 141.737L16.4062 143.448ZM13.5 146.401L15.2033 147.449L15.2092 147.439L15.215 147.43L13.5 146.401ZM13.5 154.791L11.785 155.82L11.7908 155.83L11.7967 155.839L13.5 154.791ZM16.4062 157.698L15.3706 159.409L15.3804 159.414L15.3903 159.42L16.4062 157.698ZM22.3594 158.588L22.7714 160.545L22.8081 160.538L22.8444 160.528L22.3594 158.588ZM23.9531 158.026L24.8476 159.814L24.8711 159.803L24.8943 159.79L23.9531 158.026ZM25.0312 157.229L26.235 155.632L24.7619 154.521L23.5364 155.9L25.0312 157.229ZM31.5 162.104L32.9577 163.473L34.4841 161.848L32.7037 160.507L31.5 162.104ZM24.4219 166.369L23.8956 164.44L23.8754 164.445L23.8552 164.451L24.4219 166.369ZM23.9531 164.916H21.9531V167.796L24.6515 166.79L23.9531 164.916ZM23.9531 149.448V147.448H21.9531V149.448H23.9531ZM31.5 149.448H33.5V147.448H31.5V149.448ZM31.5 162.104L32.1984 163.978L33.5 163.493V162.104H31.5ZM20.0156 166.979V164.979C18.1212 164.979 16.2876 164.659 14.5045 164.018L13.8281 165.901L13.1517 167.783C15.3687 168.58 17.66 168.979 20.0156 168.979V166.979ZM13.8281 165.901L14.5401 164.032C12.7976 163.368 11.2231 162.415 9.80762 161.167L8.48438 162.666L7.16113 164.166C8.93319 165.73 10.9211 166.933 13.1161 167.77L13.8281 165.901ZM8.48438 162.666L9.8223 161.18C8.47422 159.966 7.38151 158.473 6.55029 156.672L4.73438 157.51L2.91846 158.348C3.96224 160.61 5.36953 162.554 7.14645 164.153L8.48438 162.666ZM4.73438 157.51L6.56084 156.695C5.78644 154.959 5.375 152.932 5.375 150.573H3.375H1.375C1.375 153.401 1.86981 155.998 2.90791 158.325L4.73438 157.51ZM3.375 150.573H5.375C5.375 148.213 5.78644 146.186 6.56084 144.45L4.73438 143.635L2.90791 142.82C1.86981 145.147 1.375 147.744 1.375 150.573H3.375ZM4.73438 143.635L6.55029 144.473C7.38151 142.672 8.47422 141.179 9.8223 139.965L8.48438 138.479L7.14645 136.992C5.36953 138.591 3.96224 140.535 2.91846 142.797L4.73438 143.635ZM8.48438 138.479L9.80762 139.978C11.2171 138.735 12.7828 137.802 14.514 137.17L13.8281 135.291L13.1422 133.413C10.9359 134.218 8.93915 135.41 7.16113 136.979L8.48438 138.479ZM13.8281 135.291L14.5304 137.164C16.307 136.498 18.1317 136.166 20.0156 136.166V134.166V132.166C17.6495 132.166 15.3492 132.585 13.1259 133.419L13.8281 135.291ZM20.0156 134.166V136.166C21.4819 136.166 22.797 136.373 23.9769 136.767L24.6094 134.869L25.2418 132.972C23.6092 132.428 21.8619 132.166 20.0156 132.166V134.166ZM24.6094 134.869L23.9769 136.767C25.1544 137.159 26.1595 137.724 27.0146 138.454L28.3125 136.932L29.6104 135.41C28.3405 134.327 26.8768 133.517 25.2418 132.972L24.6094 134.869ZM28.3125 136.932H26.3125V145.416H28.3125H30.3125V136.932H28.3125ZM28.3125 145.416L29.6044 143.889C28.7119 143.134 27.8105 142.494 26.8991 141.984L25.9219 143.729L24.9447 145.474C25.5957 145.838 26.2881 146.323 27.0206 146.943L28.3125 145.416ZM25.9219 143.729L26.9296 142.001C26.0101 141.465 25.0207 141.067 23.9694 140.804L23.4844 142.744L22.9993 144.685C23.698 144.859 24.3337 145.118 24.9141 145.456L25.9219 143.729ZM23.4844 142.744L24.0338 140.821C22.9314 140.506 21.6897 140.369 20.3438 140.369V142.369V144.369C21.4353 144.369 22.2874 144.482 22.9349 144.667L23.4844 142.744ZM20.3438 142.369V140.369C18.5778 140.369 16.9148 140.826 15.3903 141.725L16.4062 143.448L17.4222 145.17C18.3352 144.632 19.2972 144.369 20.3438 144.369V142.369ZM16.4062 143.448L15.3706 141.737C13.8904 142.632 12.6939 143.857 11.785 145.372L13.5 146.401L15.215 147.43C15.8061 146.444 16.5471 145.7 17.4419 145.159L16.4062 143.448ZM13.5 146.401L11.7967 145.352C10.835 146.915 10.375 148.675 10.375 150.573H12.375H14.375C14.375 149.345 14.665 148.324 15.2033 147.449L13.5 146.401ZM12.375 150.573H10.375C10.375 152.47 10.8351 154.237 11.785 155.82L13.5 154.791L15.215 153.762C14.6649 152.845 14.375 151.8 14.375 150.573H12.375ZM13.5 154.791L11.7967 155.839C12.708 157.32 13.9024 158.52 15.3706 159.409L16.4062 157.698L17.4419 155.987C16.5351 155.438 15.792 154.7 15.2033 153.743L13.5 154.791ZM16.4062 157.698L15.3903 159.42C16.9148 160.319 18.5778 160.776 20.3438 160.776V158.776V156.776C19.2972 156.776 18.3352 156.513 17.4222 155.975L16.4062 157.698ZM20.3438 158.776V160.776C21.2012 160.776 22.0148 160.705 22.7714 160.545L22.3594 158.588L21.9474 156.631C21.5164 156.722 20.9863 156.776 20.3438 156.776V158.776ZM22.3594 158.588L22.8444 160.528C23.5692 160.347 24.246 160.115 24.8476 159.814L23.9531 158.026L23.0587 156.237C22.7853 156.373 22.3995 156.517 21.8743 156.648L22.3594 158.588ZM23.9531 158.026L24.8943 159.79C25.4927 159.471 26.0685 159.072 26.5261 158.557L25.0312 157.229L23.5364 155.9C23.494 155.948 23.351 156.08 23.0119 156.261L23.9531 158.026ZM25.0312 157.229L23.8275 158.826L30.2963 163.701L31.5 162.104L32.7037 160.507L26.235 155.632L25.0312 157.229ZM31.5 162.104L30.0423 160.734C29.1956 161.636 28.2589 162.395 27.23 163.018L28.2656 164.729L29.3012 166.44C30.6473 165.625 31.8669 164.634 32.9577 163.473L31.5 162.104ZM28.2656 164.729L27.23 163.018C26.2056 163.638 25.0964 164.112 23.8956 164.44L24.4219 166.369L24.9481 168.299C26.4974 167.876 27.9507 167.257 29.3012 166.44L28.2656 164.729ZM24.4219 166.369L23.8552 164.451C22.6799 164.799 21.4034 164.979 20.0156 164.979V166.979V168.979C21.7529 168.979 23.4139 168.753 24.9886 168.287L24.4219 166.369ZM23.9531 164.916H25.9531V155.119H23.9531H21.9531V164.916H23.9531ZM23.9531 155.119H25.9531V155.073H23.9531H21.9531V155.119H23.9531ZM23.9531 155.073H25.9531V149.448H23.9531H21.9531V155.073H23.9531ZM23.9531 149.448V151.448H31.5V149.448V147.448H23.9531V149.448ZM31.5 149.448H29.5V162.104H31.5H33.5V149.448H31.5ZM31.5 162.104L30.8016 160.23L23.2547 163.042L23.9531 164.916L24.6515 166.79L32.1984 163.978L31.5 162.104ZM37.1719 161.448L35.3889 162.354L35.3979 162.371L35.4072 162.389L37.1719 161.448ZM37.1719 147.432L35.4072 146.491L35.401 146.502L35.395 146.514L37.1719 147.432ZM41.1094 143.166L42.1335 144.884L42.1431 144.878L41.1094 143.166ZM50.1562 142.51L49.3001 144.317L49.3284 144.331L49.3571 144.343L50.1562 142.51ZM53.1562 144.573L51.6887 145.931L55.1562 149.676V144.573H53.1562ZM53.1562 142.369V140.369H51.1562V142.369H53.1562ZM61.2188 142.369H63.2188V140.369H61.2188V142.369ZM61.2188 166.276V168.276H63.2188V166.276H61.2188ZM53.1562 166.276H51.1562V168.276H53.1562V166.276ZM53.1562 162.291H55.1562L51.334 161.467L53.1562 162.291ZM50.5312 158.307L51.3942 160.111L51.4255 160.096L51.4564 160.08L50.5312 158.307ZM52.3594 156.666L50.7273 155.51L50.7224 155.517L50.7176 155.524L52.3594 156.666ZM53.1562 151.51H55.1562V150.562L54.4227 149.962L53.1562 151.51ZM50.8125 150.104L50.0002 151.931L50.0124 151.937L50.0247 151.942L50.8125 150.104ZM46.0781 150.198L44.9312 148.559L44.9113 148.573L44.8917 148.587L46.0781 150.198ZM44.6719 156.573L42.883 157.467L42.899 157.499L42.9161 157.53L44.6719 156.573ZM46.1719 158.213L45.0819 159.89L45.1004 159.902L45.1192 159.914L46.1719 158.213ZM46.0312 166.979V164.979C44.6076 164.979 43.2812 164.621 42.0191 163.889L41.0156 165.619L40.0122 167.349C41.875 168.43 43.8924 168.979 46.0312 168.979V166.979ZM41.0156 165.619L42.0191 163.889C40.832 163.201 39.7926 162.111 38.9366 160.506L37.1719 161.448L35.4072 162.389C36.5511 164.534 38.0742 166.225 40.0122 167.349L41.0156 165.619ZM37.1719 161.448L38.9548 160.541C38.1693 158.996 37.7188 156.939 37.7188 154.276H35.7188H33.7188C33.7188 157.362 34.237 160.087 35.3889 162.354L37.1719 161.448ZM35.7188 154.276H37.7188C37.7188 151.823 38.1612 149.874 38.9487 148.35L37.1719 147.432L35.395 146.514C34.245 148.74 33.7188 151.354 33.7188 154.276H35.7188ZM37.1719 147.432L38.9366 148.373C39.7868 146.779 40.8588 145.644 42.1335 144.884L41.1094 143.166L40.0852 141.448C38.1099 142.626 36.557 144.335 35.4072 146.491L37.1719 147.432ZM41.1094 143.166L42.1431 144.878C43.487 144.067 44.9263 143.666 46.5 143.666V141.666V139.666C44.1987 139.666 42.0443 140.266 40.0756 141.454L41.1094 143.166ZM46.5 141.666V143.666C47.4387 143.666 48.3662 143.875 49.3001 144.317L50.1562 142.51L51.0124 140.703C49.5713 140.02 48.0613 139.666 46.5 139.666V141.666ZM50.1562 142.51L49.3571 144.343C50.3619 144.781 51.1222 145.319 51.6887 145.931L53.1562 144.573L54.6238 143.214C53.6278 142.138 52.3881 141.301 50.9554 140.677L50.1562 142.51ZM53.1562 144.573H55.1562V142.369H53.1562H51.1562V144.573H53.1562ZM53.1562 142.369V144.369H61.2188V142.369V140.369H53.1562V142.369ZM61.2188 142.369H59.2188V166.276H61.2188H63.2188V142.369H61.2188ZM61.2188 166.276V164.276H53.1562V166.276V168.276H61.2188V166.276ZM53.1562 166.276H55.1562V162.291H53.1562H51.1562V166.276H53.1562ZM53.1562 162.291L51.334 161.467C50.8879 162.453 50.2057 163.299 49.2441 164.014L50.4375 165.619L51.6309 167.224C53.1068 166.127 54.2371 164.754 54.9785 163.116L53.1562 162.291ZM50.4375 165.619L49.2441 164.014C48.415 164.631 47.3793 164.979 46.0312 164.979V166.979V168.979C48.1207 168.979 50.0225 168.42 51.6309 167.224L50.4375 165.619ZM48.4219 158.823V160.823C49.452 160.823 50.4487 160.563 51.3942 160.111L50.5312 158.307L49.6683 156.503C49.1763 156.738 48.7668 156.823 48.4219 156.823V158.823ZM50.5312 158.307L51.4564 160.08C52.4841 159.544 53.3319 158.771 54.0012 157.808L52.3594 156.666L50.7176 155.524C50.3869 155.999 50.0159 156.32 49.6061 156.534L50.5312 158.307ZM52.3594 156.666L53.9914 157.822C54.8175 156.656 55.1562 155.27 55.1562 153.807H53.1562H51.1562C51.1562 154.657 50.9638 155.176 50.7273 155.51L52.3594 156.666ZM53.1562 153.807H55.1562V151.51H53.1562H51.1562V153.807H53.1562ZM53.1562 151.51L54.4227 149.962C53.5801 149.273 52.6354 148.709 51.6003 148.265L50.8125 150.104L50.0247 151.942C50.7396 152.248 51.3574 152.622 51.8898 153.058L53.1562 151.51ZM50.8125 150.104L51.6248 148.276C50.5303 147.79 49.379 147.541 48.1875 147.541V149.541V151.541C48.8085 151.541 49.4072 151.668 50.0002 151.931L50.8125 150.104ZM48.1875 149.541V147.541C47.0064 147.541 45.9009 147.88 44.9312 148.559L46.0781 150.198L47.225 151.836C47.5054 151.64 47.8061 151.541 48.1875 151.541V149.541ZM46.0781 150.198L44.8917 148.587C44.0129 149.235 43.3413 150.079 42.8676 151.069L44.6719 151.932L46.4761 152.795C46.69 152.348 46.9558 152.035 47.2645 151.808L46.0781 150.198ZM44.6719 151.932L42.8676 151.069C42.3874 152.073 42.1562 153.151 42.1562 154.276H44.1562H46.1562C46.1562 153.712 46.2688 153.228 46.4761 152.795L44.6719 151.932ZM44.1562 154.276H42.1562C42.1562 155.399 42.3873 156.475 42.883 157.467L44.6719 156.573L46.4607 155.678C46.269 155.295 46.1562 154.84 46.1562 154.276H44.1562ZM44.6719 156.573L42.9161 157.53C43.4416 158.494 44.1646 159.294 45.0819 159.89L46.1719 158.213L47.2619 156.536C46.9292 156.32 46.6521 156.026 46.4277 155.615L44.6719 156.573ZM46.1719 158.213L45.1192 159.914C46.1208 160.534 47.2421 160.823 48.4219 160.823V158.823V156.823C47.9142 156.823 47.5354 156.705 47.2246 156.513L46.1719 158.213ZM67.7812 166.276H65.7812V168.276H67.7812V166.276ZM67.7812 132.526V130.526H65.7812V132.526H67.7812ZM75.8438 132.526H77.8438V130.526H75.8438V132.526ZM75.8438 166.276V168.276H77.8438V166.276H75.8438ZM67.7812 166.276H69.7812V132.526H67.7812H65.7812V166.276H67.7812ZM67.7812 132.526V134.526H75.8438V132.526V130.526H67.7812V132.526ZM75.8438 132.526H73.8438V166.276H75.8438H77.8438V132.526H75.8438ZM75.8438 166.276V164.276H67.7812V166.276V168.276H75.8438V166.276ZM82.4062 166.276H80.4062V168.276H82.4062V166.276ZM82.4062 132.526V130.526H80.4062V132.526H82.4062ZM90.4688 132.526H92.4688V130.526H90.4688V132.526ZM90.4688 166.276V168.276H92.4688V166.276H90.4688ZM82.4062 166.276H84.4062V132.526H82.4062H80.4062V166.276H82.4062ZM82.4062 132.526V134.526H90.4688V132.526V130.526H82.4062V132.526ZM90.4688 132.526H88.4688V166.276H90.4688H92.4688V132.526H90.4688ZM90.4688 166.276V164.276H82.4062V166.276V168.276H90.4688V166.276ZM103.641 166.135L102.963 168.017L102.975 168.021L103.641 166.135ZM96.4688 159.854L94.6583 160.704L94.6617 160.711L94.6651 160.718L96.4688 159.854ZM97.0312 148.182L95.2948 147.19L95.2888 147.2L95.2829 147.211L97.0312 148.182ZM101.578 143.448L100.533 141.742L100.527 141.746L100.521 141.75L101.578 143.448ZM118.172 147.385L116.408 148.328L116.418 148.346L116.428 148.364L118.172 147.385ZM119.672 156.526V158.526H121.672V156.526H119.672ZM102.75 156.526H100.75V158.526H102.75V156.526ZM102.75 151.651V149.651H100.75V151.651H102.75ZM112.031 151.651V153.651H114.031V151.651H112.031ZM109.875 148.698L109.132 150.554L109.173 150.571L109.214 150.585L109.875 148.698ZM105.375 149.026L106.449 150.713L106.458 150.707L106.468 150.701L105.375 149.026ZM103.875 157.651L102.19 158.729L102.205 158.752L102.221 158.775L103.875 157.651ZM113.719 159.198L114.431 161.066L114.442 161.062L114.454 161.057L113.719 159.198ZM116.719 157.838H118.719V154.392L115.726 156.102L116.719 157.838ZM116.719 164.729L117.805 166.408L118.719 165.817V164.729H116.719ZM114.656 165.76L113.902 163.908L113.889 163.913L113.877 163.918L114.656 165.76ZM111.891 166.604L111.476 164.647L111.447 164.653L111.419 164.66L111.891 166.604ZM108.562 166.979V164.979C107.102 164.979 105.687 164.736 104.306 164.249L103.641 166.135L102.975 168.021C104.782 168.659 106.648 168.979 108.562 168.979V166.979ZM103.641 166.135L104.318 164.253C102.978 163.771 101.782 163.079 100.717 162.174L99.4219 163.698L98.1266 165.221C99.5617 166.441 101.178 167.374 102.963 168.017L103.641 166.135ZM99.4219 163.698L100.717 162.174C99.6841 161.295 98.8716 160.24 98.2724 158.99L96.4688 159.854L94.6651 160.718C95.5034 162.467 96.6597 163.975 98.1266 165.221L99.4219 163.698ZM96.4688 159.854L98.2792 159.004C97.7003 157.771 97.3906 156.347 97.3906 154.698H95.3906H93.3906C93.3906 156.86 93.7997 158.874 94.6583 160.704L96.4688 159.854ZM95.3906 154.698H97.3906C97.3906 152.643 97.86 150.808 98.7796 149.153L97.0312 148.182L95.2829 147.211C94.015 149.493 93.3906 152.002 93.3906 154.698H95.3906ZM97.0312 148.182L98.7677 149.174C99.73 147.49 101.013 146.156 102.636 145.145L101.578 143.448L100.521 141.75C98.3303 143.114 96.5825 144.936 95.2948 147.19L97.0312 148.182ZM101.578 143.448L102.623 145.153C104.227 144.169 106.034 143.666 108.094 143.666V141.666V139.666C105.341 139.666 102.804 140.351 100.533 141.742L101.578 143.448ZM108.094 141.666V143.666C110.037 143.666 111.688 144.095 113.101 144.903L114.094 143.166L115.086 141.43C113 140.238 110.65 139.666 108.094 139.666V141.666ZM114.094 143.166L113.101 144.903C114.518 145.712 115.613 146.84 116.408 148.328L118.172 147.385L119.936 146.442C118.793 144.305 117.169 142.62 115.086 141.43L114.094 143.166ZM118.172 147.385L116.428 148.364C117.228 149.79 117.672 151.563 117.672 153.76H119.672H121.672C121.672 151.02 121.115 148.543 119.916 146.406L118.172 147.385ZM119.672 153.76H117.672V156.526H119.672H121.672V153.76H119.672ZM119.672 156.526V154.526H102.75V156.526V158.526H119.672V156.526ZM102.75 156.526H104.75V151.651H102.75H100.75V156.526H102.75ZM102.75 151.651V153.651H112.031V151.651V149.651H102.75V151.651ZM112.031 151.651H114.031C114.031 150.52 113.716 149.428 112.974 148.514L111.422 149.776L109.87 151.037C109.94 151.123 110.031 151.281 110.031 151.651H112.031ZM111.422 149.776L112.974 148.514C112.328 147.719 111.5 147.147 110.536 146.81L109.875 148.698L109.214 150.585C109.5 150.685 109.704 150.832 109.87 151.037L111.422 149.776ZM109.875 148.698L110.618 146.841C109.741 146.49 108.815 146.323 107.859 146.323V148.323V150.323C108.341 150.323 108.759 150.405 109.132 150.554L109.875 148.698ZM107.859 148.323V146.323C106.571 146.323 105.356 146.65 104.282 147.35L105.375 149.026L106.468 150.701C106.831 150.464 107.272 150.323 107.859 150.323V148.323ZM105.375 149.026L104.301 147.338C103.2 148.039 102.424 149.082 101.899 150.293L103.734 151.088L105.569 151.883C105.857 151.219 106.175 150.887 106.449 150.713L105.375 149.026ZM103.734 151.088L101.899 150.293C101.348 151.566 101.125 153.066 101.125 154.698H103.125H105.125C105.125 153.392 105.309 152.485 105.569 151.883L103.734 151.088ZM103.125 154.698H101.125C101.125 156.161 101.434 157.547 102.19 158.729L103.875 157.651L105.56 156.573C105.316 156.192 105.125 155.609 105.125 154.698H103.125ZM103.875 157.651L102.221 158.775C102.981 159.892 104.014 160.715 105.267 161.233L106.031 159.385L106.796 157.537C106.236 157.305 105.832 156.972 105.529 156.526L103.875 157.651ZM106.031 159.385L105.267 161.233C106.442 161.719 107.705 161.948 109.031 161.948V159.948V157.948C108.17 157.948 107.433 157.801 106.796 157.537L106.031 159.385ZM109.031 159.948V161.948C111.02 161.948 112.835 161.674 114.431 161.066L113.719 159.198L113.007 157.329C111.977 157.721 110.668 157.948 109.031 157.948V159.948ZM113.719 159.198L114.454 161.057C115.822 160.517 116.928 160.022 117.711 159.575L116.719 157.838L115.726 156.102C115.197 156.404 114.303 156.816 112.983 157.338L113.719 159.198ZM116.719 157.838H114.719V164.729H116.719H118.719V157.838H116.719ZM116.719 164.729L115.632 163.05C115.241 163.303 114.675 163.593 113.902 163.908L114.656 165.76L115.411 167.612C116.325 167.24 117.134 166.842 117.805 166.408L116.719 164.729ZM114.656 165.76L113.877 163.918C113.202 164.204 112.405 164.45 111.476 164.647L111.891 166.604L112.306 168.56C113.438 168.32 114.485 168.004 115.436 167.602L114.656 165.76ZM111.891 166.604L111.419 164.66C110.559 164.869 109.61 164.979 108.562 164.979V166.979V168.979C109.89 168.979 111.159 168.839 112.362 168.547L111.891 166.604ZM124.125 166.276H122.125V168.276H124.125V166.276ZM124.125 142.369V140.369H122.125V142.369H124.125ZM132.188 142.369H134.188V140.369H132.188V142.369ZM132.188 166.276V168.276H134.188V166.276H132.188ZM132.188 153.994H130.188L133.976 154.889L132.188 153.994ZM132.188 146.635L130.461 145.625L130.188 146.093V146.635H132.188ZM134.672 143.307L133.258 141.893L133.246 141.905L133.234 141.917L134.672 143.307ZM140.438 142.323H142.438V141.057L141.294 140.515L140.438 142.323ZM140.438 151.229L139.496 152.993L142.438 154.562V151.229H140.438ZM138.938 150.666L138.341 152.575L138.41 152.597L138.479 152.613L138.938 150.666ZM124.125 166.276H126.125V142.369H124.125H122.125V166.276H124.125ZM124.125 142.369V144.369H132.188V142.369V140.369H124.125V142.369ZM132.188 142.369H130.188V166.276H132.188H134.188V142.369H132.188ZM132.188 166.276V164.276H124.125V166.276V168.276H132.188V166.276ZM132.188 153.994H134.188V146.635H132.188H130.188V153.994H132.188ZM132.188 146.635L133.914 147.645C134.594 146.483 135.328 145.505 136.11 144.697L134.672 143.307L133.234 141.917C132.203 142.983 131.281 144.224 130.461 145.625L132.188 146.635ZM134.672 143.307L136.086 144.721C136.598 144.209 137.283 143.901 138.328 143.901V141.901V139.901C136.374 139.901 134.621 140.53 133.258 141.893L134.672 143.307ZM138.328 141.901V143.901C138.913 143.901 139.311 144.002 139.581 144.13L140.438 142.323L141.294 140.515C140.377 140.081 139.368 139.901 138.328 139.901V141.901ZM140.438 142.323H138.438V151.229H140.438H142.438V142.323H140.438ZM140.438 151.229L141.379 149.464C140.753 149.131 140.09 148.883 139.396 148.719L138.938 150.666L138.479 152.613C138.847 152.7 139.184 152.827 139.496 152.993L140.438 151.229ZM138.938 150.666L139.534 148.757C138.791 148.525 137.987 148.432 137.156 148.432V150.432V152.432C137.701 152.432 138.084 152.495 138.341 152.575L138.938 150.666ZM137.156 150.432V148.432C135.629 148.432 134.226 148.901 133.022 149.838L134.25 151.416L135.478 152.995C135.962 152.619 136.496 152.432 137.156 152.432V150.432ZM134.25 151.416L133.022 149.838C131.917 150.697 131.048 151.8 130.399 153.1L132.188 153.994L133.976 154.889C134.389 154.063 134.895 153.448 135.478 152.995L134.25 151.416ZM144.141 177.526L142.401 176.54L140.708 179.526H144.141V177.526ZM154.5 159.244L156.24 160.23L156.306 160.115L156.355 159.992L154.5 159.244ZM161.297 142.369V140.369H159.946L159.442 141.622L161.297 142.369ZM170.297 142.369L172.094 143.247L173.498 140.369H170.297V142.369ZM153.141 177.526V179.526H154.39L154.938 178.403L153.141 177.526ZM153.094 167.213L151.278 168.052L152.54 170.781L154.569 168.564L153.094 167.213ZM141.609 142.369V140.369H138.481L139.794 143.209L141.609 142.369ZM150.891 142.369L152.738 141.603L152.226 140.369H150.891V142.369ZM158.672 161.119L160.147 162.47L161.008 161.53L160.519 160.353L158.672 161.119ZM144.141 177.526L145.881 178.512L156.24 160.23L154.5 159.244L152.76 158.258L142.401 176.54L144.141 177.526ZM154.5 159.244L156.355 159.992L163.152 143.117L161.297 142.369L159.442 141.622L152.645 158.497L154.5 159.244ZM161.297 142.369V144.369H170.297V142.369V140.369H161.297V142.369ZM170.297 142.369L168.499 141.492L151.343 176.649L153.141 177.526L154.938 178.403L172.094 143.247L170.297 142.369ZM153.141 177.526V175.526H144.141V177.526V179.526H153.141V177.526ZM153.094 167.213L154.909 166.374L143.425 141.53L141.609 142.369L139.794 143.209L151.278 168.052L153.094 167.213ZM141.609 142.369V144.369H150.891V142.369V140.369H141.609V142.369ZM150.891 142.369L149.043 143.136L156.825 161.886L158.672 161.119L160.519 160.353L152.738 141.603L150.891 142.369ZM158.672 161.119L157.197 159.769L151.618 165.863L153.094 167.213L154.569 168.564L160.147 162.47L158.672 161.119Z" fill="#0B1215" mask="url(#path-13-outside-1_341_732)"/>
<defs>
<linearGradient id="paint0_linear_341_732" x1="110.988" y1="36.0176" x2="40.7792" y2="36.0176" gradientUnits="userSpaceOnUse">
<stop stop-color="white" stop-opacity="0.15"/>
<stop offset="0.34" stop-color="#DFA607" stop-opacity="0.5"/>
<stop offset="0.475" stop-color="#5E4500" stop-opacity="0.9"/>
<stop offset="0.655" stop-color="#DFA607" stop-opacity="0.5"/>
<stop offset="0.995" stop-color="white" stop-opacity="0.15"/>
</linearGradient>
<linearGradient id="paint1_linear_341_732" x1="108.507" y1="22.5454" x2="43.6428" y2="49.413" gradientUnits="userSpaceOnUse">
<stop stop-color="white" stop-opacity="0.15"/>
<stop offset="0.34" stop-color="#DFA607" stop-opacity="0.5"/>
<stop offset="0.475" stop-color="#5E4500" stop-opacity="0.9"/>
<stop offset="0.655" stop-color="#DFA607" stop-opacity="0.5"/>
<stop offset="0.995" stop-color="white" stop-opacity="0.15"/>
</linearGradient>
<linearGradient id="paint2_linear_341_732" x1="108.124" y1="49.4135" x2="43.2601" y2="22.5459" gradientUnits="userSpaceOnUse">
<stop stop-color="white" stop-opacity="0.15"/>
<stop offset="0.34" stop-color="#DFA607" stop-opacity="0.5"/>
<stop offset="0.475" stop-color="#5E4500" stop-opacity="0.9"/>
<stop offset="0.655" stop-color="#DFA607" stop-opacity="0.5"/>
<stop offset="0.995" stop-color="white" stop-opacity="0.15"/>
</linearGradient>
<linearGradient id="paint3_linear_341_732" x1="76.3833" y1="0.413307" x2="76.3833" y2="70.6217" gradientUnits="userSpaceOnUse">
<stop stop-color="white" stop-opacity="0.15"/>
<stop offset="0.34" stop-color="#DFA607" stop-opacity="0.5"/>
<stop offset="0.475" stop-color="#5E4500" stop-opacity="0.9"/>
<stop offset="0.655" stop-color="#DFA607" stop-opacity="0.5"/>
<stop offset="0.995" stop-color="white" stop-opacity="0.15"/>
</linearGradient>
<linearGradient id="paint4_linear_341_732" x1="89.779" y1="3.27707" x2="62.9114" y2="68.1412" gradientUnits="userSpaceOnUse">
<stop stop-color="white" stop-opacity="0.15"/>
<stop offset="0.34" stop-color="#DFA607" stop-opacity="0.5"/>
<stop offset="0.475" stop-color="#5E4500" stop-opacity="0.9"/>
<stop offset="0.655" stop-color="#DFA607" stop-opacity="0.5"/>
<stop offset="0.995" stop-color="white" stop-opacity="0.15"/>
</linearGradient>
<linearGradient id="paint5_linear_341_732" x1="88.8551" y1="68.1406" x2="61.9875" y2="3.27655" gradientUnits="userSpaceOnUse">
<stop stop-color="white" stop-opacity="0.15"/>
<stop offset="0.34" stop-color="#DFA607" stop-opacity="0.5"/>
<stop offset="0.475" stop-color="#5E4500" stop-opacity="0.9"/>
<stop offset="0.655" stop-color="#DFA607" stop-opacity="0.5"/>
<stop offset="0.995" stop-color="white" stop-opacity="0.15"/>
</linearGradient>
<linearGradient id="paint6_linear_341_732" x1="100.352" y1="60.6935" x2="50.7072" y2="11.0486" gradientUnits="userSpaceOnUse">
<stop stop-color="white" stop-opacity="0.15"/>
<stop offset="0.34" stop-color="#DFA607" stop-opacity="0.5"/>
<stop offset="0.475" stop-color="#5E4500" stop-opacity="0.9"/>
<stop offset="0.655" stop-color="#DFA607" stop-opacity="0.5"/>
<stop offset="0.995" stop-color="white" stop-opacity="0.15"/>
</linearGradient>
<linearGradient id="paint7_linear_341_732" x1="101.059" y1="11.0488" x2="51.4143" y2="60.6936" gradientUnits="userSpaceOnUse">
<stop stop-color="white" stop-opacity="0.15"/>
<stop offset="0.34" stop-color="#DFA607" stop-opacity="0.5"/>
<stop offset="0.475" stop-color="#5E4500" stop-opacity="0.9"/>
<stop offset="0.655" stop-color="#DFA607" stop-opacity="0.5"/>
<stop offset="0.995" stop-color="white" stop-opacity="0.15"/>
</linearGradient>
</defs>
</svg>
