<svg width="12" height="15" viewBox="0 0 12 15" fill="none" xmlns="http://www.w3.org/2000/svg">
<path fill-rule="evenodd" clip-rule="evenodd" d="M2.54567 6.42748C2.54567 5.57407 2.88482 4.75562 3.48851 4.15218C4.0922 3.54873 4.91098 3.20972 5.76473 3.20972C6.61847 3.20972 7.43725 3.54873 8.04095 4.15218C8.64464 4.75562 8.98379 5.57407 8.98379 6.42748C8.98379 7.28088 8.64464 8.09933 8.04095 8.70278C7.43725 9.30623 6.61847 9.64524 5.76473 9.64524C4.91098 9.64524 4.0922 9.30623 3.48851 8.70278C2.88482 8.09933 2.54567 7.28088 2.54567 6.42748ZM5.76473 4.22585C5.18058 4.22585 4.62037 4.45781 4.20732 4.87069C3.79426 5.28358 3.56221 5.84357 3.56221 6.42748C3.56221 7.01139 3.79426 7.57138 4.20732 7.98426C4.62037 8.39715 5.18058 8.6291 5.76473 8.6291C6.34887 8.6291 6.90909 8.39715 7.32214 7.98426C7.73519 7.57138 7.96724 7.01139 7.96724 6.42748C7.96724 5.84357 7.73519 5.28358 7.32214 4.87069C6.90909 4.45781 6.34887 4.22585 5.76473 4.22585Z" fill="#A8A293"/>
<path fill-rule="evenodd" clip-rule="evenodd" d="M0.0205513 5.65316C0.136692 4.24884 0.776733 2.93949 1.81367 1.98491C2.8506 1.03034 4.20865 0.500309 5.61832 0.5H5.91109C7.32076 0.500309 8.67881 1.03034 9.71574 1.98491C10.7527 2.93949 11.3927 4.24884 11.5089 5.65316C11.6381 7.21755 11.1545 8.77098 10.1602 9.98596L6.91205 13.9563C6.77304 14.1263 6.59799 14.2632 6.39957 14.3572C6.20114 14.4512 5.9843 14.5 5.76471 14.5C5.54512 14.5 5.32827 14.4512 5.12984 14.3572C4.93142 14.2632 4.75638 14.1263 4.61737 13.9563L1.36917 9.98596C0.374874 8.77098 -0.10864 7.21755 0.0205513 5.65316ZM5.61832 1.51613C4.46395 1.51662 3.35192 1.9508 2.50282 2.73255C1.65373 3.5143 1.12959 4.5865 1.03439 5.73648C0.926822 7.03842 1.32919 8.33124 2.15665 9.34241L5.40485 13.3135C5.44851 13.3669 5.50351 13.4099 5.56587 13.4395C5.62822 13.4691 5.69637 13.4844 5.76538 13.4844C5.8344 13.4844 5.90255 13.4691 5.9649 13.4395C6.02725 13.4099 6.08225 13.3669 6.12592 13.3135L9.37412 9.34241C10.2011 8.33104 10.603 7.03824 10.495 5.73648C10.3998 4.58638 9.87558 3.51408 9.02634 2.73232C8.1771 1.95056 7.06491 1.51645 5.91041 1.51613H5.61832Z" fill="#A8A293"/>
</svg>
