<svg width="32" height="32" viewBox="0 0 32 32" fill="none" xmlns="http://www.w3.org/2000/svg">
<path fill-rule="evenodd" clip-rule="evenodd" d="M26.8 31H5.2C2.52958 30.551 1.60282 29.6369 1 26.8V16V5.2C1.65162 2.27482 2.63594 1.43914 5.2 1H16H26.8C29.5809 1.58898 30.4886 2.51625 31 5.2V26.8C30.311 29.7822 29.3261 30.6094 26.8 31ZM22 16C22 12.6863 19.3137 10 16 10C12.6863 10 10 12.6863 10 16C10 19.3137 12.6863 22 16 22C19.3137 22 22 19.3137 22 16ZM26.8 6.4C26.8 5.07452 25.7255 4 24.4 4C23.0745 4 22 5.07452 22 6.4C22 7.72549 23.0745 8.8 24.4 8.8C25.7255 8.8 26.8 7.72549 26.8 6.4Z" fill="#0B1215"/>
<path fill-rule="evenodd" clip-rule="evenodd" d="M26.8 31H5.2C2.52958 30.551 1.60282 29.6369 1 26.8V16V5.2C1.65162 2.27482 2.63594 1.43914 5.2 1H16H26.8C29.5809 1.58898 30.4886 2.51625 31 5.2V26.8C30.311 29.7822 29.3261 30.6094 26.8 31ZM22 16C22 12.6863 19.3137 10 16 10C12.6863 10 10 12.6863 10 16C10 19.3137 12.6863 22 16 22C19.3137 22 22 19.3137 22 16ZM26.8 6.4C26.8 5.07452 25.7255 4 24.4 4C23.0745 4 22 5.07452 22 6.4C22 7.72549 23.0745 8.8 24.4 8.8C25.7255 8.8 26.8 7.72549 26.8 6.4Z" stroke="#E6AB07"/>
</svg>
