<svg width="85" height="100" viewBox="0 0 85 100" fill="none" xmlns="http://www.w3.org/2000/svg">
<path d="M10.1823 70.6908C9.49373 70.4421 8.7476 70.1168 7.86823 69.6914C-5.59751 64.4376 23.4993 59.0382 24.9991 67.1373C26.4989 70.7369 22.1129 69.3221 21.9994 71.0369C23.4993 72.8367 22.3442 73.1239 20.7026 72.3622C24.9991 74.9365 24.9991 74.0366 22.9412 79.9888C26.4989 86.3352 28.5987 85.1353 24.732 87.1522C24.0661 87.7793 23.6556 87.4079 22.9412 87.0925C31 91.48 24.732 87.8983 31 99.8373H1.00332C1.15138 94.0628 -0.176967 88.818 7.67972 86.6412C6.75678 86.7737 3.40746 86.344 3.10152 86.0352C2.14073 84.8753 3.40149 77.0362 10.5545 79.9888C3.10152 76.9124 7.86823 74.0366 10.1823 70.6908Z" fill="#0B1215"/>
<path d="M10.5545 79.9888C15.3301 80.2872 21.0011 78.4964 22.9412 79.9888M10.5545 79.9888C3.40149 77.0362 2.14073 84.8753 3.10152 86.0352C3.43553 86.3723 7.39681 86.8535 7.86823 86.59M10.5545 79.9888C3.10152 76.9124 7.86823 74.0366 10.1823 70.6908M22.9412 79.9888C24.9991 74.0366 24.9991 74.9365 20.7026 72.3622M22.9412 79.9888C26.4989 86.3352 28.5987 85.1353 24.732 87.1522C24.0661 87.7793 23.6556 87.4079 22.9412 87.0925M20.7026 72.3622C18.0103 72.6529 16.7466 72.4913 15.0316 71.4823C12.253 71.4158 10.8022 71.1106 7.86823 69.6914C-5.59751 64.4376 23.4993 59.0382 24.9991 67.1373C26.4989 70.7369 22.1129 69.3221 21.9994 71.0369C23.4993 72.8367 22.3442 73.1239 20.7026 72.3622ZM7.86823 86.59C-0.198112 88.7349 1.15255 94.0171 1.00332 99.8373H31C24.732 87.8983 31 91.48 22.9412 87.0925M7.86823 86.59C15.3301 88.1968 16.6732 87.4506 22.9412 87.0925" stroke="#E6AB07"/>
<path d="M66.8356 64.9707C66.4574 64.8125 66.0619 64.6417 65.6425 64.4583C56.2955 59.3015 71.2091 51.1096 77.6424 59.83C81.7364 61.6798 84.4788 65.3006 84.3682 66.8112C83.7834 68.5505 82.0288 69.3432 78.1542 66.8112C77.7178 70.3745 83.2762 74.1589 80.2743 74.3641C83.1592 74.7932 82.4076 75.3532 83.7834 77.0066C83.1666 77.5316 80.9307 83.5122 80.1118 83.8691C84.3575 83.5746 83.7623 83.721 81.4381 100H63.0442C63.1897 94.8727 64.3332 88.5384 65.6425 83.5732C65.183 83.8054 63.6393 79.4176 63.3136 79.1207C62.377 78.0988 60.3894 77.3641 64.4833 70.4934C61.7837 67.8099 62.8225 63.9207 66.8356 64.9707Z" fill="#0B1215"/>
<path d="M64.4833 70.4934C69.1389 70.7564 78.383 73.0494 80.2743 74.3641M64.4833 70.4934C60.3894 77.3641 62.377 78.0988 63.3136 79.1207C63.6393 79.4176 65.183 83.8054 65.6425 83.5732M64.4833 70.4934C61.5591 67.5866 63.0212 63.2654 67.8984 65.3388M80.2743 74.3641C83.2762 74.1589 77.7178 70.3745 78.1542 66.8112M80.2743 74.3641C83.1592 74.7932 82.4076 75.3532 83.7834 77.0066C83.1342 77.5591 80.6915 84.1552 79.995 83.8773M78.1542 66.8112C75.5296 67.0673 74.6355 67.3253 72.9637 66.4364C70.2549 66.3779 68.5028 65.7086 65.6425 64.4583C56.2955 59.3015 71.2091 51.1096 77.6424 59.83C81.7364 61.6798 84.4788 65.3006 84.3682 66.8112C83.7834 68.5505 82.0288 69.3432 78.1542 66.8112ZM65.6425 83.5732C64.3332 88.5384 63.1897 94.8727 63.0442 100H81.4381C83.7834 83.5732 84.3682 83.5732 79.995 83.8773M65.6425 83.5732C72.9168 84.9887 73.8847 84.1928 79.995 83.8773" stroke="#E6AB07"/>
<g clip-path="url(#clip0_328_289)">
<line x1="15" y1="24.75" x2="65" y2="24.75" stroke="url(#paint0_linear_328_289)" stroke-width="0.5"/>
<line x1="16.8073" y1="34.3361" x2="63.0013" y2="15.2019" stroke="url(#paint1_linear_328_289)" stroke-width="0.5"/>
<line x1="16.9987" y1="15.202" x2="63.1927" y2="34.3361" stroke="url(#paint2_linear_328_289)" stroke-width="0.5"/>
<line x1="39.75" y1="50" x2="39.75" stroke="url(#paint3_linear_328_289)" stroke-width="0.5"/>
<line x1="30.202" y1="48.0013" x2="49.3361" y2="1.80734" stroke="url(#paint4_linear_328_289)" stroke-width="0.5"/>
<line x1="30.6639" y1="1.80734" x2="49.7981" y2="48.0013" stroke="url(#paint5_linear_328_289)" stroke-width="0.5"/>
<line x1="22.4991" y1="7.14555" x2="57.8544" y2="42.5009" stroke="url(#paint6_linear_328_289)" stroke-width="0.5"/>
<line x1="22.1455" y1="42.5009" x2="57.5009" y2="7.14556" stroke="url(#paint7_linear_328_289)" stroke-width="0.5"/>
<path d="M33.3 51.2899C32.1522 50.8752 30.9086 50.333 29.4428 49.6239C26.1667 46.8229 9.5 30.9896 58.796 50.8677C61.6667 52.609 56 51.9896 55.8109 54.8478C52.1667 53.4896 53.5721 55.3453 50.8358 54.0758C50.0896 60.818 59.7 66.4 54.5672 66.7881C59.5 67.6 55.2 75.6 57.5522 78.7284C56.4423 79.7738 55.758 79.1547 54.5672 78.6289C68 85.9423 57.5522 79.9722 68 99.8727H18C18.2488 90.1712 27.204 87.1861 29.4428 77.7914C28.657 78.2306 28.2582 78.2952 27.7015 77.7334C26.1 75.8 29.6 67.6 33.9204 66.7881C29.1 63.3 25.9 55.2 33.3 51.2899Z" fill="#0B1215"/>
<path d="M33.9204 66.7881C41.8806 67.2856 51.3333 64.3006 54.5672 66.7881M33.9204 66.7881C29.6 67.6 26.1 75.8 27.7015 77.7334C28.2582 78.2952 28.657 78.2306 29.4428 77.7914M33.9204 66.7881C29.1 63.3 25.9 55.2 33.3 51.2899M54.5672 66.7881C59.7 66.4 50.0896 60.818 50.8358 54.0758M54.5672 66.7881C59.5 67.6 55.2 75.6 57.5522 78.7284C56.4423 79.7738 55.758 79.1547 54.5672 78.6289M50.8358 54.0758C46.3481 54.5603 44.2417 54.2909 41.3831 52.609C36.7516 52.4983 34.3333 51.9896 29.4428 49.6239C26.1667 46.8229 9.5 30.9896 58.796 50.8677C61.6667 52.609 56 51.9896 55.8109 54.8478C52.1667 53.4896 53.5721 55.3453 50.8358 54.0758ZM29.4428 77.7914C27.204 87.1861 18.2488 90.1712 18 99.8727H68C57.5522 79.9722 68 85.9423 54.5672 78.6289M29.4428 77.7914C41.8806 80.4697 44.1194 79.2259 54.5672 78.6289" stroke="#E6AB07" stroke-width="1.5"/>
<path d="M41.2535 22.3603L42.3794 21.7577H40.6985L42.3794 20.6794C38.3772 20.4438 36.6035 20.6364 35.7828 22.5981C32.5375 22.9828 31.8732 23.9351 31.2 25.9599C33.2889 24.8791 34.343 24.9096 36.0048 26.1502C36.5464 26.7331 36.6734 27.0561 36.5915 27.6249C35.5121 31.6095 36.3495 33.7831 40.4607 37.5516C40.4825 38.7185 40.7496 39.4042 41.6183 40.6755C42.8102 40.8952 43.2549 40.7142 43.3943 39.502C44.0759 40.6709 44.4599 41.3935 45.1069 41.278C46.4676 40.9508 46.7552 40.5134 46.8353 39.502C48.8598 43.4478 49.9833 46.523 52.0682 45.9242C54.9631 47.6917 54.9595 46.93 52.7342 43.1809C58.8621 46.8597 56.0275 43.3504 50.7045 36.8539C52.0709 37.0447 52.0473 36.7389 50.0226 35.1571C51.3091 35.0477 51.7367 34.8833 48.6906 33.2542C51.767 33.8885 47.6282 32.0491 45.7095 27.6249C42.871 26.499 43.4929 23.1065 41.2535 22.3603Z" fill="#0B1215"/>
<path d="M38.8591 23.5654C40.95 24.85 40.95 22.975 41.2535 22.3603M38.8591 23.5654C38.4849 22.2527 37.4637 22.1383 36.8294 23.2007C36.7971 23.8098 37.0608 24.0753 37.8759 24.4557M38.8591 23.5654L37.8759 24.4557M38.8591 23.5654C40.6985 24.834 38.6847 29.473 36.5915 27.6249M41.2535 22.3603L42.3794 21.7577H40.6985L42.3794 20.6794C38.3772 20.4438 36.6035 20.6364 35.7828 22.5981C32.5375 22.9828 31.8732 23.9351 31.2 25.9599C33.2889 24.8791 34.343 24.9096 36.0048 26.1502M41.2535 22.3603C43.4929 23.1065 42.871 26.499 45.7095 27.6249C47.6282 32.0491 51.767 33.8885 48.6906 33.2542C51.7367 34.8833 51.3091 35.0477 50.0226 35.1571C52.0473 36.7389 52.0709 37.0447 50.7045 36.8539C56.0275 43.3504 58.8621 46.8597 52.7342 43.1809C54.9595 46.93 54.9631 47.6916 52.0682 45.9242C49.9833 46.523 48.8598 43.4478 46.8353 39.502C46.7552 40.5134 46.4676 40.9508 45.1069 41.278M36.0048 26.1502C37.7 25.6 37.325 25.225 37.8759 24.4557M36.0048 26.1502C36.5464 26.7331 36.6734 27.0561 36.5915 27.6249M36.5915 27.6249C35.5121 31.6095 36.3495 33.7831 40.4607 37.5516C40.4825 38.7185 40.7496 39.4042 41.6183 40.6755M41.6183 40.6755L39.1604 44.0531M41.6183 40.6755C42.8102 40.8952 43.2549 40.7142 43.3943 39.502C44.0759 40.6709 44.4599 41.3935 45.1069 41.278M45.1069 41.278L43.7273 44.8459" stroke="#E6AB07"/>
</g>
<defs>
<linearGradient id="paint0_linear_328_289" x1="65" y1="25.5" x2="15" y2="25.5" gradientUnits="userSpaceOnUse">
<stop stop-color="white" stop-opacity="0.15"/>
<stop offset="0.34" stop-color="#DFA607" stop-opacity="0.5"/>
<stop offset="0.475" stop-color="#5E4500" stop-opacity="0.9"/>
<stop offset="0.655" stop-color="#DFA607" stop-opacity="0.5"/>
<stop offset="0.995" stop-color="white" stop-opacity="0.15"/>
</linearGradient>
<linearGradient id="paint1_linear_328_289" x1="63.2883" y1="15.8948" x2="17.0944" y2="35.029" gradientUnits="userSpaceOnUse">
<stop stop-color="white" stop-opacity="0.15"/>
<stop offset="0.34" stop-color="#DFA607" stop-opacity="0.5"/>
<stop offset="0.475" stop-color="#5E4500" stop-opacity="0.9"/>
<stop offset="0.655" stop-color="#DFA607" stop-opacity="0.5"/>
<stop offset="0.995" stop-color="white" stop-opacity="0.15"/>
</linearGradient>
<linearGradient id="paint2_linear_328_289" x1="62.9056" y1="35.029" x2="16.7117" y2="15.8949" gradientUnits="userSpaceOnUse">
<stop stop-color="white" stop-opacity="0.15"/>
<stop offset="0.34" stop-color="#DFA607" stop-opacity="0.5"/>
<stop offset="0.475" stop-color="#5E4500" stop-opacity="0.9"/>
<stop offset="0.655" stop-color="#DFA607" stop-opacity="0.5"/>
<stop offset="0.995" stop-color="white" stop-opacity="0.15"/>
</linearGradient>
<linearGradient id="paint3_linear_328_289" x1="40.5" y1="0" x2="40.5" y2="50" gradientUnits="userSpaceOnUse">
<stop stop-color="white" stop-opacity="0.15"/>
<stop offset="0.34" stop-color="#DFA607" stop-opacity="0.5"/>
<stop offset="0.475" stop-color="#5E4500" stop-opacity="0.9"/>
<stop offset="0.655" stop-color="#DFA607" stop-opacity="0.5"/>
<stop offset="0.995" stop-color="white" stop-opacity="0.15"/>
</linearGradient>
<linearGradient id="paint4_linear_328_289" x1="50.029" y1="2.09435" x2="30.8949" y2="48.2883" gradientUnits="userSpaceOnUse">
<stop stop-color="white" stop-opacity="0.15"/>
<stop offset="0.34" stop-color="#DFA607" stop-opacity="0.5"/>
<stop offset="0.475" stop-color="#5E4500" stop-opacity="0.9"/>
<stop offset="0.655" stop-color="#DFA607" stop-opacity="0.5"/>
<stop offset="0.995" stop-color="white" stop-opacity="0.15"/>
</linearGradient>
<linearGradient id="paint5_linear_328_289" x1="49.1052" y1="48.2883" x2="29.971" y2="2.09436" gradientUnits="userSpaceOnUse">
<stop stop-color="white" stop-opacity="0.15"/>
<stop offset="0.34" stop-color="#DFA607" stop-opacity="0.5"/>
<stop offset="0.475" stop-color="#5E4500" stop-opacity="0.9"/>
<stop offset="0.655" stop-color="#DFA607" stop-opacity="0.5"/>
<stop offset="0.995" stop-color="white" stop-opacity="0.15"/>
</linearGradient>
<linearGradient id="paint6_linear_328_289" x1="57.3241" y1="43.0312" x2="21.9688" y2="7.67588" gradientUnits="userSpaceOnUse">
<stop stop-color="white" stop-opacity="0.15"/>
<stop offset="0.34" stop-color="#DFA607" stop-opacity="0.5"/>
<stop offset="0.475" stop-color="#5E4500" stop-opacity="0.9"/>
<stop offset="0.655" stop-color="#DFA607" stop-opacity="0.5"/>
<stop offset="0.995" stop-color="white" stop-opacity="0.15"/>
</linearGradient>
<linearGradient id="paint7_linear_328_289" x1="58.0312" y1="7.67589" x2="22.6759" y2="43.0312" gradientUnits="userSpaceOnUse">
<stop stop-color="white" stop-opacity="0.15"/>
<stop offset="0.34" stop-color="#DFA607" stop-opacity="0.5"/>
<stop offset="0.475" stop-color="#5E4500" stop-opacity="0.9"/>
<stop offset="0.655" stop-color="#DFA607" stop-opacity="0.5"/>
<stop offset="0.995" stop-color="white" stop-opacity="0.15"/>
</linearGradient>
<clipPath id="clip0_328_289">
<rect width="57" height="100" fill="white" transform="translate(14)"/>
</clipPath>
</defs>
</svg>
