<svg width="82" height="31" viewBox="0 0 82 31" fill="none" xmlns="http://www.w3.org/2000/svg">
<path d="M0.138564 29.1937C-0.026951 29.5916 -0.064475 29.8051 0.138564 30.1377H81.7903C81.7903 27.3058 81.0823 27.8958 77.0704 27.3058C75.8904 25.2998 69.5364 24.9458 65.7605 23.5299C65.4065 21.0519 65.2885 21.9959 63.6366 20.3439C62.9286 17.276 63.5806 16.804 62.6366 14.5621C62.6366 5.35826 61.1026 6.77423 57.9167 5.59426C57.9167 3.7063 57.4447 2.88032 54.7308 2.29033C54.7314 -0.53607 54.1408 -0.187605 50.8368 1.11036C48.7903 -0.774719 51.2903 1.11036 44.6772 1.11036C41.8876 1.11036 38.5175 0.284384 38.5175 2.64433C36.8985 2.57683 36.1923 2.89973 35.3315 4.17829C27.7903 4.72528 34.1277 6.89223 27.9919 7.48221C25.1046 7.27409 25.4763 7.4436 22.5581 8.1902C22.3469 8.62286 22.2811 8.95981 22.3221 9.84216C20.8029 10.3014 20.2248 10.8039 19.4901 11.9661C19.9764 15.9261 18.083 18.1478 17.7261 22.1139C12.7903 24.2253 11.2903 26.7253 7.10041 28.1317C4.17377 27.9126 2.66506 28.1937 0.138564 29.1937Z" fill="#0B1215"/>
</svg>
