<svg width="281" height="71" viewBox="0 0 281 71" fill="none" xmlns="http://www.w3.org/2000/svg">
<path d="M14.2754 5.4657C14.3502 5.23537 14.6761 5.23537 14.751 5.4657L17.4209 13.6844C17.5213 13.9935 17.8098 14.203 18.1348 14.203H26.7764C27.0185 14.203 27.1197 14.5128 26.9238 14.6552L19.9316 19.7352C19.6692 19.9262 19.559 20.2644 19.6592 20.5731L22.3301 28.7928C22.4046 29.023 22.1411 29.2144 21.9453 29.0721L14.9541 23.9921C14.6913 23.8011 14.3351 23.8012 14.0723 23.9921L7.08008 29.0721C6.88432 29.2139 6.62105 29.0228 6.69531 28.7928L9.36621 20.5731C9.46652 20.2642 9.35648 19.9262 9.09375 19.7352L2.10254 14.6552C1.90665 14.5128 2.00695 14.2031 2.24902 14.203H10.8916C11.2164 14.2029 11.5041 13.9934 11.6045 13.6844L14.2754 5.4657Z" fill="#0B1215" stroke="#0B1215" stroke-width="0.5"/>
<path d="M47.836 49.9093C47.9108 49.679 48.2367 49.679 48.3116 49.9093L50.168 55.6212C50.2684 55.9301 50.5562 56.1396 50.8809 56.1398H56.8878C57.1297 56.1401 57.2301 56.4496 57.0342 56.5919L52.1749 60.1222C51.9124 60.3131 51.8023 60.6514 51.9024 60.9601L53.7589 66.673C53.8333 66.9031 53.5699 67.0944 53.3741 66.9523L48.5147 63.422C48.2519 63.2312 47.8967 63.2312 47.6339 63.422L42.7745 66.9523C42.5787 67.0945 42.3153 66.9031 42.3897 66.673L44.2452 60.9601C44.3455 60.6511 44.2355 60.3131 43.9727 60.1222L39.1143 56.5919C38.9185 56.4496 39.0188 56.14 39.2608 56.1398H45.2676C45.5924 56.1396 45.8802 55.9301 45.9805 55.6212L47.836 49.9093Z" fill="#0B1215" stroke="#0B1215" stroke-width="0.5"/>
<path d="M104.527 8.98232C109.308 7.15901 114.283 6.77393 118.978 7.61156C117.976 7.82445 116.977 8.11663 115.99 8.49319C105.692 12.4206 100.529 23.9519 104.456 34.2491C108.384 44.5465 119.916 49.7103 130.213 45.7829C135.464 43.7803 139.377 39.8005 141.434 35.0159C141.19 45.7465 134.57 55.7697 123.922 59.8309C109.88 65.1864 94.1546 58.1452 88.7988 44.1037C83.4431 30.0623 90.4848 14.3378 104.527 8.98232Z" fill="#0B1215"/>
<path d="M172.822 9.09399C172.897 8.86367 173.223 8.86366 173.297 9.09399L176.783 19.8196C176.883 20.1285 177.171 20.338 177.496 20.3381H188.774C189.016 20.3381 189.117 20.6478 188.922 20.7903L179.797 27.4192C179.534 27.6102 179.424 27.9491 179.524 28.2581L183.009 38.9846C183.084 39.2148 182.82 39.4062 182.625 39.2639L173.501 32.635C173.238 32.444 172.882 32.444 172.619 32.635L163.495 39.2639C163.299 39.4062 163.035 39.2148 163.11 38.9846L166.595 28.2581C166.696 27.9491 166.586 27.6102 166.323 27.4192L157.199 20.7903C157.003 20.6479 157.103 20.3381 157.345 20.3381H168.624C168.949 20.3381 169.236 20.1286 169.337 19.8196L172.822 9.09399Z" fill="#0B1215" stroke="#0B1215" stroke-width="0.5"/>
<path d="M262.621 17.2568C262.696 17.0265 263.022 17.0265 263.097 17.2568L266.582 27.9824C266.682 28.2913 266.97 28.5009 267.295 28.501H278.573C278.815 28.501 278.916 28.8107 278.721 28.9531L269.596 35.582C269.333 35.773 269.223 36.112 269.323 36.4209L272.808 47.1475C272.883 47.3777 272.62 47.5691 272.424 47.4268L263.3 40.7979C263.037 40.6069 262.681 40.6069 262.418 40.7979L253.294 47.4268C253.098 47.569 252.835 47.3776 252.909 47.1475L256.394 36.4209C256.495 36.1119 256.385 35.773 256.122 35.582L246.998 28.9531C246.802 28.8108 246.902 28.501 247.144 28.501H258.423C258.748 28.5009 259.035 28.2914 259.136 27.9824L262.621 17.2568Z" fill="#0B1215" stroke="#0B1215" stroke-width="0.5"/>
<path d="M215.454 45.3739C215.529 45.1436 215.854 45.1436 215.929 45.3739L216.564 47.3251C216.664 47.634 216.952 47.8436 217.277 47.8436H219.328C219.571 47.8436 219.672 48.1534 219.476 48.2958L217.816 49.5018C217.553 49.6928 217.443 50.0317 217.543 50.3407L218.177 52.2919C218.252 52.5222 217.988 52.7135 217.792 52.5712L216.132 51.3651C215.869 51.1745 215.514 51.1745 215.251 51.3651L213.591 52.5712C213.395 52.7135 213.132 52.5222 213.206 52.2919L213.84 50.3407C213.941 50.0317 213.831 49.6928 213.568 49.5018L211.908 48.2958C211.712 48.1534 211.813 47.8436 212.055 47.8436H214.107C214.432 47.8435 214.719 47.634 214.82 47.3251L215.454 45.3739Z" fill="#0B1215" stroke="#0B1215" stroke-width="0.5"/>
<path d="M61.4429 21.7922C61.5178 21.5618 61.8427 21.5618 61.9175 21.7922L62.5523 23.7433C62.6527 24.0523 62.9404 24.2618 63.2652 24.2619H65.317C65.5591 24.2619 65.6603 24.5717 65.4644 24.7141L63.8043 25.9201C63.5414 26.1111 63.4314 26.45 63.5318 26.759L64.1656 28.7101C64.2404 28.9405 63.9768 29.1318 63.7808 28.9894L62.1207 27.7834C61.858 27.5927 61.5025 27.5927 61.2398 27.7834L59.5797 28.9894C59.3837 29.1318 59.12 28.9405 59.1949 28.7101L59.8287 26.759C59.9291 26.45 59.8191 26.1111 59.5562 25.9201L57.8961 24.7141C57.7001 24.5717 57.8013 24.2619 58.0435 24.2619H60.0953C60.4201 24.2618 60.7078 24.0523 60.8082 23.7433L61.4429 21.7922Z" fill="#0B1215" stroke="#0B1215" stroke-width="0.5"/>
</svg>
