<svg width="27" height="27" viewBox="0 0 27 27" fill="none" xmlns="http://www.w3.org/2000/svg">
<path d="M20.25 10.125L19.305 19.5728C19.1621 21.0049 19.0913 21.7204 18.765 22.2615C18.4789 22.7378 18.058 23.1187 17.5556 23.3561C16.9852 23.625 16.2675 23.625 14.8275 23.625H12.1725C10.7336 23.625 10.0148 23.625 9.44438 23.355C8.94155 23.1178 8.52031 22.7369 8.23387 22.2604C7.90987 21.7204 7.83788 21.0049 7.69388 19.5728L6.75 10.125M15.1875 17.4375V11.8125M11.8125 17.4375V11.8125M5.0625 7.3125H10.2544M10.2544 7.3125L10.6886 4.3065C10.8146 3.75975 11.2691 3.375 11.7911 3.375H15.2089C15.7309 3.375 16.1842 3.75975 16.3114 4.3065L16.7456 7.3125M10.2544 7.3125H16.7456M16.7456 7.3125H21.9375" stroke="#E6AB07" stroke-width="2.5" stroke-linecap="round" stroke-linejoin="round"/>
</svg>
