<svg width="52" height="52" viewBox="0 0 52 52" fill="none" xmlns="http://www.w3.org/2000/svg">
<path d="M44 1H8C5.74377 1.38642 4.22146 1.95706 3.12719 3.12719L26 26L48.8635 3.13647C47.8016 2.10107 46.2778 1.48244 44 1Z" fill="#0B1215"/>
<path d="M1 8V44C2.0047 48.7281 3.5493 50.2517 8 51H44C48.2102 50.349 49.8516 48.9704 51 44V8C50.5666 5.72538 49.9623 4.20782 48.8635 3.13647L26 26L3.12719 3.12719C2.14884 4.17335 1.51264 5.6987 1 8Z" fill="#0B1215"/>
<path d="M48.8635 3.13647C47.8016 2.10107 46.2778 1.48244 44 1H8C5.74377 1.38642 4.22146 1.95706 3.12719 3.12719M48.8635 3.13647C49.9623 4.20782 50.5666 5.72538 51 8V44C49.8516 48.9704 48.2102 50.349 44 51H8C3.5493 50.2517 2.0047 48.7281 1 44V8C1.51264 5.6987 2.14884 4.17335 3.12719 3.12719M48.8635 3.13647L26 26L3.12719 3.12719" stroke="#A8A293"/>
</svg>
