<svg width="52" height="52" viewBox="0 0 52 52" fill="none" xmlns="http://www.w3.org/2000/svg">
<path fill-rule="evenodd" clip-rule="evenodd" d="M44 51H8C3.5493 50.2517 2.0047 48.7281 1 44V26V8C2.08603 3.12471 3.72656 1.7319 8 1H26H44C48.6347 1.98163 50.1477 3.52707 51 8V44C49.8516 48.9704 48.2102 50.349 44 51ZM36 26C36 20.4772 31.5228 16 26 16C20.4772 16 16 20.4772 16 26C16 31.5228 20.4772 36 26 36C31.5228 36 36 31.5228 36 26ZM44 10C44 7.79086 42.2091 6 40 6C37.7909 6 36 7.79086 36 10C36 12.2091 37.7909 14 40 14C42.2091 14 44 12.2091 44 10Z" fill="#0B1215"/>
<path fill-rule="evenodd" clip-rule="evenodd" d="M44 51H8C3.5493 50.2517 2.0047 48.7281 1 44V26V8C2.08603 3.12471 3.72656 1.7319 8 1H26H44C48.6347 1.98163 50.1477 3.52707 51 8V44C49.8516 48.9704 48.2102 50.349 44 51ZM36 26C36 20.4772 31.5228 16 26 16C20.4772 16 16 20.4772 16 26C16 31.5228 20.4772 36 26 36C31.5228 36 36 31.5228 36 26ZM44 10C44 7.79086 42.2091 6 40 6C37.7909 6 36 7.79086 36 10C36 12.2091 37.7909 14 40 14C42.2091 14 44 12.2091 44 10Z" stroke="#A8A293"/>
</svg>
